<?xml version="1.0" encoding="utf-8"?>
<!-- Generator: Adobe Illustrator 15.0.2, SVG Export Plug-In . SVG Version: 6.00 Build 0)  -->
<!DOCTYPE svg PUBLIC "-//W3C//DTD SVG 1.1//EN" "http://www.w3.org/Graphics/SVG/1.1/DTD/svg11.dtd">
<svg version="1.1" id="Vrstva_1" xmlns="http://www.w3.org/2000/svg" xmlns:xlink="http://www.w3.org/1999/xlink" x="0px" y="0px"
	 width="628.607px" height="660.085px" viewBox="0 0 628.607 660.085" enable-background="new 0 0 628.607 660.085"
	 xml:space="preserve">
<polygon fill="#5400FF" points="431.645,109.625 478.694,193.201 406.538,193.201 395.51,212.673 512.002,212.673 431.696,70.02 
	350.909,212.673 374.018,212.673 "/>
<g>
	<path fill="#5400FF" d="M234.839,390.598h-36.898c-9.325,0-12.975,5.271-12.975,14.395v49.873h-8.109v-48.656
		c0-10.34-4.46-15.611-13.178-15.611h-36.694c-9.326,0-12.975,4.866-12.975,14.395v113.126c0,9.123,3.649,14.394,12.975,14.394
		h36.897c9.326,0,12.975-5.271,12.975-14.394v-55.145h8.109v53.928c0,10.34,4.461,15.61,13.178,15.61h36.695
		c9.326,0,12.975-4.865,12.975-14.394V404.993C247.814,395.87,244.166,390.598,234.839,390.598"/>
	<path fill="#5400FF" d="M162.261,372.223h37.303c8.515,0,12.772-4.663,12.772-13.989V243.892c0-7.501,8.11-7.501,8.11,0v20.477
		c0,19.058,15.002,33.856,33.856,33.856s34.059-14.799,34.059-33.451c0-19.057-15.205-34.465-33.856-34.465H107.32
		c-18.651,0-33.856,15.408-33.856,34.465c0,18.652,15.407,33.451,34.059,33.451c18.854,0,33.856-14.799,33.856-33.856v-20.477
		c0-6.69,8.11-8.313,8.11,0v114.14C149.489,366.952,153.138,372.223,162.261,372.223"/>
	<path fill="#5400FF" d="M218.521,144.018c-18.854,0-34.059,15.205-34.059,33.856v20.477c0,7.298-8.11,7.298-8.11,0v-53.319H194.8
		c6.285,0,6.285-8.109,0-8.109h-18.449V83.603c0-8.313,8.11-6.69,8.11,0v20.476c0,18.652,15.205,33.857,34.059,33.857
		c18.652,0,33.857-15.205,33.857-33.654c0-19.057-15.205-34.262-33.857-34.262h-92.244c-9.123,0-12.772,5.271-12.772,14.191v113.53
		c0,8.921,3.649,14.192,12.772,14.192h92.244c18.652,0,33.857-15.205,33.857-34.262
		C252.377,159.223,237.172,144.018,218.521,144.018"/>
</g>
<g>
	<path fill="#5400FF" d="M520.836,406.043c-13.242-49.361-63.996-78.644-113.357-65.4c-49.363,13.241-78.646,63.994-65.402,113.357
		c13.241,49.362,63.992,78.642,113.357,65.401C504.795,506.158,534.076,455.409,520.836,406.043"/>
	<path fill="#FFFF00" d="M386.187,398.166l-18.106,4.856c-2.416,0.647-3.121,2.189-2.415,4.825l8.243,30.729
		c0.413,1.536,1.951,3.536,4.639,2.813l9.824-2.634c1.537-0.412,3.463-1.341,2.566-4.688l-8.436-31.442
		c-0.235-0.878,0.159-1.162,0.818-1.34c0.768-0.205,1.215,0.145,1.479,1.133l5.713,21.292c0.398,1.482,1.21,2.321,2.308,2.028
		l0.328-0.09c6.149-1.646,14.65-6.574,11.501-18.319C401.954,397.288,392.938,396.355,386.187,398.166"/>
	<path fill="#FFFF00" d="M437.288,406.22l-3.731,1.002c-1.426,0.382-2.014-1.813-0.588-2.196l3.731-1.001
		c5.599-1.5,7.259-5.182,5.918-10.176c-2.003-7.461-11.435-7.757-19.282-5.65l-16.464,4.415c-2.414,0.647-3.117,2.189-2.412,4.826
		l8.246,30.729c0.41,1.535,1.947,3.537,4.636,2.815l9.821-2.637c1.54-0.408,3.466-1.341,2.568-4.687l-8.435-31.443
		c-0.235-0.878,0.16-1.162,0.818-1.338c0.769-0.205,1.215,0.142,1.479,1.132l6.597,24.586c1.619,6.036,6.702,10.082,12.907,8.42
		c5.377-1.443,7.986-6.848,6.601-12.006C448.344,407.962,442.887,404.721,437.288,406.22"/>
	<path fill="#FFFF00" d="M466.008,399.576l-7.271-13.285c-0.938-1.747,0.899-3.006,1.938-1.108l7.638,13.775L466.008,399.576z
		 M495.447,406.913l-20.818-30.24c-0.777-1.144-1.931-1.716-3.742-1.23l-11.688,3.136c-1.372,0.367-2.434,1.24-2.878,3.302
		l-5.481,24.529c-2.215,9.948,5.18,15.142,11.986,13.317c5.322-1.432,10.423-6.974,4.904-17.023l-0.6-1.133l2.252-0.605
		l6.739,12.193c0.669,1.173,1.558,1.639,3.425,1.139l15.2-4.077C496.504,409.749,496.325,408.208,495.447,406.913"/>
	<path fill="#FFFF00" d="M488.797,438.617c-5.104,1.372-8.117,6.593-6.761,11.642l1.487,5.54c0.529,1.977-1.664,2.566-2.195,0.589
		l-3.871-14.431l4.992-1.342c1.701-0.456,1.113-2.651-0.59-2.195l-4.992,1.343l-3.871-14.433c-0.604-2.251,1.708-2.399,2.195-0.592
		l1.486,5.543c1.354,5.051,6.574,8.06,11.678,6.692c5.049-1.354,8.06-6.573,6.721-11.567c-1.385-5.16-6.605-8.171-11.654-6.815
		l-24.967,6.697c-2.47,0.662-3.076,2.354-2.427,4.77l8.244,30.729c0.647,2.416,2.018,3.578,4.487,2.914l24.97-6.697
		c5.046-1.354,8.057-6.574,6.674-11.733C499.064,440.278,493.844,437.266,488.797,438.617"/>
	<path fill="#FFFF00" d="M414.679,459.855c-2.36,3.043-5.721,4.771-8.74,5.581c-6.859,1.839-12.931-2.591-14.418-8.136
		c-1.411-5.264,1.79-11.538,7.715-13.127c4.391-1.179,9.726,0.509,12.503,5.821c0.598,1.136-1.361,2.603-2.135,0.811
		c-1.22-2.792-5.278-5.643-9.835-4.424c-4.609,1.239-7.243,5.887-6.037,10.386c1.43,5.323,6.719,7.728,11.604,6.419
		c6.366-1.711,10.603-6.316,8.598-13.78c-1.427-5.322-9.374-10.601-19.47-7.894c-12.02,3.224-18.493,14.608-15.563,25.528
		c1.602,5.982,5.391,10.024,8.433,12.15c1.006,0.672,2.321,0.317,2.746-0.735c1.163-2.901,3.145-5.373,6.877-6.377
		c5.269-1.411,10.768,1.76,12.181,7.028c0.926,3.458-0.09,8.437-4.591,9.645c-1.15,0.308-1.481-1.133-0.382-1.429
		c2.854-0.765,3.89-4.572,3.037-7.757c-1.119-4.17-5.504-6.699-9.675-5.581c-4.226,1.138-7.302,5.666-6.037,10.387
		c1.62,6.036,7.145,10.848,15.98,8.478c15.146-4.063,13.605-18.357,9.689-32.955C416.88,458.853,415.46,458.823,414.679,459.855"/>
	<path fill="#FFFF00" d="M447.408,428.25l-9.713,2.604c-2.634,0.709-3.164,2.675-2.518,5.09l8.494,31.664
		c0.441,1.646-1.756,2.234-2.195,0.586l-8.629-32.155c-0.499-1.867-2.012-3.344-4.646-2.635l-9.659,2.591
		c-2.689,0.721-3.281,2.466-2.631,4.881l4.505,16.792c3.253,12.128,13.318,16.314,23.083,13.692
		c10.315-2.771,16.371-11.334,13.134-23.41l-4.489-16.735C451.482,428.746,450.152,427.513,447.408,428.25"/>
</g>
</svg>
