<svg width="175" height="175" viewBox="0 0 175 175" fill="none" xmlns="http://www.w3.org/2000/svg">
<path d="M171.347 64.6267C158.877 18.1137 111.078 -9.47971 64.5917 3.00015C18.1034 15.4772 -9.47431 63.3019 2.99843 109.817C15.4683 156.331 63.2638 183.921 109.754 171.444C156.241 158.965 183.816 111.144 171.347 64.6267Z" fill="#5400FF"/>
<path d="M44.5397 57.2042L27.4881 61.78C25.2128 62.3897 24.5488 63.8427 25.2137 66.3266L32.9767 95.2827C33.3657 96.73 34.8141 98.6147 37.3456 97.9334L46.5975 95.4514C48.0449 95.0631 49.8588 94.1877 49.014 91.0338L41.0693 61.4059C40.848 60.5786 41.219 60.311 41.8397 60.1433C42.5629 59.9501 42.9839 60.2799 43.2325 61.2109L48.6128 81.2744C48.9876 82.6709 49.7524 83.4615 50.7864 83.1854L51.0953 83.1006C56.8862 81.5496 64.8922 76.9059 61.9265 65.8386C59.3885 56.3769 50.8976 55.4977 44.5397 57.2042Z" fill="#FFFF00"/>
<path d="M92.6648 64.7935L89.1511 65.7377C87.8081 66.0977 87.2544 64.0293 88.5973 63.6684L92.1111 62.7252C97.384 61.3117 98.9473 57.8422 97.6844 53.1363C95.7981 46.1058 86.9153 45.8269 79.5253 47.8123L64.0201 51.9726C61.7467 52.5822 61.0846 54.0353 61.7485 56.5201L69.5143 85.4761C69.9005 86.9226 71.348 88.8091 73.8804 88.1287L83.1294 85.6439C84.5798 85.2594 86.3936 84.3802 85.5479 81.2273L77.6041 51.5985C77.3828 50.7711 77.7548 50.5035 78.3745 50.3377C79.0987 50.1445 79.5187 50.4715 79.7673 51.4043L85.9802 74.5718C87.5049 80.2595 92.2919 84.0721 98.1355 82.506C103.199 81.1463 105.656 76.0531 104.352 71.1927C103.077 66.435 97.9378 63.381 92.6648 64.7935Z" fill="#FFFF00"/>
<path d="M119.712 58.5328L112.865 46.0144C111.981 44.3682 113.711 43.1818 114.69 44.9703L121.883 57.9505L119.712 58.5328ZM147.437 65.4465L127.831 36.9513C127.099 35.8733 126.013 35.3343 124.307 35.7923L113.3 38.7473C112.008 39.0932 111.008 39.9158 110.589 41.8588L105.428 64.9726C103.342 74.3466 110.306 79.2409 116.716 77.5212C121.728 76.1718 126.532 70.9496 121.334 61.4804L120.769 60.4128L122.89 59.8427L129.236 71.3321C129.866 72.4375 130.704 72.8766 132.462 72.4054L146.777 68.5637C148.432 68.1189 148.264 66.6668 147.437 65.4465Z" fill="#FFFF00"/>
<path d="M141.174 95.3214C136.367 96.6142 133.53 101.534 134.807 106.292L136.207 111.512C136.706 113.375 134.64 113.93 134.14 112.067L130.495 98.4686L135.196 97.2041C136.798 96.7744 136.244 94.706 134.64 95.1357L129.939 96.4012L126.293 82.801C125.725 80.6798 127.902 80.5404 128.361 82.2431L129.76 87.4663C131.035 92.2259 135.951 95.0613 140.758 93.7722C145.513 92.4963 148.349 87.5785 147.088 82.8726C145.783 78.0103 140.867 75.173 136.112 76.4508L112.599 82.7614C110.273 83.3852 109.702 84.9796 110.313 87.2562L118.077 116.212C118.687 118.489 119.978 119.584 122.303 118.958L145.819 112.647C150.571 111.372 153.407 106.453 152.104 101.591C150.843 96.8865 145.927 94.0483 141.174 95.3214Z" fill="#FFFF00"/>
<path d="M71.3724 115.334C69.1499 118.201 65.9846 119.83 63.1414 120.593C56.6819 122.326 50.9635 118.151 49.5631 112.926C48.2342 107.966 51.2488 102.054 56.8288 100.557C60.9641 99.4458 65.9884 101.036 68.6037 106.042C69.1669 107.112 67.3219 108.495 66.593 106.806C65.444 104.175 61.6224 101.489 57.3308 102.637C52.9902 103.805 50.5095 108.185 51.6453 112.424C52.992 117.44 57.973 119.706 62.5735 118.473C68.5688 116.86 72.5591 112.521 70.6708 105.488C69.3269 100.473 61.8427 95.4985 52.3347 98.0493C41.0146 101.087 34.9186 111.814 37.678 122.104C39.1867 127.741 42.7551 131.55 45.6199 133.553C46.5673 134.187 47.8057 133.852 48.206 132.861C49.3012 130.127 51.1678 127.798 54.6825 126.852C59.6447 125.522 64.8234 128.51 66.1541 133.474C67.0262 136.733 66.0694 141.424 61.8305 142.563C60.7475 142.853 60.4357 141.495 61.4707 141.216C64.1585 140.495 65.1342 136.908 64.3309 133.907C63.277 129.977 59.1474 127.594 55.2193 128.648C51.2394 129.72 48.3425 133.987 49.5339 138.435C51.0595 144.123 56.2628 148.658 64.5833 146.424C78.8473 142.596 77.396 129.126 73.708 115.371C73.4453 114.39 72.108 114.361 71.3724 115.334Z" fill="#FFFF00"/>
<path d="M102.195 85.5524L93.0481 88.0062C90.5675 88.6743 90.0684 90.5268 90.6768 92.8025L98.6761 122.64C99.0914 124.191 97.0224 124.745 96.6089 123.192L88.4824 92.892C88.0125 91.1327 86.5876 89.741 84.107 90.409L75.0105 92.8506C72.4781 93.53 71.9206 95.1743 72.5327 97.4499L76.7753 113.273C79.8389 124.701 89.3178 128.646 98.5141 126.175C108.228 123.564 113.932 115.495 110.883 104.116L106.656 88.3463C106.032 86.0198 104.78 84.8579 102.195 85.5524Z" fill="#FFFF00"/>
</svg>
