<svg width="203" height="436" viewBox="0 0 203 436" fill="none" xmlns="http://www.w3.org/2000/svg">
<path d="M151.977 301.451H117.228C108.446 301.451 105.009 306.418 105.009 315.015V362.011H97.3719V316.162C97.3719 306.419 93.1716 301.452 84.9613 301.452H50.4042C41.6213 301.452 38.1848 306.037 38.1848 315.016V421.615C38.1848 430.212 41.6213 435.179 50.4042 435.179H85.1525C93.9354 435.179 97.3719 430.212 97.3719 421.615V369.652H105.009V420.469C105.009 430.212 109.21 435.178 117.419 435.178H151.977C160.76 435.178 164.197 430.594 164.197 421.614V315.015C164.197 306.419 160.761 301.451 151.977 301.451Z" fill="#5400FF"/>
<path d="M83.6259 284.451H118.757C126.776 284.451 130.785 280.057 130.785 271.269V163.524C130.785 156.456 138.422 156.456 138.422 163.524V182.82C138.422 200.778 152.551 214.722 170.307 214.722C188.063 214.722 202.382 200.777 202.382 183.201C202.382 165.244 188.063 150.725 170.498 150.725H31.8844C14.3195 150.725 0 165.244 0 183.201C0 200.777 14.5098 214.722 32.0756 214.722C49.8316 214.722 63.96 200.777 63.96 182.82V163.524C63.96 157.22 71.5977 155.691 71.5977 163.524V271.079C71.5977 279.484 75.0342 284.451 83.6259 284.451Z" fill="#5400FF"/>
<path d="M136.61 69.7285C118.854 69.7285 104.534 84.0562 104.534 101.631V120.927C104.534 127.804 96.8963 127.804 96.8963 120.927V70.684H114.27C120.189 70.684 120.189 63.0429 114.27 63.0429H96.8953V12.7993C96.8953 4.96594 104.533 6.49529 104.533 12.7993V32.0939C104.533 49.6697 118.853 63.9974 136.609 63.9974C154.174 63.9974 168.494 49.6697 168.494 32.2852C168.494 14.3277 154.174 0 136.609 0H49.7365C41.1448 0 37.7083 4.96688 37.7083 13.3722V120.352C37.7083 128.758 41.1448 133.725 49.7365 133.725H136.609C154.174 133.725 168.494 119.397 168.494 101.44C168.494 84.0562 154.174 69.7285 136.61 69.7285Z" fill="#5400FF"/>
</svg>
