<?xml version="1.0" encoding="UTF-8" standalone="no"?>
<svg
   viewBox="0 0 2235.5327 403.68112"
   height="403.68112"
   width="2235.5327"
   xml:space="preserve"
   id="svg2"
   version="1.1"
   sodipodi:docname="chainsafe.svg"
   inkscape:version="1.1.1 (3bf5ae0d25, 2021-09-20)"
   xmlns:inkscape="http://www.inkscape.org/namespaces/inkscape"
   xmlns:sodipodi="http://sodipodi.sourceforge.net/DTD/sodipodi-0.dtd"
   xmlns="http://www.w3.org/2000/svg"
   xmlns:svg="http://www.w3.org/2000/svg"
   xmlns:rdf="http://www.w3.org/1999/02/22-rdf-syntax-ns#"
   xmlns:cc="http://creativecommons.org/ns#"
   xmlns:dc="http://purl.org/dc/elements/1.1/"><sodipodi:namedview
     id="namedview24"
     pagecolor="#ffffff"
     bordercolor="#666666"
     borderopacity="1.0"
     inkscape:pageshadow="2"
     inkscape:pageopacity="0.0"
     inkscape:pagecheckerboard="0"
     showgrid="false"
     fit-margin-top="0"
     fit-margin-left="0"
     fit-margin-right="0"
     fit-margin-bottom="0"
     inkscape:zoom="0.23587499"
     inkscape:cx="691.04401"
     inkscape:cy="667.72657"
     inkscape:window-width="1869"
     inkscape:window-height="1007"
     inkscape:window-x="51"
     inkscape:window-y="49"
     inkscape:window-maximized="1"
     inkscape:current-layer="svg2" /><metadata
     id="metadata8"><rdf:RDF><cc:Work
         rdf:about=""><dc:format>image/svg+xml</dc:format><dc:type
           rdf:resource="http://purl.org/dc/dcmitype/StillImage" /></cc:Work></rdf:RDF></metadata><defs
     id="defs6"><clipPath
       id="clipPath20"
       clipPathUnits="userSpaceOnUse"><path
         id="path18"
         d="M 1612.79,1365.81 H 18387.2 V 4394.19 H 1612.79 Z" /></clipPath></defs><g
     transform="matrix(1.3333333,0,0,-1.3333333,-215.03866,585.78912)"
     id="g10"><g
       transform="scale(0.1)"
       id="g12"><g
         id="g14"><g
           clip-path="url(#clipPath20)"
           id="g16"><path
             id="path22"
             style="fill:#211d1d;fill-opacity:1;fill-rule:nonzero;stroke:none"
             d="m 6443.99,3660.04 c -478,0 -864.16,-372.68 -864.16,-834.46 0,-464.48 386.16,-839.82 864.16,-839.82 224.15,0 434.79,86.37 594.11,229.52 l 70.23,-78.31 C 6932.78,1974.95 6692.42,1875 6441.31,1875 c -537.39,0 -974.89,423.97 -974.89,947.88 0,523.9 437.5,945.19 974.89,945.19 253.82,0 488.79,-97.22 664.31,-253.88 l -67.52,-86.4 c -156.61,145.82 -369.96,232.25 -594.11,232.25" /><path
             id="path24"
             style="fill:#211d1d;fill-opacity:1;fill-rule:nonzero;stroke:none"
             d="M 8771.62,2736.48 V 1877.71 H 8658.2 v 837.18 c 0,288.93 -170.12,459.09 -459.09,459.09 -348.33,-8.14 -550.89,-240.36 -550.89,-607.66 V 1877.71 H 7534.8 V 3881.5 h 113.42 v -964.08 c 94.54,237.64 294.33,364.55 577.9,369.94 342.97,0 545.5,-207.95 545.5,-550.88" /><path
             id="path26"
             style="fill:#211d1d;fill-opacity:1;fill-rule:nonzero;stroke:none"
             d="m 10189.3,2336.8 v 229.52 h -491.54 c -275.47,0 -426.66,-94.5 -426.66,-275.42 0,-186.35 143.12,-313.26 372.63,-313.26 261.95,0 459.07,113.41 545.57,359.16 m 2.6,-459.09 -2.6,278.15 C 10070.4,1961.43 9870.6,1875 9627.56,1875 c -278.18,0 -464.48,175.55 -464.48,413.19 0,234.97 199.82,378.08 523.87,378.08 h 499.65 v 137.72 c -2.8,237.66 -140.5,380.77 -421.32,380.77 -175.54,0 -324.08,-70.23 -472.61,-183.65 l -54,86.43 c 167.41,121.55 329.47,199.82 542.81,199.82 332.12,0 513.12,-183.61 515.82,-475.29 l 5.4,-934.36 h -110.8" /><path
             id="path28"
             style="fill:#211d1d;fill-opacity:1;fill-rule:nonzero;stroke:none"
             d="m 10929,1877.73 h -110.7 v 1406.98 h 110.7 z m 40.5,1812.01 c 0,-56.71 -43.2,-99.9 -94.5,-99.9 -51.3,0 -94.5,43.19 -94.5,99.9 0,54.03 43.2,97.25 94.5,97.25 51.3,0 94.5,-43.22 94.5,-97.25" /><path
             id="path30"
             style="fill:#211d1d;fill-opacity:1;fill-rule:nonzero;stroke:none"
             d="m 12727.5,2736.48 v -858.77 h -113.4 v 837.18 c 0,288.93 -170.2,459.09 -459.1,459.09 -324.1,-8.14 -523.9,-210.66 -548.2,-534.75 v -761.52 h -113.4 v 1406.97 h 113.4 v -359.19 c 94.5,232.25 294.3,356.48 575.2,361.87 343,0 545.5,-207.95 545.5,-550.88" /><path
             id="path32"
             style="fill:#211d1d;fill-opacity:1;fill-rule:nonzero;stroke:none"
             d="m 13783.2,3651.93 c -299.7,0 -494.2,-124.22 -494.2,-321.36 0,-575.16 1109.9,-278.13 1104.6,-974.87 0,-291.65 -262,-480.71 -656.3,-480.71 -251.1,0 -507.7,110.76 -672.4,272.79 l 59.4,99.89 c 153.9,-159.31 394.3,-256.53 615.7,-256.53 324.1,0 532,140.4 532,361.85 5.4,591.42 -1104.5,288.97 -1104.5,969.51 0,272.72 248.5,448.24 621.1,448.24 191.8,0 399.7,-62.07 540.1,-153.92 l -51.3,-102.61 c -140.4,91.83 -332.2,137.72 -494.2,137.72" /><path
             id="path34"
             style="fill:#211d1d;fill-opacity:1;fill-rule:nonzero;stroke:none"
             d="m 15762.6,2336.8 v 229.52 h -491.5 c -275.5,0 -426.7,-94.5 -426.7,-275.42 0,-186.35 143.1,-313.26 372.6,-313.26 262,0 459.1,113.41 545.6,359.16 m 2.7,-459.09 -2.7,278.15 C 15643.7,1961.43 15443.9,1875 15200.9,1875 c -278.2,0 -464.5,175.55 -464.5,413.19 0,234.97 199.8,378.08 523.9,378.08 h 499.6 v 137.72 c -2.7,237.66 -140.5,380.77 -421.3,380.77 -175.6,0 -324.1,-70.23 -472.6,-183.65 l -54,86.43 c 167.4,121.55 329.5,199.82 542.8,199.82 332.1,0 513.1,-183.61 515.8,-475.29 l 5.4,-934.36 h -110.7" /><g
             transform="scale(1.05052)"
             id="g36"><path
               id="path38"
               style="fill:#211d1d;fill-opacity:1;fill-rule:nonzero;stroke:none"
               d="m 15737,3275.84 v -182.53 h 413.9 v -92.54 H 15737 V 1787.42 h -105.3 V 3000.77 H 15462 v 92.54 h 169.7 v 174.82 c 0,259.61 182.4,431.84 395.9,429.27 97.6,0 197.9,-35.98 272.4,-95.12 l -48.8,-87.41 c -64.3,48.88 -144,79.7 -221.1,79.7 -164.6,2.58 -293.1,-128.52 -293.1,-318.73" /></g><g
             transform="scale(1.12805)"
             id="g40"><path
               id="path42"
               style="fill:#211d1d;fill-opacity:1;fill-rule:nonzero;stroke:none"
               d="m 16201.9,2349.22 c -19.2,282.49 -203.6,474.03 -488.4,474.03 -280.1,0 -483.6,-191.54 -507.5,-474.03 z m 90.9,-88.55 h -1089.2 c 14.4,-304.04 225,-507.52 514.7,-507.52 169.9,0 320.8,62.23 421.3,172.38 l 57.5,-64.65 c -114.9,-124.5 -284.8,-198.72 -483.6,-198.72 -351.9,0 -608,258.56 -608,624.83 0,366.3 256.1,627.21 608,627.21 366.3,0 586.5,-268.13 579.3,-653.53" /></g><path
             id="path44"
             style="fill:#f2f032;fill-opacity:1;fill-rule:nonzero;stroke:none"
             d="m 3578.04,2005.42 -822.43,474.25 -571.59,327.62 -0.06,-0.02 v 642.29 l 573.13,306.75 264.31,-152.82 283.04,152.07 -621.09,-333.7 v -657.81 l 1119.4,-639.44 315.21,167.15 z m 1105.31,952.73 v 313.33 L 2755.93,4381 1624.97,3775.55 1904.5,3614.17 h -0.03 v -957.2 l -1.05,-0.53 v 957.73 l -278.45,161.38 V 2487.45 L 3569.4,1377.51 4683.35,1973.79 v 319.31 l -1404.74,804.71 319.89,170.63 -0.03,3.43 806.11,-464.07 278.77,150.35" /><path
             id="path46"
             style="fill:#211d1d;fill-opacity:1;fill-rule:nonzero;stroke:none"
             d="m 3271.62,3115.49 c -0.75,-0.36 -1.85,-0.75 -2.59,-1.11 l -270,-144.27 v 268.5 l 577.07,311.16 1.1,-271.13 z m 1364.74,-818.47 -1068.45,-571.11 -239.19,137.57 -1378.83,793.63 238.84,128.7 559.61,-320.81 818.47,-471.72 c 5.92,-3.33 12.98,-3.33 18.56,-0.36 l 223.61,118.66 313.75,166.53 c 6.31,3.33 10.01,9.61 10.4,16.68 0,7.06 -3.73,13.73 -9.65,17.06 l -1103.69,625.62 258.14,137.6 z m 20.79,-307.07 -1069.94,-572.61 v 274.79 l 1069.94,571.89 z m -3005.43,1748.2 238.48,-138.31 v -944.58 c 0,-0.39 0,-0.74 0.36,-1.1 0,-0.39 0,-0.77 0.36,-1.13 0,-0.36 0.38,-0.74 0.38,-1.49 0,-0.36 0.36,-0.74 0.36,-1.1 0.39,-0.39 0.39,-0.75 0.75,-1.49 0,-0.36 0.38,-0.75 0.38,-1.1 0.36,-0.39 0.36,-0.75 0.72,-1.14 0.39,-0.35 0.39,-0.74 0.74,-0.74 0.39,-0.35 0.75,-0.72 1.14,-1.1 0.35,-0.36 0.35,-0.36 0.74,-0.75 0.35,-0.36 0.71,-0.74 1.49,-1.1 0.35,0 0.35,-0.35 0.71,-0.35 0.75,-0.39 1.49,-1.14 2.24,-1.49 L 3549.03,1692.52 V 1418.09 L 1651.72,2500.98 Z m 1105.88,614.12 1878.76,-1081.4 -103.83,-55.25 -133.14,-70.83 -793.27,453.92 c -2.98,1.84 -6.67,2.58 -10,2.58 h -0.75 -0.36 -1.13 -1.1 c -0.36,0 -0.74,0 -1.49,-0.35 -0.36,0 -0.74,0 -1.1,-0.39 -0.39,0 -1.13,-0.35 -1.49,-0.35 -0.38,0 -0.75,0 -0.75,-0.36 l -2.23,-1.13 -605.6,-326.35 -254.41,146.48 305.97,164.29 281.85,151.3 c 6.31,3.34 10,9.65 10,16.71 0,7.03 -3.69,13.7 -9.65,17.03 l -545.13,313.78 c -0.4,0.36 -0.75,0.36 -1.14,0.36 -0.35,0 -0.71,0.36 -1.1,0.36 -0.36,0 -0.36,0 -0.74,0.38 h -0.36 c -0.39,0 -0.75,0.36 -1.13,0.36 h -0.36 c -0.36,0 -0.75,0 -0.75,0.39 h -0.35 c -0.39,0 -0.75,0 -1.14,0.36 h -0.35 -1.13 -0.36 -0.75 -0.35 -1.14 -0.35 -0.75 -0.35 c -0.39,0 -0.75,0 -1.14,-0.36 h -0.36 -0.74 -0.38 c -0.36,0 -0.75,-0.39 -1.11,-0.39 h -0.74 -0.36 -0.39 c -0.35,0 -0.74,-0.36 -1.1,-0.36 -0.39,0 -0.74,-0.38 -1.1,-0.38 l -837.77,-449.48 -238.84,137.96 z M 4657.15,2969.76 4418.31,2841.05 v 270 l 9.26,5.18 229.19,122.03 v -268.5 z m -1041.02,578.13 763.61,-436.84 V 2841.8 l -763.61,436.49 z m 184.33,-1397.38 -1095.13,625.65 v 610.04 l 255.13,-147.23 v -301.11 -1.49 -1.11 -0.74 -0.75 -0.74 c 0,-0.36 0.39,-0.74 0.39,-1.13 0,-0.36 0.36,-0.72 0.36,-1.46 0,-0.39 0.39,-0.75 0.39,-1.13 0.35,-0.36 0.35,-0.72 0.74,-1.11 0,-0.35 0.36,-0.74 0.72,-0.74 0.38,-0.36 0.38,-0.75 0.74,-1.1 0.38,-0.39 0.38,-0.39 0.75,-0.74 0.38,-0.4 0.74,-0.75 0.74,-1.14 l 0.75,-0.72 c 0.38,-0.38 0.74,-0.74 1.09,-0.74 0.39,-0.38 0.75,-0.38 0.75,-0.38 0.39,-0.36 0.74,-0.36 1.13,-0.75 h 0.36 0.39 L 4073.05,2296.27 Z M 2208,3435.55 l 550.74,294.8 223.61,-129.41 -305.94,-164.29 c -0.38,0 -0.38,-0.39 -0.74,-0.39 -0.39,-0.36 -1.13,-0.71 -1.49,-1.1 -1.49,-1.49 -2.98,-2.98 -3.73,-4.82 -0.35,-0.75 -0.35,-1.49 -0.74,-2.21 -0.35,-1.13 -0.35,-2.23 -0.35,-3.36 v -654.54 c 0,-7.06 3.72,-13.37 9.64,-16.71 l 1083.64,-618.94 -183.2,-97.16 -812.18,461.33 -559.26,320.42 z m 531.82,328.58 -560.36,-300.05 c -6.31,-3.34 -10.39,-10.01 -10.39,-17.07 v -627.46 l -239.58,-128.7 v 908.6 l 810.33,433.54 z m 282.95,-141.69 -244.02,141.3 v 268.14 l 485.45,-279.64 z m 1366.59,-830.71 c 0.39,-0.35 0.77,-0.35 1.13,-0.74 0.35,0 0.75,-0.39 1.1,-0.39 0.39,-0.36 1.13,-0.36 1.49,-0.36 0.36,0 0.74,-0.35 1.13,-0.35 0.36,0 1.1,-0.39 1.85,-0.39 h 0.71 2.62 2.6 0.74 c 0.36,0 1.1,0 1.46,0.39 0.39,0 0.78,0.35 1.13,0.35 0.36,0 0.74,0.36 1.49,0.36 0.36,0 0.74,0.39 1.11,0.39 0.38,0 0.74,0.39 1.12,0.39 l 277.39,149.42 c 6.31,3.34 10,10.04 10,17.07 v 311.9 1.46 1.13 c 0,0.36 0,1.1 -0.36,1.49 v 0.74 c 0,0.75 -0.35,1.11 -0.74,1.85 0,0.36 0,0.36 -0.39,0.74 -0.36,0.75 -0.71,1.46 -1.1,2.24 -0.36,0.71 -0.74,1.46 -1.1,1.84 0,0.36 -0.36,0.36 -0.36,0.75 -0.39,0.36 -0.77,0.74 -1.13,1.1 -0.36,0.39 -0.36,0.39 -0.75,0.75 -0.38,0.35 -0.74,0.74 -1.1,1.1 -0.39,0.39 -0.74,0.39 -0.74,0.74 -0.36,0.39 -0.74,0.39 -1.14,0.75 L 2767.61,4390.84 c -5.93,3.37 -12.96,3.37 -18.88,0.39 L 1623.16,3788.58 h -0.36 -0.39 c -0.35,0 -0.71,-0.36 -0.71,-0.75 -0.39,-0.35 -0.75,-0.35 -1.13,-0.71 -0.36,-0.39 -0.75,-0.74 -1.11,-0.74 -0.38,-0.39 -0.74,-0.39 -0.74,-0.75 -0.39,-0.39 -0.75,-0.75 -1.1,-1.13 -0.39,-0.36 -0.39,-0.72 -0.74,-0.72 -0.4,-0.38 -0.4,-0.77 -0.75,-1.13 -0.39,-0.36 -0.39,-0.74 -0.74,-1.1 -0.39,-0.39 -0.39,-0.74 -0.75,-1.13 0,-0.36 -0.36,-0.72 -0.36,-1.1 -0.38,-0.36 -0.38,-0.75 -0.38,-1.49 0,-0.36 -0.36,-0.75 -0.36,-1.11 0,-0.35 -0.39,-1.13 -0.39,-1.49 0,-0.35 0,-0.74 -0.36,-1.1 v -1.48 -1.11 -1282.06 c 0,-7.05 3.69,-13.34 9.62,-16.67 L 3557.54,1368.02 c 0.37,-0.35 0.75,-0.35 1.11,-0.74 0.39,0 0.74,-0.36 1.13,-0.36 0.36,-0.39 1.1,-0.39 1.49,-0.39 0.36,0 0.71,-0.35 1.1,-0.35 0.39,0 1.1,-0.39 1.85,-0.39 h 0.74 2.59 2.6 0.74 c 0.38,0 1.1,0 1.49,0.39 0.39,0 0.75,0.35 0.75,0.35 0.35,0 1.09,0.39 1.48,0.39 0.36,0 0.75,0.36 1.1,0.36 0.39,0 0.75,0.39 1.11,0.39 l 1108.5,593.36 c 6.29,3.33 10.4,10 10.4,17.03 v 317.47 c 0,2.98 -0.78,6.32 -2.24,9.26 0,0 0,0.39 -0.38,0.39 -1.85,3.34 -4.44,5.93 -7.42,7.42 l -1367.33,783.97 278.12,148.36 792.89,-453.2" /></g></g></g></g></svg>
