<?xml version="1.0" encoding="UTF-8" standalone="no"?>
<!-- Generator: Adobe Illustrator 26.0.3, SVG Export Plug-In . SVG Version: 6.00 Build 0)  -->

<svg
   version="1.1"
   id="Réteg_1"
   x="0px"
   y="0px"
   viewBox="0 0 860.51628 204.22754"
   xml:space="preserve"
   sodipodi:docname="Galaxis_black.svg"
   width="860.5163"
   height="204.22754"
   inkscape:version="1.1.1 (3bf5ae0d25, 2021-09-20)"
   xmlns:inkscape="http://www.inkscape.org/namespaces/inkscape"
   xmlns:sodipodi="http://sodipodi.sourceforge.net/DTD/sodipodi-0.dtd"
   xmlns="http://www.w3.org/2000/svg"
   xmlns:svg="http://www.w3.org/2000/svg"><defs
   id="defs43" /><sodipodi:namedview
   id="namedview41"
   pagecolor="#ffffff"
   bordercolor="#666666"
   borderopacity="1.0"
   inkscape:pageshadow="2"
   inkscape:pageopacity="0.0"
   inkscape:pagecheckerboard="0"
   showgrid="false"
   fit-margin-top="0"
   fit-margin-left="0"
   fit-margin-right="0"
   fit-margin-bottom="0"
   inkscape:zoom="0.49555042"
   inkscape:cx="353.14268"
   inkscape:cy="247.19987"
   inkscape:window-width="1869"
   inkscape:window-height="1007"
   inkscape:window-x="51"
   inkscape:window-y="49"
   inkscape:window-maximized="1"
   inkscape:current-layer="Réteg_1" />
<style
   type="text/css"
   id="style2">
	.st0{fill:#010202;}
</style>
<g
   id="g38"
   transform="translate(-185.62133,-308.0111)">
	<g
   id="g26">
		<path
   class="st0"
   d="m 1041.8,419.1 c -3.1,-3.5 -6.9,-6.2 -11.4,-7.9 -4.5,-1.7 -10.4,-3.5 -17.6,-5.3 -6.1,-1.5 -11,-2.9 -14.7,-4.2 -3.6,-1.3 -6.7,-3.1 -9.1,-5.5 -2.4,-2.4 -3.6,-5.6 -3.6,-9.6 0,-5.3 2.2,-9.6 6.6,-13 4.4,-3.3 10.9,-5 19.6,-5 4.5,0 9.2,0.7 13.9,2.1 4.7,1.4 9.2,3.4 13.3,6.2 l 3.5,-8.4 c -4,-2.7 -8.7,-4.9 -14.1,-6.4 -5.4,-1.6 -11,-2.3 -16.6,-2.3 -8.1,0 -14.9,1.2 -20.4,3.7 -5.5,2.5 -9.5,5.7 -12.2,9.8 -2.6,4.1 -4,8.7 -4,13.7 0,6.1 1.6,11 4.7,14.6 3.2,3.6 7,6.3 11.4,8 4.4,1.7 10.4,3.6 17.8,5.4 6.2,1.5 11.1,2.9 14.6,4.2 3.5,1.3 6.4,3.1 8.8,5.4 2.4,2.4 3.6,5.5 3.6,9.5 0,5.2 -2.2,9.4 -6.7,12.7 -4.4,3.3 -11.1,4.9 -20,4.9 -6.3,0 -12.5,-1.1 -18.4,-3.3 -5.9,-2.2 -10.7,-5.1 -14.3,-8.7 l -4.1,8.1 c 3.7,3.9 8.9,7 15.6,9.3 6.7,2.4 13.8,3.5 21.2,3.5 8.1,0 15,-1.2 20.5,-3.6 5.6,-2.4 9.7,-5.7 12.4,-9.8 2.7,-4.1 4,-8.7 4,-13.7 0.3,-6 -1.2,-10.8 -4.3,-14.4"
   id="path4" />
		<polygon
   class="st0"
   points="523,459.7 523,459.7 551.5,449.1 527.7,449.1 562.5,371.5 602,459.7 612.9,459.7 567.6,360.6 557.2,360.6 511.9,459.7 "
   id="polygon6" />
		<polygon
   class="st0"
   points="879.2,417.3 860.5,426.8 836.2,459.7 848.3,459.7 "
   id="polygon8" />
		<polygon
   class="st0"
   points="910.3,360.6 880.5,401.1 850.7,360.6 838.6,360.6 873.8,408.6 891.5,401.6 921.6,360.6 "
   id="polygon10" />
		<polygon
   class="st0"
   points="924.3,459.7 889.2,412.2 880.5,416.6 912.1,459.7 "
   id="polygon12" />
		<polygon
   class="st0"
   points="951.9,360.6 941.4,360.6 941.4,382.1 951.9,378.1 "
   id="polygon14" />
		<polygon
   class="st0"
   points="951.9,380.3 941.4,385.7 941.4,459.7 951.9,459.7 "
   id="polygon16" />
		<polygon
   class="st0"
   points="730,459.7 730,459.7 758.5,449.1 734.7,449.1 769.5,371.5 809,459.7 819.9,459.7 774.6,360.6 764.2,360.6 718.9,459.7 "
   id="polygon18" />
		<path
   class="st0"
   d="m 441.4,374.4 c 6.5,-3.5 13.7,-5.3 21.7,-5.3 12.1,0 22,3.9 29.9,11.6 l 6.5,-6.7 c -4.3,-4.7 -9.7,-8.3 -16,-10.7 -6.3,-2.4 -13.3,-3.6 -20.8,-3.6 -10,0 -19,2.2 -26.9,6.5 -7.9,4.3 -14.2,10.4 -18.7,18.1 -4.5,7.7 -6.8,16.3 -6.8,25.8 0,9.5 2.3,18.1 6.8,25.8 4.5,7.7 10.8,13.7 18.7,18 7.9,4.3 16.8,6.5 26.8,6.5 7,0 13.6,-1.1 20,-3.3 6.3,-2.2 11.8,-5.3 16.4,-9.3 v -29.3 l -10.1,4.5 v 20.4 c -7.1,5.1 -15.7,7.6 -25.9,7.6 -8,0 -15.2,-1.8 -21.7,-5.4 -6.4,-3.6 -11.5,-8.5 -15.1,-14.7 -3.7,-6.2 -5.5,-13.2 -5.5,-21 0,-7.7 1.8,-14.7 5.5,-21 3.7,-6.1 8.7,-11 15.2,-14.5"
   id="path20" />
		<polygon
   class="st0"
   points="643.4,360.7 643.4,360.6 643.3,360.6 "
   id="polygon22" />
		<polygon
   class="st0"
   points="632.9,459.7 698.9,459.7 698.9,450.6 643.4,450.6 643.4,361 632.9,365.7 "
   id="polygon24" />
	</g>
	<g
   id="g36">
		<path
   class="st0"
   d="m 327.5,370 c 6.2,2.4 11.4,6 15.7,10.8 22.3,24.9 10.1,63.6 -22.4,71.2 -17.1,4 -35.9,-3.7 -45.8,-19.2 -5.2,-8.2 -12.2,-12.4 -22,-11.9 -11.1,0.6 -20.9,10.5 -21.4,21.5 -0.5,12.6 7.7,23.2 19.5,24.7 3,0.4 6.1,-0.2 9.1,-0.3 0.8,0 1.8,-0.2 2.4,0.2 5.8,3.9 11.5,8 17.3,12 -5,3.7 -11,6.3 -17.5,7.4 -23.2,4.1 -44.9,-10.6 -49.8,-33.8 -4.8,-23 10.4,-46.1 33.4,-50.7 3.1,-0.6 6.3,-0.8 9.4,-1.1 9.4,-0.8 16.1,-5.6 19.6,-14.3 3.5,-8.8 2.1,-17 -4.2,-24.1 -6.2,-7 -14.2,-9.5 -23.2,-7.1 -9,2.4 -14.6,8.5 -16.9,17.5 -0.2,0.8 -0.8,1.7 -1.5,2.1 -5.7,3 -11.5,5.9 -17.3,8.7 -0.2,0.1 -0.5,0.1 -0.9,0.2 -1.3,-8.4 0,-16.4 3.4,-24 12.4,-27.1 48,-33.7 69.3,-12.7 12.9,12.6 16.4,31.7 9,48.5 -0.8,1.7 -1.5,3.4 -2.4,5.1 -6.1,12.1 1.2,28.4 16.3,31.8 10.2,2.3 20.9,-2.9 25.7,-12.2 4.9,-9.4 2.8,-20.5 -5.2,-27.9 -0.6,-0.6 -1.3,-1.7 -1.2,-2.5 0.3,-6.4 0.8,-12.8 1.3,-19.1 0.1,-0.1 0.2,-0.3 0.3,-0.8 z"
   id="path28" />
		<path
   class="st0"
   d="m 317.4,394.3 c 7,3.4 10.9,8.8 10.6,16.8 -0.4,8.3 -7.9,15.3 -16.3,15.3 -8.7,0 -16.4,-6.9 -16.4,-15.3 0,-3.1 0.6,-6.6 2.1,-9.3 9.7,-17.8 7.9,-40.2 -5.4,-55.7 -13.4,-15.6 -30.6,-21.5 -50.5,-16.5 -19.7,5 -31.9,18.2 -36.5,38 -1.5,6.2 -0.8,12.6 0.6,18.8 0.2,0.8 0.1,2.1 -0.5,2.7 -4.3,4.7 -8.8,9.3 -13.1,13.8 -8.5,-14.9 -10.5,-44.4 6.6,-67.5 18.5,-24.9 51.1,-34 79.8,-22.4 23.5,9.6 49.8,39.1 39,81.3 z"
   id="path30" />
		<path
   class="st0"
   d="m 307.4,485.8 c -4.8,6.4 -10.7,11.8 -17.5,16.1 -40.3,25.5 -94.3,1.4 -102,-45.7 -5.6,-33.5 14.2,-65.4 46.9,-75.5 1.8,-0.5 2.4,-1.2 2.4,-3.1 0.1,-8.7 7.3,-15.9 16,-16.1 8.7,-0.2 16.2,6.5 16.8,15 0.7,9.1 -5.4,17 -14.3,17.8 -7.3,0.6 -14.4,1.5 -21.1,4.5 -19.8,8.9 -31.9,30 -29.3,51.2 2.8,22.4 19.6,40 41.6,43.5 14.7,2.3 27.8,-1.3 39.4,-10.5 1.3,-1 2.3,-1.2 3.9,-0.8 5.5,1.2 11.2,2.3 17.2,3.6 z"
   id="path32" />
		<path
   class="st0"
   d="m 320.2,343.5 c 23.5,2.5 48.8,20.3 56.3,49.9 7.2,28.4 -4.7,57.9 -29.7,73.6 -24.1,15.1 -58.1,14.4 -82.6,-9 -5.6,3.3 -11.4,3.7 -17.3,0.6 -6.2,-3.3 -9.4,-10.1 -8.3,-17.3 1,-6.6 6.4,-12 13.5,-13.4 6.3,-1.3 13.4,1.9 16.9,7.7 9.5,15.5 23.6,23.7 41.6,24.2 27.3,0.7 47.1,-19.7 50.3,-42.2 3.4,-24.2 -9.7,-46.1 -32.7,-54.5 -1.6,-0.6 -2.2,-1.3 -2.5,-3 -0.5,-2.8 -1.4,-5.6 -2.3,-8.4 -1,-2.8 -2.1,-5.4 -3.2,-8.2 z"
   id="path34" />
	</g>
</g>
</svg>
