<?xml version="1.0" encoding="UTF-8" standalone="no"?>
<!-- Generator: Adobe Illustrator 23.0.1, SVG Export Plug-In . SVG Version: 6.00 Build 0)  -->

<svg
   version="1.1"
   id="Layer_1"
   x="0px"
   y="0px"
   viewBox="0 0 255.00001 85.317814"
   xml:space="preserve"
   sodipodi:docname="ledger.svg"
   width="255"
   height="85.31781"
   inkscape:version="1.1.1 (3bf5ae0d25, 2021-09-20)"
   xmlns:inkscape="http://www.inkscape.org/namespaces/inkscape"
   xmlns:sodipodi="http://sodipodi.sourceforge.net/DTD/sodipodi-0.dtd"
   xmlns="http://www.w3.org/2000/svg"
   xmlns:svg="http://www.w3.org/2000/svg"><defs
   id="defs3180" /><sodipodi:namedview
   id="namedview3178"
   pagecolor="#ffffff"
   bordercolor="#666666"
   borderopacity="1.0"
   inkscape:pageshadow="2"
   inkscape:pageopacity="0.0"
   inkscape:pagecheckerboard="0"
   showgrid="false"
   width="250px"
   fit-margin-top="0"
   fit-margin-left="0"
   fit-margin-right="0"
   fit-margin-bottom="0"
   inkscape:zoom="1.1706293"
   inkscape:cx="67.485067"
   inkscape:cy="173.83812"
   inkscape:window-width="1869"
   inkscape:window-height="1007"
   inkscape:window-x="51"
   inkscape:window-y="49"
   inkscape:window-maximized="1"
   inkscape:current-layer="Layer_1" />
<path
   d="m 218.13496,79.945214 v 5.37132 H 255 V 61.092063 h -5.37132 V 79.945214 Z M 218.13496,0 v 5.3713191 h 31.49372 V 24.225746 H 255 V 0 Z M 199.12374,41.553158 V 29.071915 h 8.42664 c 4.10814,0 5.5829,1.36896 5.5829,5.108744 v 2.211493 c 0,3.844304 -1.42249,5.161006 -5.5829,5.161006 z m 13.37606,2.211494 c 3.84429,-1.000589 6.52995,-4.582319 6.52995,-8.847252 0,-2.685661 -1.05285,-5.108746 -3.05403,-7.057664 -2.52761,-2.423085 -5.89902,-3.63399 -10.26975,-3.63399 h -11.84902 v 36.865043 h 5.26679 V 46.398051 h 7.90021 c 4.05462,0 5.68742,1.685071 5.68742,5.89902 v 8.794992 h 5.37132 v -7.952459 c 0,-5.793223 -1.36895,-8.004718 -5.58289,-8.636938 z m -44.34208,1.210904 h 16.22103 V 40.130664 H 168.15772 V 29.070641 h 17.80031 v -4.844895 h -23.17289 v 36.865043 h 23.96316 v -4.844894 h -18.59058 z m -17.64351,1.948922 v 2.527603 c 0,5.319059 -1.94893,7.057663 -6.84608,7.057663 h -1.15864 c -4.89843,0 -7.26799,-1.58055 -7.26799,-8.900787 v -9.901379 c 0,-7.372497 2.47535,-8.900789 7.37251,-8.900789 h 1.05284 c 4.79264,0 6.31966,1.790866 6.37191,6.741554 h 5.79323 c -0.52643,-7.267977 -5.37132,-11.849022 -12.6393,-11.849022 -3.52819,0 -6.4777,1.106384 -8.68919,3.212084 -3.31789,3.107566 -5.16102,8.374363 -5.16102,15.746862 0,7.109925 1.58055,12.376723 4.84491,15.641067 2.21149,2.159234 5.26679,3.317881 8.26856,3.317881 3.15982,0 6.05707,-1.264441 7.53056,-4.00236 h 0.73674 v 3.475934 h 4.84489 V 42.079583 h -14.27211 v 4.844895 z M 104.06516,29.070641 h 5.74097 c 5.42485,0 8.37436,1.36896 8.37436,8.742732 v 9.68979 c 0,7.372497 -2.94951,8.742732 -8.37436,8.742732 h -5.74097 z m 6.21386,32.021422 c 10.05944,0 13.79795,-7.636348 13.79795,-18.43252 0,-10.954229 -4.00237,-18.432523 -13.90374,-18.432523 H 98.797093 V 61.092063 Z M 73.361716,44.975556 H 89.582745 V 40.130664 H 73.361716 V 29.070641 H 91.162018 V 24.225746 H 67.989123 V 61.090789 H 91.952292 V 56.245895 H 73.361716 Z M 42.289898,24.225746 h -5.37132 V 61.090789 H 61.144324 V 56.245895 H 42.289898 Z M 0,61.092063 V 85.31781 H 36.865044 V 79.945214 H 5.3713191 V 61.092063 Z M 0,0 V 24.225746 H 5.3713191 V 5.3713191 H 36.865044 V 0 Z"
   id="path3175"
   style="stroke-width:0.127464" />
</svg>
