<svg width="236" height="66" viewBox="0 0 236 66" fill="none" xmlns="http://www.w3.org/2000/svg">
<path d="M119.661 46.9561C116.943 46.9561 115.164 45.843 113.665 44.5449C110.573 41.8555 109.544 37.4963 109.544 32.9523C109.544 28.4073 110.574 23.9566 113.665 21.3596C115.163 20.0606 116.943 18.9485 119.661 18.9485C127.906 18.9485 130.06 26.2744 130.06 32.9523C130.06 39.6282 127.905 46.9561 119.661 46.9561ZM120.689 13.7495C116.567 13.7495 111.789 15.7899 109.634 19.4067L108.51 14.6768H103.733V65.3132H109.916V46.8578C111.882 50.1972 116.66 52.0518 120.595 52.0518C124.904 52.0518 128.277 50.5679 130.713 48.3416C134.46 44.8173 136.334 39.0677 136.334 32.7615C136.334 26.7336 134.552 21.1689 130.993 17.6445C128.745 15.2334 125.185 13.7495 120.689 13.7495Z" fill="#231F20"/>
<path d="M19.6357 0.216797H12.5954V7.16512H19.6357V0.216797Z" fill="#231F20"/>
<path d="M184.51 29.3705C184.698 23.9779 187.996 18.5852 194.683 18.5852C197.981 18.5852 200.429 19.8872 202.031 21.9325C203.537 23.8854 204.291 26.6742 204.291 29.3705H184.51ZM194.684 13.3804C188.279 13.3804 183.287 16.6343 180.648 21.0042C178.575 24.445 177.822 28.3498 177.822 32.7198C177.822 37.9256 179.33 42.7607 182.437 46.2939C185.264 49.6412 189.501 51.779 194.777 51.779C198.263 51.779 201.561 50.7563 204.197 48.9902C207.21 46.9449 209.378 43.5975 209.942 39.971H203.82C203.348 41.9239 202.688 42.9466 201.652 43.9693C200.146 45.5495 197.696 46.3863 194.777 46.3863C191.951 46.3863 189.691 45.4571 187.996 43.7824C185.734 41.5522 184.414 37.9256 184.414 34.5783H210.695L210.789 30.8593C210.884 25.9318 209.094 21.1901 206.08 17.9362C203.256 15.1475 199.488 13.3804 194.684 13.3804Z" fill="#231F20"/>
<path d="M72.9956 29.3715C73.1825 23.9789 76.4804 18.5862 83.1696 18.5862C86.4655 18.5862 88.9152 19.8881 90.5159 21.9335C92.0222 23.8854 92.7758 26.6752 92.7758 29.3715H72.9956ZM83.1696 13.3794C76.7647 13.3794 71.7727 16.6333 69.135 21.0033C67.063 24.444 66.3084 28.3488 66.3084 32.7188C66.3084 37.9246 67.8157 42.7597 70.9246 46.2929C73.7493 49.6402 77.9887 51.778 83.2631 51.778C86.7488 51.778 90.0457 50.7553 92.6824 48.9892C95.6969 46.9439 97.8643 43.5966 98.428 39.97H92.3056C91.8343 41.9229 91.1761 42.9456 90.1401 43.9683C88.6319 45.5485 86.1841 46.3853 83.2631 46.3853C80.4384 46.3853 78.1765 45.4561 76.4804 43.7834C74.2205 41.5512 72.9012 37.9256 72.9012 34.5783H99.1817L99.2771 30.8603C99.3716 25.9328 97.581 21.1901 94.5674 17.9362C91.7418 15.1465 87.9737 13.3794 83.1696 13.3794Z" fill="#231F20"/>
<path d="M18.8939 14.4795H12.5954V51.0481H18.8939V14.4795Z" fill="#231F20"/>
<path d="M6.29768 0.216797H0V51.0488H6.29768V0.216797Z" fill="#231F20"/>
<path d="M234.211 14.6653L221.158 19.2241L220.032 14.4795H215.243V51.0491H221.441V25.0878L235.618 19.1317L234.211 14.6653Z" fill="#231F20"/>
<path d="M147.465 29.3715C147.653 23.9789 150.95 18.5862 157.638 18.5862C160.934 18.5862 163.384 19.8881 164.985 21.9335C166.493 23.8854 167.246 26.6752 167.246 29.3715H147.465ZM157.64 13.3794C151.234 13.3794 146.243 16.6333 143.605 21.0033C141.534 24.444 140.779 28.3488 140.779 32.7188C140.779 37.9246 142.286 42.7597 145.393 46.2929C148.22 49.6402 152.459 51.778 157.734 51.778C161.219 51.778 164.517 50.7553 167.153 48.9892C170.166 46.9439 172.334 43.5966 172.899 39.97H166.776C166.305 41.9229 165.647 42.9456 164.611 43.9683C163.102 45.5485 160.653 46.3853 157.734 46.3853C154.909 46.3853 152.647 45.4561 150.951 43.7834C148.69 41.5512 147.372 37.9256 147.372 34.5783H173.651L173.748 30.8603C173.84 25.9328 172.051 21.1901 169.036 17.9362C166.212 15.1465 162.444 13.3794 157.64 13.3794Z" fill="#231F20"/>
<path d="M32.5653 13.6187H24.9031V21.2769H32.5653V13.6187Z" fill="#A6A8AB"/>
<path d="M63.2133 13.6187H55.5521V21.2769H63.2133V13.6187Z" fill="#A6A8AB"/>
<path d="M47.8888 13.6187H40.2277V21.2769H47.8888V13.6187Z" fill="#A6A8AB"/>
<path d="M55.5521 28.9365H47.8889V36.5948H55.5521V28.9365Z" fill="#A6A8AB"/>
<path d="M40.2277 28.9365H32.5654V36.5948H40.2277V28.9365Z" fill="#A6A8AB"/>
<path d="M47.8888 44.2534H40.2277V51.9117H47.8888V44.2534Z" fill="#A6A8AB"/>
</svg>
