<svg width="362" height="55" viewBox="0 0 362 55" fill="none" xmlns="http://www.w3.org/2000/svg">
  <g clip-path="url(#clip0_1315_12147)">
    <path
      d="M19.6602 36.35C13.3858 38.7694 6.76561 40.1704 0.0498047 40.5L0.0498047 14.5C1.04881 14.69 1.97788 14.88 2.92693 15.1L19.2606 24.26C19.0986 28.2944 19.2321 32.3352 19.6602 36.35Z"
      fill="#6F0DAB" />
    <path
      d="M25.0249 27.5001V33.9901C23.896 34.5501 22.7472 35.0801 21.5884 35.5701C21.2506 32.1813 21.1271 28.7745 21.2187 25.3701L25.0249 27.5001Z"
      fill="#6F0DAB" />
    <path
      d="M19.9002 38.3999C20.6211 43.9708 21.8996 49.455 23.7164 54.7699L1.64844 42.3999C7.89388 41.9592 14.0421 40.6117 19.9002 38.3999Z"
      fill="#6F0DAB" />
    <path
      d="M25.0252 36.2202V52.3502C23.5032 47.5603 22.4297 42.6391 21.8184 37.6502C22.8973 37.2002 23.9662 36.7302 25.0252 36.2202Z"
      fill="#6F0DAB" />
    <path
      d="M33.7067 28.75C30.9635 30.7352 28.0597 32.488 25.0254 33.99V27.5L28.6717 25.5C30.39 26.5067 32.0683 27.59 33.7067 28.75Z"
      fill="#9E00FF" />
    <path
      d="M49.0913 42.0102L25.9145 55.0102C25.5948 54.1302 25.3051 53.2502 25.0254 52.3602V36.2202C28.6796 34.4749 32.1615 32.389 35.425 29.9902C38.0306 31.9285 40.5254 34.0118 42.8975 36.2302L49.0913 42.0102Z"
      fill="#9E00FF" />
    <path
      d="M35.405 27.4999C33.8665 26.3799 32.2881 25.3299 30.6797 24.3299L47.8825 14.6899L47.7926 14.8099C44.2768 19.5992 40.1069 23.8709 35.405 27.4999Z"
      fill="#9E00FF" />
    <path
      d="M50.0001 15.2002V40.1302L44.2658 34.7602C41.9806 32.6329 39.5828 30.6301 37.083 28.7602C41.7502 25.085 45.8973 20.7924 49.4107 16.0002L50.0001 15.2002Z"
      fill="#9E00FF" />
    <path
      d="M2.92676 15.1099C8.61891 16.3728 14.166 18.2192 19.4802 20.6199C19.3703 21.8299 19.3004 23.0499 19.2604 24.2699L2.92676 15.1099Z"
      fill="#CE7FFF" />
    <path
      d="M23.7161 0.22998C21.69 6.1496 20.3329 12.2778 19.6702 18.5C13.8081 15.92 7.68082 13.9918 1.39844 12.75L23.7161 0.22998Z"
      fill="#CE7FFF" />
    <path
      d="M21.4086 21.5C23.8963 22.7079 26.3205 24.043 28.6713 25.5L25.0249 27.5L21.2188 25.37C21.2487 24.09 21.3087 22.81 21.4086 21.5Z"
      fill="#CE7FFF" />
    <path
      d="M49.1211 13.01L47.8823 14.69L30.6796 24.33C27.7513 22.5077 24.7191 20.8582 21.5986 19.39C22.2397 12.7743 23.689 6.26236 25.9143 0L49.1211 13.01Z"
      fill="#CE7FFF" />
    <path d="M0 40.5H0.05V41.5L0 40.5Z" fill="white" />
  </g>
  <path
    d="M216.189 23.252L223.757 21.21V26.8154C223.757 26.8154 228.281 26.8154 237.33 26.8154C238.825 26.8154 239.866 26.068 240.453 24.5732C240.693 23.9593 240.813 23.3187 240.813 22.6514C240.813 21.0231 240.266 19.8353 239.172 19.0879C238.611 18.7409 237.997 18.5674 237.33 18.5674H216.189L218.231 11.8008H237.41C241.334 11.8008 244.377 13.2288 246.539 16.085C248.061 18.1136 248.821 20.4225 248.821 23.0117C248.821 26.1081 247.78 28.6572 245.698 30.6592C244.604 31.7002 243.323 32.4609 241.854 32.9414L249.742 43.6318H240.813L233.887 33.582H223.757V43.6318H216.189V23.252Z"
    fill="#1E2026" />
  <path
    d="M260.673 31.1396V36.8652H281.85L281.854 43.6318H253.105V11.8008H281.85L281.854 18.5674H260.673V24.373H280.412L277.412 31.1396H260.673Z"
    fill="#1E2026" />
  <path
    d="M298.229 39.3877L300.992 32.9014H309.881L303.675 19.6885L292.584 43.6318H284.616L299.711 13.042L307.318 11L322.974 43.6318H314.966L312.964 39.3877H298.229Z"
    fill="#1E2026" />
  <path
    d="M325.256 11.8008H332.823V36.8652H355.205L353.163 43.6318C353.163 43.6318 343.861 43.6318 325.256 43.6318C325.256 43.6318 325.256 33.0215 325.256 11.8008Z"
    fill="#1E2026" />
  <path
    d="M90.3066 11.8008H97.874C97.874 11.8008 97.874 22.4111 97.874 43.6318H90.3066L73.6504 22.6514V43.6318H66.083V11H73.6504L90.3066 31.9805V11.8008Z"
    fill="#9B00FB" />
  <path
    d="M109.686 27.7363C109.686 32.3008 111.354 35.2236 114.69 36.5049C116.265 37.1188 118.267 37.4258 120.696 37.4258C126.382 37.4258 129.812 35.4772 130.986 31.5801C131.307 30.4323 131.467 29.151 131.467 27.7363C131.467 22.5312 129.225 19.4215 124.74 18.4072C123.539 18.1403 122.191 18.0068 120.696 18.0068C115.545 18.0068 112.221 19.4749 110.727 22.4111C110.033 23.8258 109.686 25.6009 109.686 27.7363ZM139.475 27.7363C139.475 33.9824 137.059 38.5469 132.228 41.4297C128.998 43.3516 125.021 44.3125 120.296 44.3125C114.504 44.3125 109.912 42.7643 106.522 39.668C103.293 36.7051 101.678 32.7279 101.678 27.7363C101.678 21.8372 103.867 17.3929 108.244 14.4033C111.501 12.2145 115.518 11.1201 120.296 11.1201C126.595 11.1201 131.467 12.7617 134.91 16.0449C137.953 18.9544 139.475 22.8516 139.475 27.7363Z"
    fill="#9B00FB" />
  <path
    d="M143.198 23.292L150.766 21.25V36.8652H162.697C164.993 36.8652 166.728 35.5973 167.902 33.0615C168.676 31.4333 169.063 29.5915 169.063 27.5361C169.063 24.3864 168.276 21.9707 166.701 20.2891C165.607 19.1413 164.272 18.5674 162.697 18.5674H143.198L145.24 11.8008H163.618C167.942 11.8008 171.372 13.6159 173.908 17.2461C176.017 20.2891 177.071 23.8792 177.071 28.0166C177.071 32.4209 175.897 36.0778 173.548 38.9873C171.065 42.057 167.756 43.6051 163.618 43.6318H143.198V23.292Z"
    fill="#9B00FB" />
  <path
    d="M188.442 31.1396V36.8652H211.665L209.623 43.6318H180.875V11.8008H211.665L209.623 18.5674H188.442V24.373H208.182V31.1396H188.442Z"
    fill="#9B00FB" />
  <defs>
    <clipPath id="clip0_1315_12147">
      <rect width="50" height="55" fill="white" />
    </clipPath>
  </defs>
</svg>