<?xml version="1.0" encoding="UTF-8" standalone="no"?>
<!-- Created with Inkscape (http://www.inkscape.org/) -->

<svg
   xmlns:dc="http://purl.org/dc/elements/1.1/"
   xmlns:cc="http://creativecommons.org/ns#"
   xmlns:rdf="http://www.w3.org/1999/02/22-rdf-syntax-ns#"
   xmlns:svg="http://www.w3.org/2000/svg"
   xmlns="http://www.w3.org/2000/svg"
   xmlns:xlink="http://www.w3.org/1999/xlink"
   xmlns:sodipodi="http://sodipodi.sourceforge.net/DTD/sodipodi-0.dtd"
   xmlns:inkscape="http://www.inkscape.org/namespaces/inkscape"
   width="164.86151"
   height="189.88496"
   viewBox="0 0 43.619607 50.240398"
   version="1.1"
   id="svg2664"
   inkscape:version="0.92.5 (2060ec1f9f, 2020-04-08)"
   sodipodi:docname="unicorn.svg">
  <defs
     id="defs2658">
    <clipPath
       id="SVGID_16_">
      <use
         height="100%"
         width="100%"
         y="0"
         x="0"
         style="overflow:visible"
         xlink:href="#SVGID_15_"
         overflow="visible"
         id="use199" />
    </clipPath>
    <clipPath
       id="clipPath3328">
      <use
         height="100%"
         width="100%"
         y="0"
         x="0"
         style="overflow:visible"
         xlink:href="#SVGID_15_"
         overflow="visible"
         id="use3326" />
    </clipPath>
    <clipPath
       id="clipPath3332">
      <use
         height="100%"
         width="100%"
         y="0"
         x="0"
         style="overflow:visible"
         xlink:href="#SVGID_15_"
         overflow="visible"
         id="use3330" />
    </clipPath>
    <clipPath
       id="clipPath3336">
      <use
         height="100%"
         width="100%"
         y="0"
         x="0"
         style="overflow:visible"
         xlink:href="#SVGID_15_"
         overflow="visible"
         id="use3334" />
    </clipPath>
    <clipPath
       id="clipPath3340">
      <use
         height="100%"
         width="100%"
         y="0"
         x="0"
         style="overflow:visible"
         xlink:href="#SVGID_15_"
         overflow="visible"
         id="use3338" />
    </clipPath>
    <clipPath
       id="clipPath3344">
      <use
         height="100%"
         width="100%"
         y="0"
         x="0"
         style="overflow:visible"
         xlink:href="#SVGID_15_"
         overflow="visible"
         id="use3342" />
    </clipPath>
    <clipPath
       id="clipPath3348">
      <use
         height="100%"
         width="100%"
         y="0"
         x="0"
         style="overflow:visible"
         xlink:href="#SVGID_15_"
         overflow="visible"
         id="use3346" />
    </clipPath>
    <clipPath
       id="clipPath3352">
      <use
         height="100%"
         width="100%"
         y="0"
         x="0"
         style="overflow:visible"
         xlink:href="#SVGID_15_"
         overflow="visible"
         id="use3350" />
    </clipPath>
    <clipPath
       id="clipPath3356">
      <use
         height="100%"
         width="100%"
         y="0"
         x="0"
         style="overflow:visible"
         xlink:href="#SVGID_15_"
         overflow="visible"
         id="use3354" />
    </clipPath>
    <rect
       x="0"
       id="SVGID_15_"
       y="-599.44397"
       width="1097.538"
       height="1679.443" />
  </defs>
  <sodipodi:namedview
     id="base"
     pagecolor="#ffffff"
     bordercolor="#666666"
     borderopacity="1.0"
     inkscape:pageopacity="0.0"
     inkscape:pageshadow="2"
     inkscape:zoom="1.4"
     inkscape:cx="313.27219"
     inkscape:cy="89.746305"
     inkscape:document-units="mm"
     inkscape:current-layer="layer1"
     showgrid="false"
     units="px"
     fit-margin-top="0"
     fit-margin-left="0"
     fit-margin-right="0"
     fit-margin-bottom="0"
     inkscape:window-width="1783"
     inkscape:window-height="925"
     inkscape:window-x="485"
     inkscape:window-y="559"
     inkscape:window-maximized="0" />
  <metadata
     id="metadata2661">
    <rdf:RDF>
      <cc:Work
         rdf:about="">
        <dc:format>image/svg+xml</dc:format>
        <dc:type
           rdf:resource="http://purl.org/dc/dcmitype/StillImage" />
        <dc:title></dc:title>
      </cc:Work>
    </rdf:RDF>
  </metadata>
  <g
     inkscape:label="Layer 1"
     inkscape:groupmode="layer"
     id="layer1"
     transform="translate(0.09480277,-8.5947483)">
    <g
       transform="matrix(0.26458333,0,0,0.26458333,-103.12127,167.19763)"
       id="g220">
      <defs
         id="defs197">
        <rect
           x="0"
           id="rect3448"
           y="-599.44397"
           width="1097.538"
           height="1679.443" />
      </defs>
      <clipPath
         id="clipPath3362">
        <use
           height="100%"
           width="100%"
           y="0"
           x="0"
           style="overflow:visible"
           xlink:href="#SVGID_15_"
           overflow="visible"
           id="use3360" />
      </clipPath>
      <path
         style="fill:#231f20"
         inkscape:connector-curvature="0"
         clip-path="url(#SVGID_16_)"
         d="m 454.028,-556.257 c -2.057,-0.294 -2.154,-0.392 -1.176,-0.49 1.86,-0.293 6.17,0.098 9.205,0.784 7.051,1.664 13.416,5.973 20.174,13.514 l 1.763,2.057 2.547,-0.392 c 10.87,-1.763 22.034,-0.392 31.337,3.917 2.547,1.175 6.561,3.526 7.051,4.113 0.196,0.196 0.49,1.469 0.686,2.742 0.686,4.603 0.392,8.03 -1.077,10.674 -0.783,1.469 -0.783,1.861 -0.294,3.134 0.393,0.979 1.566,1.665 2.645,1.665 2.35,0 4.799,-3.721 5.973,-8.912 l 0.49,-2.056 0.881,0.979 c 4.996,5.582 8.912,13.318 9.5,18.802 l 0.195,1.469 -0.881,-1.273 c -1.469,-2.252 -2.84,-3.721 -4.701,-4.994 -3.328,-2.253 -6.854,-2.938 -16.158,-3.427 -8.422,-0.49 -13.221,-1.176 -17.92,-2.743 -8.031,-2.644 -12.144,-6.071 -21.644,-18.704 -4.211,-5.582 -6.854,-8.618 -9.499,-11.164 -5.779,-5.583 -11.556,-8.52 -19.097,-9.695"
         id="path202" />
      <path
         style="fill:#231f20"
         inkscape:connector-curvature="0"
         clip-path="url(#SVGID_16_)"
         d="m 526.985,-543.82 c 0.195,-3.721 0.686,-6.169 1.764,-8.422 0.391,-0.881 0.782,-1.665 0.881,-1.665 0.098,0 -0.099,0.686 -0.393,1.469 -0.783,2.155 -0.881,5.191 -0.391,8.618 0.685,4.407 0.979,4.994 5.68,9.793 2.154,2.252 4.7,5.092 5.68,6.267 l 1.664,2.155 -1.664,-1.567 c -2.057,-1.959 -6.758,-5.68 -7.834,-6.169 -0.686,-0.392 -0.783,-0.392 -1.273,0.097 -0.393,0.392 -0.49,0.98 -0.49,3.82 -0.098,4.406 -0.686,7.148 -2.154,9.988 -0.783,1.469 -0.881,1.176 -0.195,-0.489 0.49,-1.273 0.588,-1.861 0.588,-6.072 0,-8.52 -0.98,-10.576 -6.953,-14.004 -1.469,-0.881 -4.016,-2.154 -5.484,-2.84 -1.566,-0.685 -2.742,-1.273 -2.645,-1.273 0.197,-0.196 5.974,1.469 8.227,2.449 3.428,1.371 4.016,1.468 4.406,1.371 0.292,-0.294 0.488,-1.078 0.586,-3.526"
         id="path204" />
      <path
         style="fill:#231f20"
         inkscape:connector-curvature="0"
         clip-path="url(#SVGID_16_)"
         d="m 458.043,-529.229 c -4.113,-5.68 -6.758,-14.494 -6.171,-21.055 l 0.196,-2.056 0.98,0.196 c 1.762,0.293 4.797,1.469 6.267,2.35 3.917,2.35 5.68,5.582 7.345,13.612 0.489,2.35 1.176,5.092 1.469,5.974 0.489,1.469 2.351,4.896 3.918,7.051 1.076,1.567 0.392,2.35 -2.058,2.154 -3.721,-0.392 -8.714,-3.819 -11.946,-8.226"
         id="path206" />
      <path
         style="fill:#231f20"
         inkscape:connector-curvature="0"
         clip-path="url(#SVGID_16_)"
         d="m 521.991,-486.63 c -19.391,-7.834 -26.245,-14.591 -26.245,-26.049 0,-1.665 0.099,-3.036 0.099,-3.036 0.098,0 0.782,0.588 1.664,1.273 3.918,3.134 8.324,4.505 20.565,6.268 7.149,1.077 11.262,1.86 14.983,3.133 11.849,3.918 19.193,11.948 20.957,22.818 0.489,3.134 0.195,9.107 -0.588,12.241 -0.686,2.448 -2.645,6.953 -3.134,7.051 -0.099,0 -0.294,-0.49 -0.294,-1.273 -0.195,-4.113 -2.253,-8.03 -5.68,-11.066 -4.112,-3.525 -9.401,-6.169 -22.327,-11.36"
         id="path208" />
      <path
         style="fill:#231f20"
         inkscape:connector-curvature="0"
         clip-path="url(#SVGID_16_)"
         d="m 508.28,-483.398 c -0.195,-1.469 -0.684,-3.33 -0.979,-4.113 l -0.49,-1.469 0.881,1.077 c 1.274,1.469 2.254,3.232 3.135,5.68 0.686,1.861 0.686,2.448 0.686,5.484 0,2.938 -0.098,3.624 -0.686,5.289 -0.979,2.643 -2.154,4.504 -4.113,6.561 -3.525,3.623 -8.128,5.582 -14.689,6.463 -1.174,0.098 -4.504,0.392 -7.442,0.588 -7.345,0.391 -12.241,1.175 -16.647,2.742 -0.588,0.196 -1.176,0.391 -1.273,0.293 -0.196,-0.195 2.84,-1.958 5.287,-3.133 3.429,-1.665 6.953,-2.546 14.691,-3.917 3.818,-0.588 7.735,-1.372 8.715,-1.763 9.692,-3.036 14.492,-10.577 12.924,-19.782"
         id="path210" />
      <path
         style="fill:#231f20"
         inkscape:connector-curvature="0"
         clip-path="url(#SVGID_16_)"
         d="m 517.192,-467.631 c -2.546,-5.582 -3.134,-10.87 -1.763,-15.865 0.196,-0.489 0.392,-0.979 0.588,-0.979 0.196,0 0.782,0.294 1.371,0.687 1.175,0.783 3.622,2.154 9.891,5.582 7.933,4.308 12.437,7.638 15.571,11.457 2.742,3.33 4.406,7.148 5.189,11.85 0.489,2.644 0.196,9.009 -0.49,11.654 -2.153,8.323 -7.051,14.983 -14.199,18.802 -1.077,0.587 -1.958,0.979 -2.057,0.979 -0.098,0 0.295,-0.979 0.881,-2.154 2.351,-4.995 2.645,-9.793 0.883,-15.179 -1.078,-3.33 -3.33,-7.345 -7.835,-14.102 -5.386,-7.836 -6.659,-9.892 -8.03,-12.732"
         id="path212" />
      <path
         style="fill:#231f20"
         inkscape:connector-curvature="0"
         clip-path="url(#SVGID_16_)"
         d="m 444.235,-437.665 c 7.246,-6.072 16.158,-10.38 24.384,-11.751 3.526,-0.588 9.401,-0.392 12.634,0.489 5.19,1.371 9.891,4.309 12.338,7.933 2.352,3.525 3.428,6.561 4.506,13.318 0.392,2.644 0.881,5.386 0.979,5.974 0.784,3.525 2.352,6.267 4.309,7.736 3.037,2.252 8.324,2.35 13.514,0.392 0.883,-0.294 1.666,-0.588 1.666,-0.49 0.195,0.196 -2.448,1.959 -4.211,2.84 -2.448,1.273 -4.406,1.665 -7.051,1.665 -4.701,0 -8.715,-2.449 -11.947,-7.345 -0.686,-0.979 -2.057,-3.819 -3.232,-6.463 -3.427,-7.933 -5.189,-10.283 -9.205,-12.927 -3.525,-2.252 -8.029,-2.742 -11.458,-1.077 -4.504,2.154 -5.68,7.932 -2.546,11.458 1.273,1.469 3.624,2.644 5.582,2.937 3.624,0.49 6.758,-2.35 6.758,-5.973 0,-2.351 -0.882,-3.722 -3.232,-4.799 -3.133,-1.371 -6.562,0.196 -6.463,3.232 0,1.273 0.588,2.056 1.86,2.644 0.783,0.392 0.783,0.392 0.196,0.294 -2.84,-0.588 -3.525,-4.113 -1.273,-6.366 2.742,-2.742 8.521,-1.566 10.479,2.253 0.783,1.567 0.882,4.7 0.195,6.659 -1.664,4.309 -6.364,6.562 -11.164,5.288 -3.231,-0.881 -4.603,-1.763 -8.52,-5.778 -6.855,-7.05 -9.499,-8.422 -19.292,-9.891 l -1.86,-0.293 z"
         id="path214" />
      <path
         style="fill:#231f20"
         inkscape:connector-curvature="0"
         clip-path="url(#SVGID_16_)"
         d="m 422.788,-455.978 c 1.078,-1.86 0.49,-4.211 -1.273,-5.386 -1.664,-1.077 -4.211,-0.587 -4.211,0.882 0,0.391 0.197,0.783 0.785,0.979 0.881,0.489 0.979,0.979 0.293,2.057 -0.686,1.077 -0.686,2.056 0.195,2.742 1.371,1.077 3.232,0.489 4.211,-1.274 m -30.064,-139.255 c 22.817,27.714 57.974,70.803 59.737,73.153 1.469,1.959 0.881,3.819 -1.567,5.19 -1.371,0.784 -4.211,1.567 -5.582,1.567 -1.567,0 -3.429,-0.783 -4.701,-2.056 -0.881,-0.882 -4.7,-6.464 -13.317,-19.88 -6.562,-10.282 -12.144,-18.802 -12.242,-18.9 -0.392,-0.196 -0.392,-0.196 11.557,21.153 7.54,13.416 9.988,18.214 9.988,18.802 0,1.273 -0.391,1.959 -1.959,3.721 -2.643,2.938 -3.819,6.269 -4.7,13.221 -0.979,7.736 -3.623,13.22 -11.164,22.524 -4.407,5.484 -5.093,6.463 -6.169,8.715 -1.371,2.742 -1.764,4.309 -1.959,7.834 -0.196,3.722 0.195,6.072 1.273,9.597 0.979,3.134 2.057,5.19 4.701,9.206 2.252,3.525 3.622,6.169 3.622,7.149 0,0.783 0.196,0.783 3.722,0 8.422,-1.959 15.375,-5.288 19.194,-9.402 2.351,-2.546 2.937,-3.917 2.937,-7.442 0,-2.252 -0.096,-2.742 -0.685,-4.113 -0.979,-2.155 -2.84,-3.917 -6.854,-6.659 -5.288,-3.624 -7.541,-6.562 -8.129,-10.479 -0.489,-3.329 0.099,-5.582 3.037,-11.751 3.035,-6.366 3.818,-9.01 4.308,-15.473 0.294,-4.113 0.784,-5.778 1.959,-7.051 1.272,-1.371 2.351,-1.861 5.386,-2.252 4.995,-0.686 8.227,-1.959 10.771,-4.407 2.254,-2.057 3.232,-4.113 3.33,-7.149 l 0.099,-2.252 -1.272,-1.371 c -4.604,-5.289 -68.355,-75.406 -68.649,-75.406 -0.101,0 1.467,1.861 3.328,4.211"
         id="path216" />
      <path
         style="fill:#231f20"
         inkscape:connector-curvature="0"
         clip-path="url(#SVGID_16_)"
         d="m 468.717,-502.592 c 0.783,-1.176 0.489,-2.449 -0.979,-3.33 -2.644,-1.665 -6.659,-0.294 -6.659,2.252 0,1.273 2.057,2.644 4.016,2.644 1.272,0.001 3.034,-0.783 3.622,-1.566 m -6.267,-4.897 c -2.35,0.686 -4.604,3.232 -5.288,5.778 -0.392,1.567 -0.196,4.407 0.489,5.288 1.078,1.371 2.057,1.763 4.799,1.763 5.386,0 9.988,-2.35 10.479,-5.19 0.489,-2.351 -1.566,-5.582 -4.406,-7.051 -1.47,-0.784 -4.507,-1.078 -6.073,-0.588"
         id="path218" />
    </g>
  </g>
</svg>
