<?xml version="1.0" encoding="UTF-8" standalone="no"?>
<svg
   id="Layer_1"
   data-name="Layer 1"
   viewBox="0 0 2394.3601 1405.96"
   version="1.1"
   sodipodi:docname="uniswap.svg"
   inkscape:version="1.1.1 (3bf5ae0d25, 2021-09-20)"
   width="2394.3601"
   height="1405.96"
   xmlns:inkscape="http://www.inkscape.org/namespaces/inkscape"
   xmlns:sodipodi="http://sodipodi.sourceforge.net/DTD/sodipodi-0.dtd"
   xmlns="http://www.w3.org/2000/svg"
   xmlns:svg="http://www.w3.org/2000/svg">
  <sodipodi:namedview
     id="namedview49"
     pagecolor="#ffffff"
     bordercolor="#666666"
     borderopacity="1.0"
     inkscape:pageshadow="2"
     inkscape:pageopacity="0.0"
     inkscape:pagecheckerboard="0"
     showgrid="false"
     inkscape:zoom="0.057181818"
     inkscape:cx="2098.5692"
     inkscape:cy="4765.5008"
     inkscape:window-width="1471"
     inkscape:window-height="1031"
     inkscape:window-x="558"
     inkscape:window-y="110"
     inkscape:window-maximized="0"
     inkscape:current-layer="Layer_1"
     fit-margin-top="0"
     fit-margin-left="0"
     fit-margin-right="0"
     fit-margin-bottom="0" />
  <defs
     id="defs4">
    <style
       id="style2">.cls-1{fill:#ff007a;}</style>
  </defs>
  <path
     d="m 1497.11,254.13 h 29.18 v 126.76 q 0,20.24 -9.51,35.81 a 66,66 0 0 1 -26.75,24.47 q -17.23,8.9 -40.38,8.89 -23.15,-0.01 -40.27,-8.89 a 66,66 0 0 1 -26.73,-24.47 q -9.51,-15.57 -9.5,-35.81 V 254.13 h 29.08 v 124.41 a 46.15,46.15 0 0 0 5.78,23.25 41.08,41.08 0 0 0 16.42,16 q 10.63,5.78 25.22,5.78 14.59,0 25.37,-5.78 a 40.38,40.38 0 0 0 16.37,-16 46.73,46.73 0 0 0 5.69,-23.25 z"
     id="path6" />
  <path
     d="m 1587.89,361.01 v 85.82 h -28.14 V 302.32 h 27 v 23.52 h 1.78 a 41.26,41.26 0 0 1 15.67,-18.44 q 10.68,-7 27,-7 14.77,0 25.88,6.17 a 41.8,41.8 0 0 1 17.22,18.3 q 6.12,12.14 6.12,30 v 91.94 h -28.14 v -88.5 q 0,-15.72 -8.18,-24.61 -8.18,-8.89 -22.49,-8.89 a 35,35 0 0 0 -17.37,4.23 30.18,30.18 0 0 0 -12,12.38 q -4.36,8.13 -4.35,19.59 z"
     id="path8" />
  <path
     d="m 1725.61,280.01 a 17.6,17.6 0 0 1 -12.56,-4.94 16.07,16.07 0 0 1 0,-23.71 18.45,18.45 0 0 1 25.13,0 16.07,16.07 0 0 1 0,23.71 17.61,17.61 0 0 1 -12.57,4.94 z M 1711.4,446.86 V 302.32 h 28.14 v 144.54 z"
     id="path10" />
  <path
     d="m 1879.03,337.61 -25.5,4.51 a 30.83,30.83 0 0 0 -5,-9.31 25.6,25.6 0 0 0 -9.26,-7.25 q -5.85,-2.82 -14.59,-2.82 -12,0 -20,5.31 -8,5.31 -8,13.7 a 14.4,14.4 0 0 0 5.36,11.67 q 5.37,4.41 17.32,7.24 l 23,5.27 q 20,4.62 29.74,14.21 9.74,9.59 9.79,24.94 a 37.82,37.82 0 0 1 -7.49,23.1 q -7.47,10.13 -20.79,15.86 -13.32,5.73 -30.82,5.74 -24.29,0 -39.62,-10.4 -15.33,-10.4 -18.82,-29.6 l 27.19,-4.14 q 2.55,10.64 10.45,16 7.9,5.36 20.61,5.41 13.83,0 22.11,-5.79 8.28,-5.79 8.28,-14.16 a 14.82,14.82 0 0 0 -5,-11.39 q -5,-4.61 -15.39,-7 l -24.46,-5.37 q -20.24,-4.6 -29.88,-14.68 -9.64,-10.08 -9.65,-25.5 a 36.52,36.52 0 0 1 7.15,-22.4 q 7.15,-9.58 19.77,-15 12.62,-5.42 28.89,-5.42 23.43,0 36.89,10.12 a 47.47,47.47 0 0 1 17.72,27.15 z"
     id="path12" />
  <path
     d="m 1937.46,446.86 -42.53,-144.54 h 29.1 l 28.33,106.15 h 1.41 l 28.42,-106.15 h 29.08 l 28.2,105.69 h 1.41 l 28.15,-105.69 h 29.08 l -42.44,144.54 h -28.71 L 1997.6,342.5 h -2.16 l -29.41,104.36 z"
     id="path14" />
  <path
     d="m 2160.17,450.06 a 58.6,58.6 0 0 1 -24.85,-5.13 41.27,41.27 0 0 1 -17.55,-14.92 q -6.43,-9.79 -6.44,-24 0,-12.22 4.7,-20.14 a 34.66,34.66 0 0 1 12.71,-12.51 66.15,66.15 0 0 1 17.88,-7 176.06,176.06 0 0 1 20.13,-3.57 q 13,-1.52 21.08,-2.5 8.08,-0.98 11.77,-3.24 c 2.44,-1.51 3.67,-4 3.67,-7.34 v -0.66 q 0,-12.33 -6.92,-19.11 -6.92,-6.78 -20.56,-6.77 -14.21,0 -22.35,6.26 -8.14,6.26 -11.25,13.88 l -26.44,-6 q 4.71,-13.17 13.79,-21.31 a 56.11,56.11 0 0 1 20.93,-11.86 82.86,82.86 0 0 1 24.94,-3.72 90.57,90.57 0 0 1 18.4,2 55,55 0 0 1 18.26,7.39 40.84,40.84 0 0 1 14,15.29 q 5.46,9.93 5.46,25.73 v 96 h -27.5 V 427.1 h -1.13 a 40.13,40.13 0 0 1 -8.19,10.73 43.41,43.41 0 0 1 -14,8.75 q -8.59,3.48 -20.54,3.48 z m 6.11,-22.58 q 11.67,0 20,-4.62 a 32.6,32.6 0 0 0 12.75,-12.09 31.3,31.3 0 0 0 4.37,-16 V 376.1 q -1.5,1.5 -5.79,2.77 a 79.67,79.67 0 0 1 -9.74,2.17 q -5.45,0.88 -10.63,1.6 l -8.66,1.17 a 68.78,68.78 0 0 0 -14.91,3.48 25.62,25.62 0 0 0 -10.73,7 q -4,4.58 -4,12.1 0,10.44 7.72,15.76 7.72,5.32 19.62,5.33 z"
     id="path16" />
  <path
     d="M 2262.33,501.07 V 302.32 h 27.48 v 23.43 h 2.35 a 78.58,78.58 0 0 1 7.06,-10.45 40.48,40.48 0 0 1 12.79,-10.4 q 8.19,-4.45 21.65,-4.47 a 56.42,56.42 0 0 1 31.24,8.85 q 13.74,8.85 21.6,25.5 7.86,16.65 7.86,40.09 0,23.43 -7.81,40.14 -7.81,16.71 -21.46,25.69 a 55.36,55.36 0 0 1 -31.15,9 q -13.17,0 -21.5,-4.42 a 40.79,40.79 0 0 1 -13,-10.35 78.62,78.62 0 0 1 -7.24,-10.54 h -1.7 v 76.7 z m 27.57,-126.48 q 0,15.24 4.42,26.72 4.42,11.48 12.8,17.93 8.37,6.45 20.52,6.45 12.6,0 21.08,-6.73 a 41.58,41.58 0 0 0 12.84,-18.3 73.25,73.25 0 0 0 4.38,-26.07 72.43,72.43 0 0 0 -4.29,-25.69 39.87,39.87 0 0 0 -12.79,-18 q -8.52,-6.59 -21.22,-6.58 -12.24,0 -20.66,6.3 -8.42,6.3 -12.75,17.6 -4.34,11.32 -4.33,26.37 z"
     id="path18" />
  <path
     d="m 1503.61,565.01 a 60.4,60.4 0 0 0 -7.3,-15.39 48.75,48.75 0 0 0 -10.87,-11.61 45.73,45.73 0 0 0 -14.35,-7.39 58.11,58.11 0 0 0 -17.64,-2.54 53.3,53.3 0 0 0 -29.36,8.37 q -13.08,8.39 -20.66,24.52 -7.58,16.13 -7.57,39.47 0,23.45 7.62,39.62 7.62,16.17 20.89,24.56 a 55.36,55.36 0 0 0 30.21,8.38 q 15.71,0 27.43,-6.4 a 44.88,44.88 0 0 0 18.16,-18.12 q 6.45,-11.71 6.45,-27.62 l 7.53,1.42 h -55.12 v -24 h 75.76 v 21.93 q 0,24.27 -10.31,42.11 a 70.74,70.74 0 0 1 -28.45,27.48 q -18.12,9.71 -41.45,9.7 -26.16,0 -45.88,-12 -19.72,-12 -30.67,-34.26 -11,-22.15 -11,-52.65 0,-23.05 6.4,-41.4 a 89.82,89.82 0 0 1 18,-31.2 78.66,78.66 0 0 1 27.38,-19.67 85.9,85.9 0 0 1 34.49,-6.82 89.74,89.74 0 0 1 29.13,4.61 79.24,79.24 0 0 1 24.09,13.08 75.13,75.13 0 0 1 17.51,20.09 74.32,74.32 0 0 1 9.41,25.74 z"
     id="path20" />
  <path
     d="M 1562.76,696.86 V 552.32 h 27.2 v 23 h 1.5 a 35.16,35.16 0 0 1 14,-18.4 39.85,39.85 0 0 1 22.72,-6.73 c 1.76,0 3.85,0.07 6.26,0.19 2.41,0.12 4.31,0.28 5.69,0.47 v 26.91 a 55.56,55.56 0 0 0 -6,-1.08 61.4,61.4 0 0 0 -8.66,-0.61 36.74,36.74 0 0 0 -17.73,4.19 31.42,31.42 0 0 0 -16.8,28.37 v 88.27 z"
     id="path22" />
  <path
     d="m 1698.71,700.06 a 58.6,58.6 0 0 1 -24.85,-5.13 41.27,41.27 0 0 1 -17.55,-14.92 q -6.43,-9.79 -6.44,-24 0,-12.22 4.7,-20.14 a 34.66,34.66 0 0 1 12.71,-12.51 66.15,66.15 0 0 1 17.88,-7 175.84,175.84 0 0 1 20.14,-3.57 q 13,-1.52 21.07,-2.5 8.07,-0.98 11.77,-3.24 c 2.44,-1.51 3.67,-4 3.67,-7.34 v -0.66 q 0,-12.33 -6.92,-19.11 -6.92,-6.78 -20.56,-6.77 -14.21,0 -22.35,6.26 -8.14,6.26 -11.25,13.88 l -26.44,-6 Q 1659,574.14 1668.08,566 a 56.11,56.11 0 0 1 20.95,-11.85 82.86,82.86 0 0 1 24.94,-3.72 90.57,90.57 0 0 1 18.4,2 55,55 0 0 1 18.26,7.39 40.84,40.84 0 0 1 14,15.29 q 5.46,9.93 5.46,25.73 v 96 h -27.48 V 677.1 h -1.13 a 40.13,40.13 0 0 1 -8.19,10.73 43.41,43.41 0 0 1 -14,8.75 q -8.63,3.48 -20.58,3.48 z m 6.11,-22.58 q 11.67,0 20,-4.62 a 32.6,32.6 0 0 0 12.71,-12.09 31.3,31.3 0 0 0 4.37,-16 V 626.1 q -1.5,1.5 -5.79,2.77 a 79.67,79.67 0 0 1 -9.74,2.17 q -5.44,0.88 -10.63,1.6 l -8.66,1.17 a 68.92,68.92 0 0 0 -14.91,3.48 25.62,25.62 0 0 0 -10.73,7 q -4,4.58 -4,12.1 0,10.44 7.72,15.76 7.72,5.32 19.66,5.33 z"
     id="path24" />
  <path
     d="m 1829.03,611.01 v 85.82 h -28.14 V 552.32 h 27 v 23.52 h 1.78 a 41.26,41.26 0 0 1 15.67,-18.44 q 10.68,-7 27,-7 14.77,0 25.88,6.17 a 41.86,41.86 0 0 1 17.22,18.3 q 6.12,12.14 6.12,30 v 91.94 h -28.14 v -88.5 q 0,-15.72 -8.18,-24.61 -8.18,-8.89 -22.49,-8.89 a 35,35 0 0 0 -17.42,4.2 30.18,30.18 0 0 0 -12,12.38 q -4.3,8.16 -4.3,19.62 z"
     id="path26" />
  <path
     d="m 2020.03,552.32 v 22.58 h -79 v -22.58 z m -57.78,-34.63 h 28.13 v 136.73 q 0,8.19 2.45,12.28 a 12.43,12.43 0 0 0 6.35,5.55 24,24 0 0 0 8.52,1.46 32.39,32.39 0 0 0 5.93,-0.47 c 1.69,-0.31 3,-0.56 3.95,-0.75 l 5.08,23.24 a 50.25,50.25 0 0 1 -7,1.93 57.55,57.55 0 0 1 -11.29,1.08 49.49,49.49 0 0 1 -20.71,-4 35.42,35.42 0 0 1 -15.52,-12.8 q -5.94,-8.65 -5.93,-21.73 z"
     id="path28" />
  <path
     d="m 2150.29,587.61 -25.5,4.51 a 30.79,30.79 0 0 0 -5,-9.31 25.55,25.55 0 0 0 -9.27,-7.25 q -5.84,-2.82 -14.59,-2.82 -12,0 -19.95,5.31 -7.95,5.31 -8,13.7 a 14.38,14.38 0 0 0 5.37,11.67 q 5.36,4.41 17.31,7.24 l 23,5.27 q 20,4.62 29.74,14.21 9.74,9.59 9.79,24.94 a 37.87,37.87 0 0 1 -7.48,23.1 q -7.49,10.13 -20.8,15.86 -13.31,5.73 -30.88,5.74 -24.28,0 -39.62,-10.4 -15.34,-10.4 -18.82,-29.6 l 27.2,-4.14 q 2.53,10.64 10.44,16 7.91,5.36 20.61,5.41 13.83,0 22.12,-5.79 8.29,-5.79 8.28,-14.16 a 14.83,14.83 0 0 0 -5,-11.39 q -5,-4.61 -15.38,-7 l -24.47,-5.37 q -20.23,-4.6 -29.88,-14.68 -9.65,-10.08 -9.65,-25.5 a 36.47,36.47 0 0 1 7.16,-22.4 q 7.14,-9.58 19.76,-15 12.62,-5.42 28.89,-5.42 23.43,0 36.89,10.12 a 47.47,47.47 0 0 1 17.73,27.15 z"
     id="path30" />
  <path
     d="M 1373.18,946.86 V 754.13 h 68.69 q 22.5,0 37.27,8.19 a 53.26,53.26 0 0 1 22.11,22.35 68.11,68.11 0 0 1 7.34,31.86 q 0,17.78 -7.38,31.94 a 53.79,53.79 0 0 1 -22.21,22.4 q -14.82,8.23 -37.22,8.24 h -47.24 v -24.66 h 44.6 q 14.22,0 23.06,-4.94 a 30.42,30.42 0 0 0 13,-13.5 44.23,44.23 0 0 0 4.14,-19.48 43.62,43.62 0 0 0 -4.14,-19.39 29.74,29.74 0 0 0 -13,-13.27 q -8.89,-4.8 -23.38,-4.8 h -36.51 v 167.79 z"
     id="path32" />
  <path
     d="M 1533.68,946.86 V 802.32 h 27.2 v 23 h 1.5 a 35.11,35.11 0 0 1 14,-18.4 39.85,39.85 0 0 1 22.72,-6.73 c 1.76,0 3.84,0.07 6.26,0.19 2.42,0.12 4.31,0.28 5.69,0.47 v 26.91 a 56.06,56.06 0 0 0 -6,-1.08 61.5,61.5 0 0 0 -8.66,-0.61 36.81,36.81 0 0 0 -17.74,4.19 31.94,31.94 0 0 0 -12.28,11.57 31.59,31.59 0 0 0 -4.51,16.8 v 88.27 z"
     id="path34" />
  <path
     d="m 1684.49,949.78 q -20.32,0 -35.47,-9.32 a 62.76,62.76 0 0 1 -23.53,-26.06 q -8.39,-16.76 -8.38,-39.15 0.01,-22.39 8.38,-39.34 a 62.61,62.61 0 0 1 23.54,-26.16 q 15.15,-9.32 35.47,-9.32 20.32,0 35.48,9.32 a 62.74,62.74 0 0 1 23.53,26.16 q 8.37,16.84 8.37,39.34 0,22.5 -8.37,39.15 a 62.9,62.9 0 0 1 -23.53,26.06 q -15.16,9.32 -35.49,9.32 z m 0.1,-23.62 q 13.17,0 21.83,-7 a 41.11,41.11 0 0 0 12.84,-18.53 79.57,79.57 0 0 0 0,-51 41.69,41.69 0 0 0 -12.84,-18.68 q -8.66,-7.07 -21.83,-7.06 -13.17,0.01 -22,7.06 a 41.55,41.55 0 0 0 -12.89,18.68 79.57,79.57 0 0 0 0,51 41,41 0 0 0 12.89,18.53 q 8.74,7 22,7 z"
     id="path36" />
  <path
     d="m 1837.19,1003.8 q -17.22,0 -29.6,-4.52 -12.38,-4.52 -20.19,-11.91 a 50.34,50.34 0 0 1 -11.66,-16 l 24.18,-10 a 62.88,62.88 0 0 0 6.82,8.57 35.36,35.36 0 0 0 11.67,7.9 q 7.39,3.3 19.06,3.3 16,0 26.44,-7.72 10.44,-7.72 10.45,-24.47 v -28.44 h -1.79 a 66,66 0 0 1 -7.29,10.26 40.37,40.37 0 0 1 -13,9.79 q -8.28,4.14 -21.55,4.14 a 59.63,59.63 0 0 1 -30.82,-8 q -13.68,-8 -21.64,-23.81 -7.96,-15.81 -8,-38.82 0,-23.05 7.85,-39.52 7.85,-16.47 21.6,-25.27 a 56.56,56.56 0 0 1 31.15,-8.8 q 13.45,0 21.74,4.47 a 40.84,40.84 0 0 1 12.94,10.4 86.81,86.81 0 0 1 7.2,10.45 h 2.07 v -23.48 h 27.57 v 147.74 q 0,18.45 -8.66,30.35 a 51.06,51.06 0 0 1 -23.38,17.65 q -14.72,5.73 -33.16,5.74 z m -0.29,-82.44 q 12.15,0 20.57,-5.69 a 35.26,35.26 0 0 0 12.79,-16.38 q 4.38,-10.68 4.38,-25.64 0,-14.6 -4.33,-25.69 a 38.46,38.46 0 0 0 -12.7,-17.36 q -8.38,-6.27 -20.71,-6.26 -12.7,0 -21.17,6.54 a 39.64,39.64 0 0 0 -12.75,17.74 69.48,69.48 0 0 0 -4.28,25 q 0,14.2 4.33,24.94 a 36.73,36.73 0 0 0 12.84,16.75 q 8.52,6.04 21.03,6.05 z"
     id="path38" />
  <path
     d="M 1933.51,946.86 V 802.32 h 27.2 v 23 h 1.5 a 35.16,35.16 0 0 1 14,-18.4 39.88,39.88 0 0 1 22.72,-6.73 c 1.76,0 3.85,0.07 6.26,0.19 2.41,0.12 4.32,0.28 5.7,0.47 v 26.91 a 56.38,56.38 0 0 0 -6,-1.08 61.36,61.36 0 0 0 -8.65,-0.61 36.75,36.75 0 0 0 -17.74,4.19 31.42,31.42 0 0 0 -16.8,28.37 v 88.27 z"
     id="path40" />
  <path
     d="m 2069.46,950.06 a 58.6,58.6 0 0 1 -24.85,-5.13 41.27,41.27 0 0 1 -17.58,-14.92 q -6.44,-9.79 -6.44,-24 0,-12.23 4.7,-20.14 a 34.66,34.66 0 0 1 12.71,-12.51 66.15,66.15 0 0 1 17.88,-7 175.84,175.84 0 0 1 20.14,-3.57 q 13,-1.52 21.08,-2.5 8.08,-0.98 11.76,-3.24 c 2.44,-1.51 3.67,-4 3.67,-7.34 v -0.66 q 0,-12.33 -6.92,-19.11 -6.92,-6.78 -20.56,-6.77 -14.21,0 -22.35,6.26 -8.14,6.26 -11.25,13.88 l -26.44,-6 q 4.71,-13.17 13.79,-21.31 a 56.07,56.07 0 0 1 20.94,-11.86 82.75,82.75 0 0 1 24.93,-3.72 90.57,90.57 0 0 1 18.4,2 55,55 0 0 1 18.26,7.39 40.84,40.84 0 0 1 14,15.29 q 5.46,9.93 5.46,25.73 v 96 h -27.48 v -19.76 h -1.13 a 40.13,40.13 0 0 1 -8.19,10.73 43.41,43.41 0 0 1 -14,8.75 q -8.58,3.51 -20.53,3.51 z m 6.11,-22.58 q 11.67,0 20,-4.62 a 32.6,32.6 0 0 0 12.71,-12.09 31.3,31.3 0 0 0 4.37,-16 v -18.63 q -1.5,1.5 -5.79,2.77 a 79.91,79.91 0 0 1 -9.73,2.17 q -5.46,0.88 -10.64,1.6 l -8.66,1.17 a 68.92,68.92 0 0 0 -14.91,3.48 25.62,25.62 0 0 0 -10.73,7 q -4,4.57 -4,12.1 0,10.44 7.72,15.76 7.72,5.32 19.66,5.29 z"
     id="path42" />
  <path
     d="M 2171.62,946.86 V 802.32 h 27 v 23.52 h 1.78 a 37.69,37.69 0 0 1 14.78,-18.68 q 10.26,-6.72 24.56,-6.73 14.49,0 24.33,6.78 a 39.93,39.93 0 0 1 14.54,18.63 h 1.5 a 41,41 0 0 1 16.47,-18.49 q 11.3,-6.92 26.91,-6.92 19.67,0 32.14,12.33 12.47,12.33 12.47,37.17 v 96.93 h -28.14 v -94.29 q 0,-14.68 -8,-21.27 a 29.1,29.1 0 0 0 -19.1,-6.59 q -13.74,0 -21.36,8.43 -7.62,8.43 -7.62,21.59 v 92.13 h -28.05 v -96.08 q 0,-11.76 -7.34,-18.91 -7.34,-7.15 -19.1,-7.16 a 27.38,27.38 0 0 0 -14.73,4.19 31,31 0 0 0 -10.82,11.62 35.13,35.13 0 0 0 -4.09,17.22 v 89.12 z"
     id="path44" />
  <path
     class="cls-1"
     d="m 1246.03,622.14 c -23.06,-8.73 -39.24,-32 -68.92,-32 a 66.86,66.86 0 0 0 -19.69,3.28 62.68,62.68 0 0 0 10.14,-33.37 c 0,-31.39 -25,-44.14 -42.19,-44.14 -17.19,0 -39.73,12.26 -43.65,38.26 6.76,-18 44.63,-20.11 44.63,9.32 0,24 -24.9,36.09 -46.48,36.09 -21.58,0 -66.33,-29.14 -66.33,-103.78 0,-41.16 15.71,-79.57 60.77,-103.17 a 26.2,26.2 0 1 0 51,8.31 26.2,26.2 0 1 0 0,-45.32 26.19,26.19 0 1 0 -50.25,10.28 c -49.18,-22.38 -53.27,-55.6 -53.27,-69.88 0,-17.27 6.36,-45.45 30.45,-69.54 17.47,-17.47 47.37,-29.69 64.36,-12.69 20.81,20.8 -7.42,46.13 -25,38.15 21.16,15.6 45.78,8.32 57.92,-3.82 12.14,-12.14 20.81,-38.84 -1.39,-61 a 62.78,62.78 0 0 0 -31.24,-16.53 66.79,66.79 0 0 0 16.5,-11.74 c 21,-21 16,-48.87 26.12,-71.34 -22.48,10.13 -50.36,5.13 -71.35,26.11 a 67.3,67.3 0 0 0 -11.74,16.51 62.68,62.68 0 0 0 -16.52,-31.25 c -22.2,-22.2 -48.91,-13.53 -61,-1.39 -12.09,12.14 -19.42,36.76 -3.81,57.92 -8,-17.54 17.34,-45.78 38.15,-25 17,17 -0.55,50.08 -16,65.17 -23.7,23.18 -47.64,28.1 -67,28.1 -37.44,0 -58.67,-26.94 -70.36,-52.87 a 26.2,26.2 0 1 0 10.62,-50.12 26.2,26.2 0 1 0 -45.32,0 26.18,26.18 0 1 0 7.51,51.32 c -15.5,29.37 -44.82,60.56 -103,60.56 -88.78,0 -106.92,-46.1 -106.92,-67.69 0,-21.59 15.18,-45.17 39.26,-45.17 29.43,0 27.36,37.87 9.32,44.63 26,-3.92 38.26,-26.48 38.26,-43.65 0,-17.17 -12.76,-42.18 -44.15,-42.18 a 62.77,62.77 0 0 0 -33.78,10.4 67.14,67.14 0 0 0 3.37,-20 c 0,-29.67 -23.26,-45.86 -32,-68.91 -8.73,23 -32,39.24 -32,68.91 a 67.14,67.14 0 0 0 3.37,20 62.77,62.77 0 0 0 -33.78,-10.4 c -31.39,0 -44.14,25 -44.14,42.18 0,17.18 12.26,39.73 38.26,43.65 -18.05,-6.75 -20.11,-44.63 9.32,-44.63 24,0 39.24,23.54 39.24,45.12 0,21.58 -18.15,67.69 -106.93,67.69 -58.19,0 -87.51,-31.19 -103,-60.56 a 26.19,26.19 0 1 0 7.47,-51.26 26.2,26.2 0 1 0 -45.32,0 26.19,26.19 0 1 0 10.62,50.12 c -11.68,25.93 -32.91,52.87 -70.36,52.87 -19.36,0 -43.29,-4.92 -67,-28.1 -15.43,-15.09 -33,-48.18 -16,-65.17 20.81,-20.81 46.13,7.43 38.15,25 15.61,-21.16 8.32,-45.78 -3.82,-57.92 -12.14,-12.14 -38.84,-20.81 -61,1.39 a 62.77,62.77 0 0 0 -16.53,31.25 67,67 0 0 0 -11.74,-16.51 c -21,-21 -48.87,-16 -71.34,-26.11 10.13,22.47 5.13,50.36 26.11,71.34 a 67,67 0 0 0 16.51,11.74 62.77,62.77 0 0 0 -31.25,16.53 c -22.2,22.2 -13.53,48.9 -1.39,61 12.14,12.1 36.77,19.42 57.92,3.82 -17.54,8 -45.78,-17.35 -25,-38.15 17,-17 46.89,-4.78 64.37,12.69 24.09,24.09 30.45,52.27 30.45,69.54 0,14.28 -4.09,47.5 -53.27,69.88 a 26.19,26.19 0 1 0 -50.25,-10.28 26.2,26.2 0 1 0 0,45.32 26.19,26.19 0 1 0 51,-8.31 c 45.06,23.6 60.77,62 60.77,103.17 0,74.64 -44.75,103.78 -66.33,103.78 -21.58,0 -46.49,-12.06 -46.49,-36.09 0,-29.43 37.88,-27.37 44.64,-9.32 -3.92,-26 -26.49,-38.26 -43.65,-38.26 -17.16,0 -42.19,12.75 -42.19,44.14 a 62.68,62.68 0 0 0 10.14,33.37 66.86,66.86 0 0 0 -19.69,-3.28 c -29.68,0 -45.86,23.25 -68.92,32 23.06,8.73 39.24,32 68.92,32 a 67.46,67.46 0 0 0 20.24,-3.45 62.74,62.74 0 0 0 -10.69,34.19 c 0,31.39 25,44.14 42.19,44.14 17.19,0 39.73,-12.26 43.65,-38.25 -6.76,18 -44.64,20.11 -44.64,-9.32 0,-24 23.55,-39.24 45.13,-39.24 21.58,0 67.69,26.06 67.69,106.92 0,45.76 -17.24,76.83 -60.64,95.36 a 26.19,26.19 0 1 0 -51.15,-7.89 26.21,26.21 0 1 0 0,45.32 26.2,26.2 0 1 0 48.88,-13.07 c -0.44,-0.76 -0.92,-1.49 -1.42,-2.19 24.75,9.27 56.87,26 77.52,54.49 39,53.91 16.17,98.72 -1.49,111.13 -17.66,12.41 -41.75,14.73 -55.57,-4.94 -16.93,-24.07 15.25,-44.17 31.15,-33.29 -18.16,-19 -43.67,-16.07 -57.71,-6.19 -14.04,9.88 -27.18,34.68 -9.13,60.37 a 62.78,62.78 0 0 0 27.94,21.65 66.8,66.8 0 0 0 -18.27,8.73 c -24.28,17.06 -24.15,45.39 -38,65.79 23.88,-6.11 50.49,3.6 74.77,-13.46 a 67.1,67.1 0 0 0 14.41,-14.25 62.79,62.79 0 0 0 10.9,33.63 c 18.06,25.68 45.86,21.73 59.9,11.85 14.04,-9.88 25.45,-32.88 13.71,-56.4 4.85,18.65 -24.95,42.12 -41.87,18 -13.83,-19.66 -4.37,-40.54 13.29,-53 17.66,-12.46 74.94,-26.35 107.08,15.61 20.43,26.66 21.25,69.32 17.36,100.54 a 26.19,26.19 0 1 0 -36.32,35.72 26.2,26.2 0 1 0 38.35,24.16 26.2,26.2 0 1 0 15,-48.32 h -0.44 c 27.22,-24.59 66.61,-47.61 119,-34.76 52.63,12.9 73.55,48.9 73.55,77.4 0,21.58 -15.2,45.12 -39.24,45.12 -29.43,0 -27.37,-37.87 -9.32,-44.63 -26,3.92 -38.26,26.48 -38.26,43.65 0,17.17 12.75,42.18 44.15,42.18 a 62.82,62.82 0 0 0 33.78,-10.4 66.82,66.82 0 0 0 -3.37,20 c 0,29.67 23.25,45.86 32,68.91 8.73,-23 32,-39.24 32,-68.91 a 66.82,66.82 0 0 0 -3.37,-20 62.79,62.79 0 0 0 33.78,10.4 c 31.39,0 44.15,-25 44.15,-42.18 0,-17.18 -12.27,-39.73 -38.26,-43.65 18.05,6.75 20.11,44.63 -9.32,44.63 -24,0 -39.24,-23.54 -39.24,-45.12 0,-28.5 20.92,-64.5 73.55,-77.4 52.4,-12.85 91.79,10.17 119,34.76 h -0.45 a 26.2,26.2 0 1 0 15,48.32 26.21,26.21 0 1 0 38.35,-24.16 26.19,26.19 0 1 0 -36.34,-35.64 c -3.89,-31.22 -3.06,-73.88 17.37,-100.54 32.14,-42 89.42,-28 107.08,-15.61 17.66,12.39 27.11,33.29 13.29,53 -16.92,24.08 -46.72,0.61 -41.87,-18 -11.74,23.52 -0.33,46.53 13.71,56.4 14.04,9.87 41.85,13.83 59.9,-11.85 a 62.79,62.79 0 0 0 10.9,-33.63 67.1,67.1 0 0 0 14.41,14.25 c 24.28,17.06 50.89,7.34 74.77,13.46 -13.84,-20.4 -13.71,-48.73 -38,-65.79 a 66.8,66.8 0 0 0 -18.27,-8.73 62.7,62.7 0 0 0 27.93,-21.65 c 18.06,-25.68 4.92,-50.5 -9.12,-60.37 -14.04,-9.87 -39.55,-12.82 -57.71,6.19 15.91,-10.88 48.08,9.22 31.16,33.29 -13.83,19.66 -37.93,17.35 -55.58,4.94 -17.65,-12.41 -40.5,-57.22 -1.48,-111.13 20.64,-28.52 52.76,-45.22 77.52,-54.49 a 24.87,24.87 0 0 0 -1.42,2.19 26.21,26.21 0 1 0 48.87,13.07 26.2,26.2 0 1 0 0,-45.32 26.19,26.19 0 1 0 -51.15,7.89 c -43.4,-18.53 -60.63,-49.6 -60.63,-95.36 0,-80.86 46.1,-106.92 67.68,-106.92 21.58,0 45.13,15.2 45.13,39.24 0,29.43 -37.88,27.36 -44.64,9.32 3.93,26 26.49,38.25 43.66,38.25 17.17,0 42.18,-12.75 42.18,-44.14 a 62.81,62.81 0 0 0 -10.68,-34.19 67.34,67.34 0 0 0 20.23,3.45 c 29.69,-0.11 45.91,-23.36 68.91,-32.09 z m -1108.59,0.34 z m 77.85,-242.72 c 15.7,-11.7 29.44,-27.07 37.17,-47.08 v 93.87 a 136.6,136.6 0 0 0 -37.15,-46.79 z m -5.94,240.56 c 16.55,-10.75 32.23,-27.73 43.11,-51.23 v 106.65 c -9.52,-22.66 -23.76,-42.93 -43.09,-55.42 z m 13.24,234.15 a 115.37,115.37 0 0 0 30.89,-38.75 368,368 0 0 0 13.91,76.64 c -13.15,-15.74 -28.88,-28.17 -44.78,-37.89 z m 643.2,-639.24 c 11.24,14.78 25.24,26.91 42.24,34.56 h -84 a 137.64,137.64 0 0 0 41.76,-34.56 z m -242.76,-6.22 c 11.24,18.93 28,32 46.15,40.82 h -92.3 c 18.15,-8.91 34.91,-21.93 46.15,-40.82 z m -242.76,6.26 a 137.64,137.64 0 0 0 41.76,34.52 h -84 c 17,-7.65 31,-19.78 42.24,-34.56 z m -63.38,808.14 a 136.88,136.88 0 0 0 -24.6,2.28 107.79,107.79 0 0 0 8.18,-26.82 113.47,113.47 0 0 0 1.25,-26.23 371.57,371.57 0 0 0 36.8,52.71 121.61,121.61 0 0 0 -21.63,-1.98 z m 113.46,119.21 a 175.68,175.68 0 0 0 -8.13,-43.12 369.59,369.59 0 0 0 52.1,28.08 156.78,156.78 0 0 0 -43.97,15 z m 192.68,57 a 126.87,126.87 0 0 0 -31.5,-42.23 c 10.39,0.88 20.89,1.35 31.5,1.35 10.61,0 21.07,-0.47 31.48,-1.34 a 126.89,126.89 0 0 0 -31.48,42.21 z m 192.68,-57 a 156.79,156.79 0 0 0 -43.57,-15 366.18,366.18 0 0 0 51.59,-27.82 175.69,175.69 0 0 0 -8.02,42.78 z m 113.46,-119.21 a 122.22,122.22 0 0 0 -21.34,1.88 370.05,370.05 0 0 0 36.48,-52.18 113.14,113.14 0 0 0 1.29,25.75 107.85,107.85 0 0 0 8.17,26.83 136.88,136.88 0 0 0 -24.6,-2.32 z m 29.54,-235.19 c 0,185.39 -150.29,335.67 -335.68,335.67 v 0 c -185.38,0 -335.67,-150.28 -335.67,-335.67 V 284.67 h 671.35 v 503.51 z m 34.87,-455.51 c 7.73,20 21.47,35.39 37.17,47.08 a 136.64,136.64 0 0 0 -37.17,46.8 z m 29.87,521.8 c -15.82,9.67 -31.46,22 -44.6,37.66 a 370.19,370.19 0 0 0 13.73,-76.37 115.27,115.27 0 0 0 30.87,38.67 z M 993.58,675.78 v -106.7 c 10.88,23.51 26.56,40.49 43.11,51.24 -19.33,12.49 -33.57,32.76 -43.11,55.42 z m 114.65,-53.27 h 0.35 v 0 z"
     id="path46"
     style="fill:#1a1a1a" />
</svg>
