<?xml version="1.0" encoding="utf-8"?>
<!-- Generator: Adobe Illustrator 25.4.1, SVG Export Plug-In . SVG Version: 6.00 Build 0)  -->
<svg version="1.1" id="Layer_1" xmlns="http://www.w3.org/2000/svg" xmlns:xlink="http://www.w3.org/1999/xlink" x="0px" y="0px"
	 viewBox="0 0 1920 1080" style="enable-background:new 0 0 1920 1080;" xml:space="preserve">
<style type="text/css">
	.st0{fill:#A3EC26;}
	.st1{fill:#141414;}
</style>
<path class="st0" d="M583.3,460.3c-0.1,0.5-0.2,0.9-0.2,1.5c-0.1,0.6-0.1,1.1-0.2,1.7c0,0.1-0.1,0.3-0.1,0.5c0,0.3,0.1,0.6,0.1,0.9
	c0,0.6,0.1,1.1,0.2,1.7c0.1,0.5,0.2,1,0.3,1.5c0.1,0.5,0.3,0.9,0.4,1.4c0.2,0.5,0.4,0.9,0.6,1.4c0.2,0.4,0.4,0.9,0.7,1.3
	c0.3,0.4,0.6,0.8,0.9,1.2c0.3,0.4,0.6,0.8,1,1.2c0.3,0.4,0.7,0.7,1.1,1c0.4,0.3,0.7,0.7,1.2,0.9c0.4,0.3,0.9,0.6,1.4,0.9
	c0.3,0.1,0.5,0.4,0.8,0.5l373.3,186.7c0.1,0.1,0.3,0.1,0.4,0.1c0.2,0.1,0.4,0.2,0.6,0.3c0.2,0.1,0.4,0.1,0.6,0.2
	c0.3,0.1,0.6,0.2,0.9,0.3c0.3,0.1,0.6,0.2,0.9,0.2c0.2,0,0.3,0.1,0.5,0.1c0.2,0,0.4,0,0.5,0.1c0.3,0.1,0.7,0.1,1,0.1
	c0.4,0,0.7,0.1,1,0.1c0.3,0,0.6,0,0.9,0c0.4,0,0.7,0,1-0.1c0.3,0,0.7-0.1,1-0.1c0.2,0,0.4,0,0.5-0.1c0.2,0,0.3-0.1,0.5-0.1
	c0.3-0.1,0.6-0.1,0.9-0.2c0.3-0.1,0.6-0.2,0.9-0.3c0.2-0.1,0.4-0.1,0.6-0.2c0.2-0.1,0.4-0.2,0.6-0.3c0.1-0.1,0.3-0.1,0.4-0.1
	L1352,477.8c0.3-0.1,0.5-0.4,0.8-0.5c0.5-0.3,0.9-0.6,1.4-0.9c0.4-0.3,0.8-0.6,1.2-0.9c0.4-0.3,0.7-0.7,1.1-1c0.4-0.4,0.7-0.8,1-1.2
	c0.3-0.4,0.6-0.8,0.9-1.2c0.3-0.4,0.5-0.9,0.7-1.3c0.2-0.4,0.4-0.9,0.6-1.4c0.2-0.5,0.3-0.9,0.4-1.4c0.1-0.5,0.2-0.9,0.3-1.5
	c0.1-0.6,0.1-1.1,0.2-1.7c0-0.3,0.1-0.6,0.1-0.9c0-0.1,0-0.3-0.1-0.5c0-0.6-0.1-1.1-0.2-1.7c-0.1-0.5-0.1-1-0.2-1.5
	c-0.1-0.4-0.3-0.9-0.4-1.4c-0.2-0.5-0.4-1.1-0.6-1.6c-0.1-0.1-0.1-0.3-0.1-0.4L1172.3,83.6c-0.1-0.2-0.2-0.3-0.3-0.4
	c-0.5-1-1.2-1.9-1.9-2.7c-0.2-0.2-0.3-0.4-0.5-0.6c-0.9-0.9-1.8-1.7-2.9-2.4c-0.3-0.2-0.5-0.3-0.8-0.4c-0.9-0.5-1.8-0.9-2.7-1.2
	c-0.3-0.1-0.7-0.2-1-0.3c-1.2-0.3-2.4-0.5-3.6-0.5c-0.1,0-0.1,0-0.1,0c-0.1,0-0.3,0.1-0.5,0.1c-1,0-1.9,0.1-2.8,0.3
	c-0.3,0.1-0.6,0.2-0.9,0.3c-0.8,0.2-1.6,0.5-2.3,0.8c-0.1,0.1-0.3,0.1-0.4,0.1c-0.3,0.1-0.5,0.4-0.8,0.5c-0.5,0.3-0.9,0.6-1.4,0.9
	c-0.4,0.3-0.8,0.6-1.2,0.9c-0.4,0.3-0.7,0.7-1.1,1c-0.4,0.4-0.7,0.8-1,1.2c-0.3,0.4-0.6,0.8-0.9,1.2c-0.3,0.4-0.5,0.9-0.7,1.3
	c-0.2,0.4-0.4,0.9-0.6,1.4c-0.2,0.5-0.3,0.9-0.4,1.4c-0.1,0.5-0.2,0.9-0.3,1.5c-0.1,0.6-0.1,1.1-0.2,1.7c0,0.3-0.1,0.6-0.1,0.9
	v335.8L982.7,266.3c-0.7-0.7-1.5-1.4-2.4-2c-0.4-0.2-0.8-0.4-1.2-0.6c-0.5-0.3-1-0.6-1.5-0.8c-0.5-0.2-1-0.3-1.5-0.5
	c-0.4-0.1-0.9-0.3-1.3-0.4c-1-0.2-2-0.3-3.1-0.3c-1,0-2,0.1-3.1,0.3c-0.5,0.1-0.9,0.3-1.4,0.4c-0.5,0.1-1,0.3-1.5,0.5
	c-0.5,0.2-1,0.5-1.5,0.8c-0.4,0.2-0.8,0.4-1.2,0.6c-0.9,0.6-1.7,1.2-2.4,2L800.6,426.3V90.6c0-0.3-0.1-0.6-0.1-0.9
	c0-0.6-0.1-1.1-0.2-1.7c-0.1-0.5-0.2-1-0.3-1.5c-0.1-0.5-0.3-0.9-0.4-1.4c-0.2-0.5-0.4-0.9-0.6-1.4c-0.2-0.4-0.4-0.9-0.7-1.3
	c-0.3-0.4-0.6-0.8-0.9-1.2c-0.3-0.4-0.6-0.8-1-1.2c-0.3-0.4-0.7-0.7-1.1-1c-0.4-0.3-0.7-0.7-1.2-0.9c-0.4-0.3-0.9-0.6-1.4-0.9
	c-0.3-0.1-0.5-0.4-0.8-0.5c-0.1-0.1-0.3-0.1-0.4-0.1c-0.7-0.4-1.5-0.6-2.3-0.8c-0.3-0.1-0.6-0.2-0.9-0.3c-0.9-0.2-1.8-0.3-2.8-0.3
	c-0.1,0-0.3,0-0.5,0c-0.1,0-0.1,0-0.1,0c-1.3,0-2.5,0.2-3.6,0.5c-0.3,0.1-0.7,0.2-1,0.3c-0.9,0.3-1.9,0.7-2.7,1.2
	c-0.3,0.1-0.5,0.3-0.8,0.4c-1.1,0.7-2,1.5-2.9,2.4c-0.2,0.2-0.3,0.4-0.5,0.6c-0.7,0.8-1.4,1.8-1.9,2.7c-0.1,0.2-0.2,0.3-0.3,0.4
	L584.5,456.9c-0.1,0.1-0.1,0.3-0.1,0.4c-0.2,0.5-0.4,1.1-0.6,1.6C583.6,459.4,583.4,459.8,583.3,460.3z M778.6,479.4l114.3,114.3
	L664.3,479.4H778.6z M1164.8,479.4h114.3l-228.6,114.3L1164.8,479.4z M1173.9,448.3V156.4l145.9,291.9H1173.9z M987.2,613V314.8
	l149.1,149.1L987.2,613z M956.2,613L807,463.9l149.1-149.1V613L956.2,613z M623.6,448.3l145.9-291.9v291.9H623.6z"/>
<path class="st1" d="M44,828c-1.1-3.6,1-6.3,4.7-6.3h24c2.1,0,4.2,1.8,4.7,3.6l27.1,104.1h1L147,822c0.5-1.6,1.8-2.9,4.4-2.9h4.7
	c2.6,0,3.9,1.3,4.4,2.9l41.8,107.5h1.1l26.6-104.1c0.5-1.8,2.6-3.6,4.7-3.6h24c3.6,0,5.7,2.6,4.7,6.3l-49.3,175.4
	c-0.5,2.1-2.6,3.6-4.7,3.6h-4.2c-2.3,0-3.9-1.3-4.4-2.9l-46.7-118.2h-1.3l-46.2,118.2c-0.8,1.6-1.8,2.9-4.4,2.9h-4.2
	c-2.1,0-4.2-1.6-4.7-3.6L44,828z"/>
<path class="st1" d="M315.1,826.7c0-2.6,2.3-5,5-5h24.3c2.6,0,5,2.3,5,5v172.7c0,2.6-2.3,5-5,5h-24.3c-2.6,0-5-2.3-5-5V826.7z"/>
<path class="st1" d="M418.9,823.8c0-2.6,2.3-4.7,5-4.7h6.5l108.5,115.3h0.3V826.7c0-2.6,2.1-5,5-5h24c2.6,0,5,2.3,5,5v175.6
	c0,2.6-2.3,4.7-5,4.7h-6.3L452.8,887.2h-0.3v112.2c0,2.6-2.1,5-5,5h-23.7c-2.6,0-5-2.3-5-5L418.9,823.8L418.9,823.8z"/>
<path class="st1" d="M666.8,853h-39.9c-2.9,0-5-2.3-5-5v-21.4c0-2.6,2.1-5,5-5h114c2.9,0,5,2.3,5,5v21.4c0,2.6-2.1,5-5,5H701v146.4
	c0,2.6-2.3,5-5,5h-24.3c-2.6,0-5-2.3-5-5V853L666.8,853z"/>
<path class="st1" d="M794.6,826.7c0-2.6,2.1-5,5-5h106.2c2.9,0,5,2.3,5,5v21.4c0,2.6-2.1,5-5,5h-77.2v42.8h64.4c2.6,0,5,2.3,5,5
	v21.7c0,2.9-2.3,5-5,5h-64.4v45.7h77.2c2.9,0,5,2.3,5,5v21.4c0,2.6-2.1,5-5,5H799.5c-2.9,0-5-2.3-5-5V826.7z"/>
<path class="st1" d="M971.7,826.7c0-2.6,2.1-5,5-5h74.6c31.3,0,56.9,25.1,56.9,56.1c0,24-15.9,43.6-38.6,52.7l35.8,66.3
	c1.8,3.4,0,7.6-4.4,7.6h-27.4c-2.3,0-3.6-1.3-4.2-2.3l-34.7-69.1h-29v66.5c0,2.6-2.3,5-5,5h-24c-2.9,0-5-2.3-5-5L971.7,826.7
	L971.7,826.7z M1048.4,905c13.8,0,25.8-12,25.8-26.6c0-13.8-12-25.3-25.8-25.3h-42.5V905H1048.4L1048.4,905z"/>
<path class="st1" d="M1186,823c0.3-2.1,1.8-3.9,4.7-3.9h4.2c2.1,0,3.6,1,4.4,2.6l57.4,123.2c0.5,0,0.5,0,0.8,0l57.4-123.2
	c0.8-1.6,2.1-2.6,4.4-2.6h4.2c2.9,0,4.4,1.8,4.7,3.9l30.8,175.3c0.8,3.6-1.3,6-4.7,6h-23.7c-2.3,0-4.4-2.1-5-3.9l-15.4-98.9
	c-0.3,0-0.8,0-0.8,0l-45.7,102.5c-0.5,1.6-2.1,2.9-4.4,2.9h-4.7c-2.3,0-3.6-1.3-4.4-2.9L1204,901.6c0,0-0.5,0-0.8,0l-15.1,98.9
	c-0.3,1.8-2.3,3.9-4.7,3.9h-23.5c-3.4,0-5.5-2.3-5-6L1186,823z"/>
<path class="st1" d="M1412.7,826.7c0-2.6,2.4-5,5-5h24.8c2.9,0,5,2.3,5,5v106.7c0,22.2,15.1,39.7,37.8,39.7
	c22.7,0,38.1-17.5,38.1-39.4v-107c0-2.6,2.1-5,4.9-5h24.8c2.6,0,5,2.3,5,5v108.5c0,39.7-31.6,71.8-72.8,71.8
	c-41,0-72.5-32.1-72.5-71.8V826.7L1412.7,826.7z"/>
<path class="st1" d="M1650.5,853h-39.9c-2.9,0-4.9-2.3-4.9-5v-21.4c0-2.6,2.1-5,4.9-5h114c2.9,0,5,2.3,5,5v21.4c0,2.6-2.1,5-5,5
	h-39.9v146.4c0,2.6-2.3,5-5,5h-24.3c-2.6,0-5-2.3-5-5V853L1650.5,853z"/>
<path class="st1" d="M1778.2,826.7c0-2.6,2.1-5,5-5h106.2c2.9,0,5,2.3,5,5v21.4c0,2.6-2.1,5-5,5h-77.2v42.8h64.4
	c2.6,0,4.9,2.3,4.9,5v21.7c0,2.9-2.3,5-4.9,5h-64.4v45.7h77.2c2.9,0,5,2.3,5,5v21.4c0,2.6-2.1,5-5,5h-106.2c-2.9,0-5-2.3-5-5V826.7z
	"/>
</svg>
