<svg width="130" height="36" viewBox="0 0 130 36" fill="none" xmlns="http://www.w3.org/2000/svg">
<path d="M126.365 0H117.011C114.646 0 113.721 1.33711 113.721 3.6516V16.3029H111.665V3.96031C111.665 1.33735 110.534 0.000255467 108.324 0.000255467H99.0213C96.6569 0.000255467 95.7318 1.23462 95.7318 3.65185V32.3487C95.7318 34.6629 96.6569 36 99.0213 36H108.376C110.74 36 111.665 34.6629 111.665 32.3487V18.36H113.721V32.0399C113.721 34.6629 114.852 35.9998 117.062 35.9998H126.365C128.73 35.9998 129.655 34.7656 129.655 32.3484V3.6516C129.655 1.33736 128.73 0 126.365 0Z" fill="white"/>
<path d="M60.6103 35.9995H70.0676C72.2263 35.9995 73.3056 34.8166 73.3056 32.4509V3.44561C73.3056 1.54283 75.3617 1.54283 75.3617 3.44561V8.64004C75.3617 13.4745 79.1651 17.2283 83.9451 17.2283C88.7251 17.2283 92.5799 13.4742 92.5799 8.74277C92.5799 3.90856 88.7251 0 83.9966 0H46.6813C41.9528 0 38.0979 3.90856 38.0979 8.74277C38.0979 13.4742 42.004 17.2283 46.7328 17.2283C51.5127 17.2283 55.3161 13.4742 55.3161 8.64004V3.44561C55.3161 1.74855 57.3722 1.33685 57.3722 3.44561V32.3996C57.3722 34.6624 58.2974 35.9995 60.6103 35.9995Z" fill="white"/>
<path d="M26.6246 18.7712C21.8446 18.7712 17.9897 22.6282 17.9897 27.3594V32.5539C17.9897 34.4052 15.9336 34.4052 15.9336 32.5539V19.0284H20.6107C22.2041 19.0284 22.2041 16.9714 20.6107 16.9714H15.9334V3.44561C15.9334 1.33685 17.9895 1.74855 17.9895 3.44561V8.63979C17.9895 13.3713 21.8443 17.2283 26.6243 17.2283C31.3531 17.2283 35.208 13.3713 35.208 8.69128C35.208 3.85707 31.3531 0 26.6243 0H3.23804C0.925118 0 0 1.3371 0 3.59985V32.3991C0 34.6621 0.925118 35.9992 3.23804 35.9992H26.6243C31.3531 35.9992 35.208 32.1422 35.208 27.308C35.208 22.6282 31.3531 18.7712 26.6246 18.7712Z" fill="white"/>
</svg>
