<svg width="103" height="99" viewBox="0 0 103 99" fill="none" xmlns="http://www.w3.org/2000/svg">
<path d="M0 2.3V0.88H20V2.3H0ZM7.58 31.24C6.18 31.24 4.99333 30.9867 4.02 30.48C3.04667 29.96 2.3 29.18 1.78 28.14C1.27333 27.0867 1.02 25.7533 1.02 24.14C1.02 21.7533 1.6 19.9733 2.76 18.8C3.92 17.6267 5.53333 17.04 7.6 17.04C8.77333 17.04 9.81333 17.2333 10.72 17.62C11.6267 17.9933 12.3333 18.5667 12.84 19.34C13.36 20.1 13.62 21.06 13.62 22.22H11.7C11.7 21.42 11.5267 20.76 11.18 20.24C10.8467 19.72 10.3733 19.3333 9.76 19.08C9.14667 18.8133 8.42667 18.68 7.6 18.68C6.64 18.68 5.81333 18.8667 5.12 19.24C4.42667 19.6133 3.9 20.1933 3.54 20.98C3.18 21.7533 3 22.7533 3 23.98V24.4C3 25.6133 3.18 26.6067 3.54 27.38C3.9 28.14 4.42 28.7 5.1 29.06C5.79333 29.42 6.62667 29.6 7.6 29.6C8.45333 29.6 9.18667 29.4733 9.8 29.22C10.4267 28.9667 10.9067 28.58 11.24 28.06C11.5867 27.5267 11.76 26.86 11.76 26.06H13.62C13.62 27.2467 13.3533 28.22 12.82 28.98C12.3 29.74 11.5867 30.3067 10.68 30.68C9.77333 31.0533 8.74 31.24 7.58 31.24ZM20.2508 31.24C19.1841 31.24 18.2841 31.0467 17.5508 30.66C16.8308 30.26 16.2774 29.6533 15.8908 28.84C15.5174 28.0267 15.3308 26.9933 15.3308 25.74C15.3308 24.4733 15.5174 23.44 15.8908 22.64C16.2774 21.8267 16.8308 21.2267 17.5508 20.84C18.2841 20.44 19.1841 20.24 20.2508 20.24C21.3174 20.24 22.2108 20.44 22.9308 20.84C23.6641 21.2267 24.2174 21.8267 24.5908 22.64C24.9641 23.44 25.1508 24.4733 25.1508 25.74C25.1508 26.9933 24.9641 28.0267 24.5908 28.84C24.2174 29.6533 23.6641 30.26 22.9308 30.66C22.2108 31.0467 21.3174 31.24 20.2508 31.24ZM20.2508 29.76C20.9308 29.76 21.4974 29.6267 21.9508 29.36C22.4041 29.0933 22.7441 28.68 22.9708 28.12C23.2108 27.5467 23.3308 26.8267 23.3308 25.96V25.52C23.3308 24.64 23.2108 23.92 22.9708 23.36C22.7441 22.8 22.4041 22.3867 21.9508 22.12C21.4974 21.8533 20.9308 21.72 20.2508 21.72C19.5708 21.72 18.9974 21.8533 18.5308 22.12C18.0774 22.3867 17.7374 22.8 17.5108 23.36C17.2841 23.92 17.1708 24.64 17.1708 25.52V25.96C17.1708 26.8267 17.2841 27.5467 17.5108 28.12C17.7374 28.68 18.0774 29.0933 18.5308 29.36C18.9974 29.6267 19.5708 29.76 20.2508 29.76ZM27.337 31V20.48H28.757L28.917 22.06H29.057C29.337 21.6333 29.6504 21.2867 29.997 21.02C30.357 20.7533 30.7504 20.56 31.177 20.44C31.617 20.3067 32.0837 20.24 32.577 20.24C33.2437 20.24 33.8237 20.3533 34.317 20.58C34.8237 20.8067 35.217 21.1733 35.497 21.68C35.7904 22.1867 35.937 22.8733 35.937 23.74V31H34.177V23.98C34.177 23.54 34.117 23.18 33.997 22.9C33.8904 22.62 33.737 22.4 33.537 22.24C33.3504 22.08 33.117 21.9667 32.837 21.9C32.5704 21.8333 32.2704 21.8 31.937 21.8C31.4437 21.8 30.977 21.92 30.537 22.16C30.097 22.4 29.7437 22.7467 29.477 23.2C29.2237 23.6533 29.097 24.1933 29.097 24.82V31H27.337ZM39.0266 31V21.96H37.4666V20.48H39.0266V18.8C39.0266 18.3867 39.0866 18 39.2066 17.64C39.3266 17.2667 39.5532 16.9667 39.8866 16.74C40.2199 16.5 40.6866 16.38 41.2866 16.38C41.4732 16.38 41.6532 16.3933 41.8266 16.42C42.0132 16.4333 42.1866 16.46 42.3466 16.5C42.5199 16.5267 42.6732 16.56 42.8066 16.6V17.86H41.7466C41.4132 17.86 41.1666 17.9467 41.0066 18.12C40.8599 18.28 40.7866 18.5133 40.7866 18.82V20.48H42.8066V21.96H40.7866V31H39.0266ZM48.3144 31.24C47.2744 31.24 46.3944 31.0467 45.6744 30.66C44.9677 30.26 44.4277 29.6533 44.0544 28.84C43.6944 28.0267 43.5144 26.9933 43.5144 25.74C43.5144 24.4733 43.6944 23.44 44.0544 22.64C44.4277 21.8267 44.9744 21.2267 45.6944 20.84C46.4144 20.44 47.3144 20.24 48.3944 20.24C49.381 20.24 50.2077 20.4333 50.8744 20.82C51.541 21.1933 52.041 21.76 52.3744 22.52C52.721 23.2667 52.8944 24.2067 52.8944 25.34V26.18H45.3344C45.361 27.02 45.481 27.7133 45.6944 28.26C45.921 28.7933 46.2544 29.1867 46.6944 29.44C47.1344 29.68 47.6877 29.8 48.3544 29.8C48.8077 29.8 49.201 29.7467 49.5344 29.64C49.881 29.52 50.1677 29.3533 50.3944 29.14C50.6344 28.9267 50.8144 28.6733 50.9344 28.38C51.0544 28.0867 51.121 27.7667 51.1344 27.42H52.8544C52.841 27.98 52.7344 28.5 52.5344 28.98C52.3344 29.4467 52.041 29.8467 51.6544 30.18C51.2677 30.5133 50.7944 30.7733 50.2344 30.96C49.6744 31.1467 49.0344 31.24 48.3144 31.24ZM45.3744 24.86H51.0744C51.0744 24.2733 51.0077 23.78 50.8744 23.38C50.741 22.98 50.5477 22.6533 50.2944 22.4C50.0544 22.1467 49.7677 21.9667 49.4344 21.86C49.1144 21.74 48.7477 21.68 48.3344 21.68C47.721 21.68 47.201 21.7933 46.7744 22.02C46.3477 22.2467 46.021 22.5933 45.7944 23.06C45.5677 23.5267 45.4277 24.1267 45.3744 24.86ZM55.0714 31V20.48H56.4914L56.6514 22.22H56.7914C56.8981 21.8867 57.0447 21.5733 57.2314 21.28C57.4181 20.9733 57.6714 20.7267 57.9914 20.54C58.3114 20.34 58.7047 20.24 59.1714 20.24C59.3714 20.24 59.5514 20.26 59.7114 20.3C59.8847 20.3267 60.0114 20.36 60.0914 20.4V22.02H59.4314C58.9781 22.02 58.5847 22.1 58.2514 22.26C57.9314 22.4067 57.6647 22.62 57.4514 22.9C57.2381 23.18 57.0781 23.5133 56.9714 23.9C56.8781 24.2867 56.8314 24.7 56.8314 25.14V31H55.0714ZM65.7167 31.24C64.6767 31.24 63.7967 31.0467 63.0767 30.66C62.3701 30.26 61.8301 29.6533 61.4567 28.84C61.0967 28.0267 60.9167 26.9933 60.9167 25.74C60.9167 24.4733 61.0967 23.44 61.4567 22.64C61.8301 21.8267 62.3767 21.2267 63.0967 20.84C63.8167 20.44 64.7167 20.24 65.7967 20.24C66.7834 20.24 67.6101 20.4333 68.2767 20.82C68.9434 21.1933 69.4434 21.76 69.7767 22.52C70.1234 23.2667 70.2967 24.2067 70.2967 25.34V26.18H62.7367C62.7634 27.02 62.8834 27.7133 63.0967 28.26C63.3234 28.7933 63.6567 29.1867 64.0967 29.44C64.5367 29.68 65.0901 29.8 65.7567 29.8C66.2101 29.8 66.6034 29.7467 66.9367 29.64C67.2834 29.52 67.5701 29.3533 67.7967 29.14C68.0367 28.9267 68.2167 28.6733 68.3367 28.38C68.4567 28.0867 68.5234 27.7667 68.5367 27.42H70.2567C70.2434 27.98 70.1367 28.5 69.9367 28.98C69.7367 29.4467 69.4434 29.8467 69.0567 30.18C68.6701 30.5133 68.1967 30.7733 67.6367 30.96C67.0767 31.1467 66.4367 31.24 65.7167 31.24ZM62.7767 24.86H68.4767C68.4767 24.2733 68.4101 23.78 68.2767 23.38C68.1434 22.98 67.9501 22.6533 67.6967 22.4C67.4567 22.1467 67.1701 21.9667 66.8367 21.86C66.5167 21.74 66.1501 21.68 65.7367 21.68C65.1234 21.68 64.6034 21.7933 64.1767 22.02C63.7501 22.2467 63.4234 22.5933 63.1967 23.06C62.9701 23.5267 62.8301 24.1267 62.7767 24.86ZM72.4738 31V20.48H73.8938L74.0538 22.06H74.1938C74.4738 21.6333 74.7871 21.2867 75.1338 21.02C75.4938 20.7533 75.8871 20.56 76.3138 20.44C76.7538 20.3067 77.2204 20.24 77.7138 20.24C78.3804 20.24 78.9604 20.3533 79.4538 20.58C79.9604 20.8067 80.3538 21.1733 80.6338 21.68C80.9271 22.1867 81.0738 22.8733 81.0738 23.74V31H79.3138V23.98C79.3138 23.54 79.2538 23.18 79.1338 22.9C79.0271 22.62 78.8738 22.4 78.6738 22.24C78.4871 22.08 78.2538 21.9667 77.9738 21.9C77.7071 21.8333 77.4071 21.8 77.0738 21.8C76.5804 21.8 76.1138 21.92 75.6738 22.16C75.2338 22.4 74.8804 22.7467 74.6138 23.2C74.3604 23.6533 74.2338 24.1933 74.2338 24.82V31H72.4738ZM87.7433 31.24C86.7299 31.24 85.8766 31.0467 85.1833 30.66C84.5033 30.26 83.9833 29.6533 83.6233 28.84C83.2766 28.0133 83.1033 26.98 83.1033 25.74C83.1033 24.5 83.2766 23.4733 83.6233 22.66C83.9833 21.8467 84.5099 21.24 85.2033 20.84C85.9099 20.44 86.7766 20.24 87.8033 20.24C88.5233 20.24 89.1433 20.3333 89.6633 20.52C90.1966 20.7067 90.6366 20.98 90.9833 21.34C91.3299 21.7 91.5833 22.1333 91.7433 22.64C91.9166 23.1467 92.0033 23.7267 92.0033 24.38H90.2233C90.2233 23.7667 90.1366 23.2667 89.9633 22.88C89.8033 22.48 89.5433 22.1867 89.1833 22C88.8233 21.8 88.3499 21.7 87.7633 21.7C87.1766 21.7 86.6699 21.8333 86.2433 22.1C85.8166 22.3533 85.4899 22.76 85.2633 23.32C85.0366 23.88 84.9233 24.62 84.9233 25.54V25.96C84.9233 26.8267 85.0299 27.5467 85.2433 28.12C85.4699 28.6933 85.7966 29.1133 86.2233 29.38C86.6499 29.6467 87.1699 29.78 87.7833 29.78C88.3833 29.78 88.8633 29.6733 89.2233 29.46C89.5966 29.2467 89.8633 28.94 90.0233 28.54C90.1966 28.14 90.2833 27.66 90.2833 27.1H92.0033C92.0033 27.6867 91.9166 28.2333 91.7433 28.74C91.5833 29.2467 91.3299 29.6867 90.9833 30.06C90.6366 30.4333 90.1966 30.7267 89.6633 30.94C89.1299 31.14 88.4899 31.24 87.7433 31.24ZM98.3144 31.24C97.2744 31.24 96.3944 31.0467 95.6744 30.66C94.9677 30.26 94.4277 29.6533 94.0544 28.84C93.6944 28.0267 93.5144 26.9933 93.5144 25.74C93.5144 24.4733 93.6944 23.44 94.0544 22.64C94.4277 21.8267 94.9744 21.2267 95.6944 20.84C96.4144 20.44 97.3144 20.24 98.3944 20.24C99.381 20.24 100.208 20.4333 100.874 20.82C101.541 21.1933 102.041 21.76 102.374 22.52C102.721 23.2667 102.894 24.2067 102.894 25.34V26.18H95.3344C95.361 27.02 95.481 27.7133 95.6944 28.26C95.921 28.7933 96.2544 29.1867 96.6944 29.44C97.1344 29.68 97.6877 29.8 98.3544 29.8C98.8077 29.8 99.201 29.7467 99.5344 29.64C99.881 29.52 100.168 29.3533 100.394 29.14C100.634 28.9267 100.814 28.6733 100.934 28.38C101.054 28.0867 101.121 27.7667 101.134 27.42H102.854C102.841 27.98 102.734 28.5 102.534 28.98C102.334 29.4467 102.041 29.8467 101.654 30.18C101.268 30.5133 100.794 30.7733 100.234 30.96C99.6744 31.1467 99.0344 31.24 98.3144 31.24ZM95.3744 24.86H101.074C101.074 24.2733 101.008 23.78 100.874 23.38C100.741 22.98 100.548 22.6533 100.294 22.4C100.054 22.1467 99.7677 21.9667 99.4344 21.86C99.1144 21.74 98.7477 21.68 98.3344 21.68C97.721 21.68 97.201 21.7933 96.7744 22.02C96.3477 22.2467 96.021 22.5933 95.7944 23.06C95.5677 23.5267 95.4277 24.1267 95.3744 24.86ZM0 50.3V48.88H20V50.3H0ZM1.72 79V65.28H3.62V71.16H11.08V65.28H13V79H11.08V72.82H3.62V79H1.72ZM18.7466 79.24C18.3599 79.24 17.9732 79.1933 17.5866 79.1C17.1999 79.0067 16.8399 78.8533 16.5066 78.64C16.1732 78.4267 15.9066 78.1333 15.7066 77.76C15.5066 77.3733 15.4066 76.8933 15.4066 76.32C15.4066 75.6 15.5799 75.0067 15.9266 74.54C16.2732 74.0733 16.7532 73.7133 17.3666 73.46C17.9932 73.1933 18.7332 73.0133 19.5866 72.92C20.4399 72.8133 21.3666 72.76 22.3666 72.76V71.56C22.3666 71.1733 22.2999 70.84 22.1666 70.56C22.0332 70.28 21.7932 70.0667 21.4466 69.92C21.1132 69.76 20.6332 69.68 20.0066 69.68C19.4066 69.68 18.9266 69.76 18.5666 69.92C18.2199 70.0667 17.9732 70.26 17.8266 70.5C17.6932 70.74 17.6266 71.0067 17.6266 71.3V71.6H15.9266C15.9132 71.5333 15.9066 71.4667 15.9066 71.4C15.9066 71.3333 15.9066 71.2533 15.9066 71.16C15.9066 70.52 16.0799 69.9867 16.4266 69.56C16.7866 69.12 17.2866 68.7933 17.9266 68.58C18.5666 68.3533 19.2999 68.24 20.1266 68.24C21.0066 68.24 21.7399 68.3667 22.3266 68.62C22.9266 68.8733 23.3732 69.2333 23.6666 69.7C23.9732 70.1667 24.1266 70.7267 24.1266 71.38V77.08C24.1266 77.3333 24.1866 77.5133 24.3066 77.62C24.4266 77.7133 24.5732 77.76 24.7466 77.76H25.5266V78.92C25.3399 79 25.1332 79.0667 24.9066 79.12C24.6799 79.1867 24.4199 79.22 24.1266 79.22C23.7799 79.22 23.4932 79.1467 23.2666 79C23.0399 78.8667 22.8666 78.68 22.7466 78.44C22.6266 78.1867 22.5466 77.9067 22.5066 77.6H22.3666C22.1266 77.9333 21.8199 78.2267 21.4466 78.48C21.0866 78.72 20.6799 78.9067 20.2266 79.04C19.7732 79.1733 19.2799 79.24 18.7466 79.24ZM19.1866 77.76C19.6132 77.76 20.0132 77.6933 20.3866 77.56C20.7732 77.4267 21.1132 77.24 21.4066 77C21.6999 76.7467 21.9332 76.4467 22.1066 76.1C22.2799 75.7533 22.3666 75.3733 22.3666 74.96V74.08C21.2866 74.08 20.3666 74.14 19.6066 74.26C18.8466 74.38 18.2599 74.5933 17.8466 74.9C17.4466 75.2067 17.2466 75.64 17.2466 76.2C17.2466 76.56 17.3266 76.8533 17.4866 77.08C17.6466 77.3067 17.8732 77.48 18.1666 77.6C18.4599 77.7067 18.7999 77.76 19.1866 77.76ZM31.005 79.24C29.9917 79.24 29.1383 79.0467 28.445 78.66C27.765 78.26 27.245 77.6533 26.885 76.84C26.5383 76.0133 26.365 74.98 26.365 73.74C26.365 72.5 26.5383 71.4733 26.885 70.66C27.245 69.8467 27.7717 69.24 28.465 68.84C29.1717 68.44 30.0383 68.24 31.065 68.24C31.785 68.24 32.405 68.3333 32.925 68.52C33.4583 68.7067 33.8983 68.98 34.245 69.34C34.5917 69.7 34.845 70.1333 35.005 70.64C35.1783 71.1467 35.265 71.7267 35.265 72.38H33.485C33.485 71.7667 33.3983 71.2667 33.225 70.88C33.065 70.48 32.805 70.1867 32.445 70C32.085 69.8 31.6117 69.7 31.025 69.7C30.4383 69.7 29.9317 69.8333 29.505 70.1C29.0783 70.3533 28.7517 70.76 28.525 71.32C28.2983 71.88 28.185 72.62 28.185 73.54V73.96C28.185 74.8267 28.2917 75.5467 28.505 76.12C28.7317 76.6933 29.0583 77.1133 29.485 77.38C29.9117 77.6467 30.4317 77.78 31.045 77.78C31.645 77.78 32.125 77.6733 32.485 77.46C32.8583 77.2467 33.125 76.94 33.285 76.54C33.4583 76.14 33.545 75.66 33.545 75.1H35.265C35.265 75.6867 35.1783 76.2333 35.005 76.74C34.845 77.2467 34.5917 77.6867 34.245 78.06C33.8983 78.4333 33.4583 78.7267 32.925 78.94C32.3917 79.14 31.7517 79.24 31.005 79.24ZM37.3761 79V64.54H39.1361V73.58L43.5961 68.48H45.6761L42.0761 72.56L45.8761 79H43.8561L40.9361 73.86L39.1361 75.68V79H37.3761ZM49.8208 79.24C49.4341 79.24 49.0474 79.1933 48.6608 79.1C48.2741 79.0067 47.9141 78.8533 47.5808 78.64C47.2474 78.4267 46.9808 78.1333 46.7808 77.76C46.5808 77.3733 46.4808 76.8933 46.4808 76.32C46.4808 75.6 46.6541 75.0067 47.0008 74.54C47.3474 74.0733 47.8274 73.7133 48.4408 73.46C49.0674 73.1933 49.8074 73.0133 50.6608 72.92C51.5141 72.8133 52.4408 72.76 53.4408 72.76V71.56C53.4408 71.1733 53.3741 70.84 53.2408 70.56C53.1074 70.28 52.8674 70.0667 52.5208 69.92C52.1874 69.76 51.7074 69.68 51.0808 69.68C50.4808 69.68 50.0008 69.76 49.6408 69.92C49.2941 70.0667 49.0474 70.26 48.9008 70.5C48.7674 70.74 48.7008 71.0067 48.7008 71.3V71.6H47.0008C46.9874 71.5333 46.9808 71.4667 46.9808 71.4C46.9808 71.3333 46.9808 71.2533 46.9808 71.16C46.9808 70.52 47.1541 69.9867 47.5008 69.56C47.8608 69.12 48.3608 68.7933 49.0008 68.58C49.6408 68.3533 50.3741 68.24 51.2008 68.24C52.0808 68.24 52.8141 68.3667 53.4008 68.62C54.0008 68.8733 54.4474 69.2333 54.7408 69.7C55.0474 70.1667 55.2008 70.7267 55.2008 71.38V77.08C55.2008 77.3333 55.2608 77.5133 55.3808 77.62C55.5008 77.7133 55.6474 77.76 55.8208 77.76H56.6008V78.92C56.4141 79 56.2074 79.0667 55.9808 79.12C55.7541 79.1867 55.4941 79.22 55.2008 79.22C54.8541 79.22 54.5674 79.1467 54.3408 79C54.1141 78.8667 53.9408 78.68 53.8208 78.44C53.7008 78.1867 53.6208 77.9067 53.5808 77.6H53.4408C53.2008 77.9333 52.8941 78.2267 52.5208 78.48C52.1608 78.72 51.7541 78.9067 51.3008 79.04C50.8474 79.1733 50.3541 79.24 49.8208 79.24ZM50.2608 77.76C50.6874 77.76 51.0874 77.6933 51.4608 77.56C51.8474 77.4267 52.1874 77.24 52.4808 77C52.7741 76.7467 53.0074 76.4467 53.1808 76.1C53.3541 75.7533 53.4408 75.3733 53.4408 74.96V74.08C52.3608 74.08 51.4408 74.14 50.6808 74.26C49.9208 74.38 49.3341 74.5933 48.9208 74.9C48.5208 75.2067 48.3208 75.64 48.3208 76.2C48.3208 76.56 48.4008 76.8533 48.5608 77.08C48.7208 77.3067 48.9474 77.48 49.2408 77.6C49.5341 77.7067 49.8741 77.76 50.2608 77.76ZM60.5392 79.24C59.9926 79.24 59.5659 79.14 59.2592 78.94C58.9526 78.7267 58.7326 78.4533 58.5992 78.12C58.4659 77.7733 58.3992 77.4067 58.3992 77.02V69.96H57.0392V68.48H58.4392L58.7592 65.54H60.1592V68.48H62.1392V69.96H60.1592V76.76C60.1592 77.0933 60.2192 77.3467 60.3392 77.52C60.4592 77.68 60.6859 77.76 61.0192 77.76H62.1392V78.92C62.0059 78.9867 61.8459 79.04 61.6592 79.08C61.4726 79.12 61.2792 79.1533 61.0792 79.18C60.8926 79.22 60.7126 79.24 60.5392 79.24ZM64.0167 79V64.54H65.7767V69.8H65.9167C66.1834 69.44 66.4834 69.1467 66.8167 68.92C67.1501 68.6933 67.5167 68.5267 67.9167 68.42C68.3301 68.3 68.7767 68.24 69.2567 68.24C69.9234 68.24 70.5034 68.3533 70.9967 68.58C71.5034 68.8067 71.8967 69.1733 72.1767 69.68C72.4701 70.1867 72.6167 70.8733 72.6167 71.74V79H70.8567V71.98C70.8567 71.54 70.7967 71.18 70.6767 70.9C70.5701 70.62 70.4167 70.4 70.2167 70.24C70.0301 70.08 69.7967 69.9667 69.5167 69.9C69.2501 69.8333 68.9501 69.8 68.6167 69.8C68.1234 69.8 67.6567 69.92 67.2167 70.16C66.7767 70.3867 66.4234 70.7267 66.1567 71.18C65.9034 71.62 65.7767 72.1667 65.7767 72.82V79H64.0167ZM79.6063 79.24C78.5396 79.24 77.6396 79.0467 76.9063 78.66C76.1863 78.26 75.6329 77.6533 75.2463 76.84C74.8729 76.0267 74.6863 74.9933 74.6863 73.74C74.6863 72.4733 74.8729 71.44 75.2463 70.64C75.6329 69.8267 76.1863 69.2267 76.9063 68.84C77.6396 68.44 78.5396 68.24 79.6063 68.24C80.6729 68.24 81.5663 68.44 82.2863 68.84C83.0196 69.2267 83.5729 69.8267 83.9463 70.64C84.3196 71.44 84.5063 72.4733 84.5063 73.74C84.5063 74.9933 84.3196 76.0267 83.9463 76.84C83.5729 77.6533 83.0196 78.26 82.2863 78.66C81.5663 79.0467 80.6729 79.24 79.6063 79.24ZM79.6063 77.76C80.2863 77.76 80.8529 77.6267 81.3063 77.36C81.7596 77.0933 82.0996 76.68 82.3263 76.12C82.5663 75.5467 82.6863 74.8267 82.6863 73.96V73.52C82.6863 72.64 82.5663 71.92 82.3263 71.36C82.0996 70.8 81.7596 70.3867 81.3063 70.12C80.8529 69.8533 80.2863 69.72 79.6063 69.72C78.9263 69.72 78.3529 69.8533 77.8863 70.12C77.4329 70.3867 77.0929 70.8 76.8663 71.36C76.6396 71.92 76.5263 72.64 76.5263 73.52V73.96C76.5263 74.8267 76.6396 75.5467 76.8663 76.12C77.0929 76.68 77.4329 77.0933 77.8863 77.36C78.3529 77.6267 78.9263 77.76 79.6063 77.76ZM86.6925 79V68.48H88.1125L88.2725 70.06H88.4125C88.6925 69.6333 89.0058 69.2867 89.3525 69.02C89.7125 68.7533 90.1058 68.56 90.5325 68.44C90.9725 68.3067 91.4392 68.24 91.9325 68.24C92.5992 68.24 93.1792 68.3533 93.6725 68.58C94.1792 68.8067 94.5725 69.1733 94.8525 69.68C95.1458 70.1867 95.2925 70.8733 95.2925 71.74V79H93.5325V71.98C93.5325 71.54 93.4725 71.18 93.3525 70.9C93.2458 70.62 93.0925 70.4 92.8925 70.24C92.7058 70.08 92.4725 69.9667 92.1925 69.9C91.9258 69.8333 91.6258 69.8 91.2925 69.8C90.7992 69.8 90.3325 69.92 89.8925 70.16C89.4525 70.4 89.0992 70.7467 88.8325 71.2C88.5792 71.6533 88.4525 72.1933 88.4525 72.82V79H86.6925ZM0 98.3V96.88H20V98.3H0Z" fill="#5400FF"/>
</svg>
