<svg width="118" height="99" viewBox="0 0 118 99" fill="none" xmlns="http://www.w3.org/2000/svg">
<path d="M0 2.36V0.839999H22.5V2.36H0ZM8.68 31.24C7.08 31.24 5.72667 30.98 4.62 30.46C3.52667 29.9267 2.7 29.1333 2.14 28.08C1.58 27.0267 1.3 25.7133 1.3 24.14C1.3 21.8067 1.94 20.04 3.22 18.84C4.5 17.64 6.31333 17.04 8.66 17.04C10.02 17.04 11.2133 17.2333 12.24 17.62C13.28 18.0067 14.0867 18.5933 14.66 19.38C15.2467 20.1533 15.54 21.1267 15.54 22.3H13.52C13.52 21.4867 13.3133 20.82 12.9 20.3C12.5 19.78 11.9333 19.4 11.2 19.16C10.48 18.9067 9.62667 18.78 8.64 18.78C7.58667 18.78 6.66 18.9667 5.86 19.34C5.07333 19.7 4.46667 20.26 4.04 21.02C3.61333 21.78 3.4 22.7467 3.4 23.92V24.38C3.4 25.5667 3.61333 26.54 4.04 27.3C4.48 28.0467 5.09333 28.6 5.88 28.96C6.68 29.32 7.62 29.5 8.7 29.5C9.68667 29.5 10.54 29.38 11.26 29.14C11.9933 28.8867 12.56 28.5 12.96 27.98C13.36 27.46 13.56 26.8 13.56 26H15.56C15.56 27.1733 15.26 28.1467 14.66 28.92C14.0733 29.6933 13.2667 30.2733 12.24 30.66C11.2133 31.0467 10.0267 31.24 8.68 31.24ZM23.2173 31.24C22.0307 31.24 21.0307 31.04 20.2173 30.64C19.404 30.2267 18.784 29.6133 18.3573 28.8C17.944 27.9867 17.7373 26.9667 17.7373 25.74C17.7373 24.5 17.944 23.4733 18.3573 22.66C18.784 21.8467 19.404 21.24 20.2173 20.84C21.0307 20.44 22.0307 20.24 23.2173 20.24C24.404 20.24 25.3973 20.44 26.1973 20.84C27.0107 21.24 27.624 21.8467 28.0373 22.66C28.464 23.4733 28.6773 24.5 28.6773 25.74C28.6773 26.9667 28.464 27.9867 28.0373 28.8C27.624 29.6133 27.0107 30.2267 26.1973 30.64C25.3973 31.04 24.404 31.24 23.2173 31.24ZM23.2173 29.72C23.9507 29.72 24.5773 29.5867 25.0973 29.32C25.6307 29.0533 26.0373 28.64 26.3173 28.08C26.5973 27.52 26.7373 26.8067 26.7373 25.94V25.52C26.7373 24.64 26.5973 23.9267 26.3173 23.38C26.0373 22.8333 25.6307 22.4267 25.0973 22.16C24.5773 21.8933 23.9507 21.76 23.2173 21.76C22.484 21.76 21.8507 21.8933 21.3173 22.16C20.784 22.4267 20.3773 22.8333 20.0973 23.38C19.8173 23.9267 19.6773 24.64 19.6773 25.52V25.94C19.6773 26.8067 19.8173 27.52 20.0973 28.08C20.3773 28.64 20.784 29.0533 21.3173 29.32C21.8507 29.5867 22.484 29.72 23.2173 29.72ZM31.1084 31V20.48H32.5884L32.7484 22.18H32.9084C33.2418 21.7 33.6218 21.32 34.0484 21.04C34.4884 20.7467 34.9484 20.54 35.4284 20.42C35.9218 20.3 36.4151 20.24 36.9084 20.24C37.7218 20.24 38.4151 20.3667 38.9884 20.62C39.5618 20.8733 40.0018 21.2733 40.3084 21.82C40.6151 22.3667 40.7684 23.0933 40.7684 24V31H38.8884V24.3C38.8884 23.7933 38.8218 23.38 38.6884 23.06C38.5684 22.74 38.3951 22.4933 38.1684 22.32C37.9418 22.1467 37.6684 22.0267 37.3484 21.96C37.0284 21.88 36.6751 21.84 36.2884 21.84C35.7284 21.84 35.1884 21.9733 34.6684 22.24C34.1618 22.4933 33.7484 22.8533 33.4284 23.32C33.1218 23.7867 32.9684 24.3467 32.9684 25V31H31.1084ZM44.2294 31V22H42.3894V20.48H44.2294V18.96C44.2294 18.4933 44.3027 18.0667 44.4494 17.68C44.6094 17.28 44.876 16.96 45.2494 16.72C45.636 16.48 46.156 16.36 46.8094 16.36C47.0227 16.36 47.236 16.3733 47.4494 16.4C47.6627 16.4133 47.8627 16.44 48.0494 16.48C48.236 16.5067 48.4094 16.5467 48.5694 16.6V17.88H47.3494C46.9094 17.88 46.5894 17.9733 46.3894 18.16C46.1894 18.3333 46.0894 18.6067 46.0894 18.98V20.48H48.5694V22H46.0894V31H44.2294ZM55.0528 31.24C53.8928 31.24 52.9061 31.0467 52.0928 30.66C51.2795 30.26 50.6595 29.6533 50.2328 28.84C49.8061 28.0267 49.5928 26.9933 49.5928 25.74C49.5928 24.5 49.7995 23.4733 50.2128 22.66C50.6395 21.8467 51.2595 21.24 52.0728 20.84C52.8861 20.44 53.8795 20.24 55.0528 20.24C56.2261 20.24 57.1995 20.44 57.9728 20.84C58.7461 21.24 59.3261 21.82 59.7128 22.58C60.0995 23.3267 60.2928 24.2333 60.2928 25.3V26.22H51.5328C51.5595 27.06 51.7128 27.74 51.9928 28.26C52.2861 28.78 52.6995 29.16 53.2328 29.4C53.7661 29.6267 54.3928 29.74 55.1128 29.74C55.6061 29.74 56.0461 29.68 56.4328 29.56C56.8195 29.4267 57.1528 29.26 57.4328 29.06C57.7128 28.8467 57.9328 28.6 58.0928 28.32C58.2661 28.04 58.3595 27.74 58.3728 27.42H60.2128C60.1995 27.94 60.0861 28.4333 59.8728 28.9C59.6595 29.3533 59.3395 29.76 58.9128 30.12C58.4861 30.4667 57.9461 30.74 57.2928 30.94C56.6528 31.14 55.9061 31.24 55.0528 31.24ZM51.5528 24.84H58.3328C58.3328 24.2667 58.2461 23.7867 58.0728 23.4C57.8995 23 57.6595 22.68 57.3528 22.44C57.0461 22.1867 56.6928 22.0067 56.2928 21.9C55.9061 21.7933 55.4795 21.74 55.0128 21.74C54.3461 21.74 53.7595 21.8533 53.2528 22.08C52.7595 22.2933 52.3661 22.6333 52.0728 23.1C51.7795 23.5533 51.6061 24.1333 51.5528 24.84ZM62.71 31V20.48H64.21L64.35 22.32H64.49C64.5967 22 64.7567 21.68 64.97 21.36C65.1833 21.04 65.4767 20.7733 65.85 20.56C66.2233 20.3467 66.6767 20.24 67.21 20.24C67.41 20.24 67.61 20.2533 67.81 20.28C68.01 20.3067 68.17 20.3467 68.29 20.4V22.06H67.43C66.8967 22.06 66.45 22.1533 66.09 22.34C65.73 22.5267 65.4367 22.7867 65.21 23.12C64.9833 23.44 64.8167 23.8 64.71 24.2C64.6167 24.6 64.57 25.0067 64.57 25.42V31H62.71ZM74.7794 31.24C73.6194 31.24 72.6327 31.0467 71.8194 30.66C71.006 30.26 70.386 29.6533 69.9594 28.84C69.5327 28.0267 69.3194 26.9933 69.3194 25.74C69.3194 24.5 69.526 23.4733 69.9394 22.66C70.366 21.8467 70.986 21.24 71.7994 20.84C72.6127 20.44 73.606 20.24 74.7794 20.24C75.9527 20.24 76.926 20.44 77.6994 20.84C78.4727 21.24 79.0527 21.82 79.4394 22.58C79.826 23.3267 80.0194 24.2333 80.0194 25.3V26.22H71.2594C71.286 27.06 71.4394 27.74 71.7194 28.26C72.0127 28.78 72.426 29.16 72.9594 29.4C73.4927 29.6267 74.1194 29.74 74.8394 29.74C75.3327 29.74 75.7727 29.68 76.1594 29.56C76.546 29.4267 76.8794 29.26 77.1594 29.06C77.4394 28.8467 77.6594 28.6 77.8194 28.32C77.9927 28.04 78.086 27.74 78.0994 27.42H79.9394C79.926 27.94 79.8127 28.4333 79.5994 28.9C79.386 29.3533 79.066 29.76 78.6394 30.12C78.2127 30.4667 77.6727 30.74 77.0194 30.94C76.3794 31.14 75.6327 31.24 74.7794 31.24ZM71.2794 24.84H78.0594C78.0594 24.2667 77.9727 23.7867 77.7994 23.4C77.626 23 77.386 22.68 77.0794 22.44C76.7727 22.1867 76.4194 22.0067 76.0194 21.9C75.6327 21.7933 75.206 21.74 74.7394 21.74C74.0727 21.74 73.486 21.8533 72.9794 22.08C72.486 22.2933 72.0927 22.6333 71.7994 23.1C71.506 23.5533 71.3327 24.1333 71.2794 24.84ZM82.4366 31V20.48H83.9166L84.0766 22.18H84.2366C84.5699 21.7 84.9499 21.32 85.3766 21.04C85.8166 20.7467 86.2766 20.54 86.7566 20.42C87.2499 20.3 87.7432 20.24 88.2366 20.24C89.0499 20.24 89.7432 20.3667 90.3166 20.62C90.8899 20.8733 91.3299 21.2733 91.6366 21.82C91.9432 22.3667 92.0966 23.0933 92.0966 24V31H90.2166V24.3C90.2166 23.7933 90.1499 23.38 90.0166 23.06C89.8966 22.74 89.7232 22.4933 89.4966 22.32C89.2699 22.1467 88.9966 22.0267 88.6766 21.96C88.3566 21.88 88.0032 21.84 87.6166 21.84C87.0566 21.84 86.5166 21.9733 85.9966 22.24C85.4899 22.4933 85.0766 22.8533 84.7566 23.32C84.4499 23.7867 84.2966 24.3467 84.2966 25V31H82.4366ZM99.7175 31.24C98.5442 31.24 97.5575 31.04 96.7575 30.64C95.9708 30.2267 95.3775 29.6133 94.9775 28.8C94.5775 27.9867 94.3775 26.9667 94.3775 25.74C94.3775 24.5133 94.5775 23.4933 94.9775 22.68C95.3775 21.8667 95.9775 21.26 96.7775 20.86C97.5775 20.4467 98.5642 20.24 99.7375 20.24C100.498 20.24 101.171 20.3333 101.758 20.52C102.358 20.6933 102.871 20.96 103.298 21.32C103.724 21.68 104.044 22.12 104.258 22.64C104.484 23.1467 104.598 23.74 104.598 24.42H102.718C102.718 23.8067 102.591 23.3067 102.338 22.92C102.084 22.52 101.731 22.2267 101.278 22.04C100.838 21.8533 100.318 21.76 99.7175 21.76C99.0375 21.76 98.4375 21.8933 97.9175 22.16C97.4108 22.4133 97.0175 22.8133 96.7375 23.36C96.4575 23.9067 96.3175 24.6333 96.3175 25.54V25.94C96.3175 26.8067 96.4508 27.52 96.7175 28.08C96.9975 28.64 97.3975 29.0533 97.9175 29.32C98.4375 29.5867 99.0508 29.72 99.7575 29.72C100.358 29.72 100.884 29.62 101.338 29.42C101.791 29.22 102.144 28.92 102.398 28.52C102.651 28.12 102.778 27.6333 102.778 27.06H104.598C104.598 27.7 104.484 28.28 104.258 28.8C104.031 29.32 103.704 29.76 103.278 30.12C102.864 30.48 102.358 30.76 101.758 30.96C101.158 31.1467 100.478 31.24 99.7175 31.24ZM111.967 31.24C110.807 31.24 109.82 31.0467 109.007 30.66C108.194 30.26 107.574 29.6533 107.147 28.84C106.72 28.0267 106.507 26.9933 106.507 25.74C106.507 24.5 106.714 23.4733 107.127 22.66C107.554 21.8467 108.174 21.24 108.987 20.84C109.8 20.44 110.794 20.24 111.967 20.24C113.14 20.24 114.114 20.44 114.887 20.84C115.66 21.24 116.24 21.82 116.627 22.58C117.014 23.3267 117.207 24.2333 117.207 25.3V26.22H108.447C108.474 27.06 108.627 27.74 108.907 28.26C109.2 28.78 109.614 29.16 110.147 29.4C110.68 29.6267 111.307 29.74 112.027 29.74C112.52 29.74 112.96 29.68 113.347 29.56C113.734 29.4267 114.067 29.26 114.347 29.06C114.627 28.8467 114.847 28.6 115.007 28.32C115.18 28.04 115.274 27.74 115.287 27.42H117.127C117.114 27.94 117 28.4333 116.787 28.9C116.574 29.3533 116.254 29.76 115.827 30.12C115.4 30.4667 114.86 30.74 114.207 30.94C113.567 31.14 112.82 31.24 111.967 31.24ZM108.467 24.84H115.247C115.247 24.2667 115.16 23.7867 114.987 23.4C114.814 23 114.574 22.68 114.267 22.44C113.96 22.1867 113.607 22.0067 113.207 21.9C112.82 21.7933 112.394 21.74 111.927 21.74C111.26 21.74 110.674 21.8533 110.167 22.08C109.674 22.2933 109.28 22.6333 108.987 23.1C108.694 23.5533 108.52 24.1333 108.467 24.84ZM0 50.36V48.84H22.5V50.36H0ZM1.94 79V65.28H3.98V71.1H12.84V65.28H14.88V79H12.84V72.88H3.98V79H1.94ZM21.5169 79.24C21.0235 79.24 20.5502 79.1867 20.0969 79.08C19.6435 78.9867 19.2302 78.8333 18.8569 78.62C18.4969 78.3933 18.2102 78.0933 17.9969 77.72C17.7969 77.3333 17.6969 76.8533 17.6969 76.28C17.6969 75.4933 17.9035 74.8667 18.3169 74.4C18.7302 73.92 19.3035 73.5667 20.0369 73.34C20.7835 73.1 21.6502 72.9467 22.6369 72.88C23.6369 72.8 24.7169 72.76 25.8769 72.76V71.86C25.8769 71.3667 25.7835 70.9667 25.5969 70.66C25.4235 70.34 25.1235 70.1067 24.6969 69.96C24.2702 69.8133 23.6702 69.74 22.8969 69.74C22.2302 69.74 21.6835 69.8133 21.2569 69.96C20.8302 70.0933 20.5169 70.28 20.3169 70.52C20.1169 70.7467 20.0169 71 20.0169 71.28V71.62H18.1969C18.1835 71.5533 18.1769 71.4933 18.1769 71.44C18.1769 71.3733 18.1769 71.2933 18.1769 71.2C18.1769 70.5733 18.3702 70.04 18.7569 69.6C19.1435 69.1467 19.7035 68.8067 20.4369 68.58C21.1702 68.3533 22.0502 68.24 23.0769 68.24C24.1035 68.24 24.9569 68.36 25.6369 68.6C26.3302 68.84 26.8502 69.2067 27.1969 69.7C27.5569 70.1933 27.7369 70.8333 27.7369 71.62V76.98C27.7369 77.2467 27.7902 77.44 27.8969 77.56C28.0035 77.6667 28.1635 77.72 28.3769 77.72H29.2769V78.94C29.0769 79.0067 28.8435 79.0667 28.5769 79.12C28.3235 79.1867 28.0502 79.22 27.7569 79.22C27.3302 79.22 26.9902 79.1467 26.7369 79C26.4969 78.8533 26.3169 78.6467 26.1969 78.38C26.0902 78.1133 26.0169 77.82 25.9769 77.5H25.8369C25.5302 77.86 25.1502 78.1733 24.6969 78.44C24.2435 78.7067 23.7435 78.9067 23.1969 79.04C22.6635 79.1733 22.1035 79.24 21.5169 79.24ZM21.9169 77.72C22.3969 77.72 22.8702 77.6533 23.3369 77.52C23.8035 77.3867 24.2235 77.2 24.5969 76.96C24.9835 76.72 25.2902 76.4333 25.5169 76.1C25.7569 75.7533 25.8769 75.3733 25.8769 74.96V74.1C24.5169 74.1 23.3702 74.16 22.4369 74.28C21.5035 74.3867 20.7969 74.5933 20.3169 74.9C19.8502 75.1933 19.6169 75.6267 19.6169 76.2C19.6169 76.5733 19.7169 76.8733 19.9169 77.1C20.1302 77.3133 20.4102 77.4733 20.7569 77.58C21.1169 77.6733 21.5035 77.72 21.9169 77.72ZM35.6159 79.24C34.4426 79.24 33.4559 79.04 32.6559 78.64C31.8693 78.2267 31.2759 77.6133 30.8759 76.8C30.4759 75.9867 30.2759 74.9667 30.2759 73.74C30.2759 72.5133 30.4759 71.4933 30.8759 70.68C31.2759 69.8667 31.8759 69.26 32.6759 68.86C33.4759 68.4467 34.4626 68.24 35.6359 68.24C36.3959 68.24 37.0693 68.3333 37.6559 68.52C38.2559 68.6933 38.7693 68.96 39.1959 69.32C39.6226 69.68 39.9426 70.12 40.1559 70.64C40.3826 71.1467 40.4959 71.74 40.4959 72.42H38.6159C38.6159 71.8067 38.4893 71.3067 38.2359 70.92C37.9826 70.52 37.6293 70.2267 37.1759 70.04C36.7359 69.8533 36.2159 69.76 35.6159 69.76C34.9359 69.76 34.3359 69.8933 33.8159 70.16C33.3093 70.4133 32.9159 70.8133 32.6359 71.36C32.3559 71.9067 32.2159 72.6333 32.2159 73.54V73.94C32.2159 74.8067 32.3493 75.52 32.6159 76.08C32.8959 76.64 33.2959 77.0533 33.8159 77.32C34.3359 77.5867 34.9493 77.72 35.6559 77.72C36.2559 77.72 36.7826 77.62 37.2359 77.42C37.6893 77.22 38.0426 76.92 38.2959 76.52C38.5493 76.12 38.6759 75.6333 38.6759 75.06H40.4959C40.4959 75.7 40.3826 76.28 40.1559 76.8C39.9293 77.32 39.6026 77.76 39.1759 78.12C38.7626 78.48 38.2559 78.76 37.6559 78.96C37.0559 79.1467 36.3759 79.24 35.6159 79.24ZM42.9053 79V64.54H44.7653V73.72L50.0853 68.48H52.3853L48.3053 72.58L52.5853 79H50.3853L46.9853 73.82L44.7653 75.78V79H42.9053ZM57.2395 79.24C56.7462 79.24 56.2729 79.1867 55.8195 79.08C55.3662 78.9867 54.9529 78.8333 54.5795 78.62C54.2195 78.3933 53.9329 78.0933 53.7195 77.72C53.5195 77.3333 53.4195 76.8533 53.4195 76.28C53.4195 75.4933 53.6262 74.8667 54.0395 74.4C54.4529 73.92 55.0262 73.5667 55.7595 73.34C56.5062 73.1 57.3729 72.9467 58.3595 72.88C59.3595 72.8 60.4395 72.76 61.5995 72.76V71.86C61.5995 71.3667 61.5062 70.9667 61.3195 70.66C61.1462 70.34 60.8462 70.1067 60.4195 69.96C59.9929 69.8133 59.3929 69.74 58.6195 69.74C57.9529 69.74 57.4062 69.8133 56.9795 69.96C56.5529 70.0933 56.2395 70.28 56.0395 70.52C55.8395 70.7467 55.7395 71 55.7395 71.28V71.62H53.9195C53.9062 71.5533 53.8995 71.4933 53.8995 71.44C53.8995 71.3733 53.8995 71.2933 53.8995 71.2C53.8995 70.5733 54.0929 70.04 54.4795 69.6C54.8662 69.1467 55.4262 68.8067 56.1595 68.58C56.8929 68.3533 57.7729 68.24 58.7995 68.24C59.8262 68.24 60.6795 68.36 61.3595 68.6C62.0529 68.84 62.5729 69.2067 62.9195 69.7C63.2795 70.1933 63.4595 70.8333 63.4595 71.62V76.98C63.4595 77.2467 63.5129 77.44 63.6195 77.56C63.7262 77.6667 63.8862 77.72 64.0995 77.72H64.9995V78.94C64.7995 79.0067 64.5662 79.0667 64.2995 79.12C64.0462 79.1867 63.7729 79.22 63.4795 79.22C63.0529 79.22 62.7129 79.1467 62.4595 79C62.2195 78.8533 62.0395 78.6467 61.9195 78.38C61.8129 78.1133 61.7395 77.82 61.6995 77.5H61.5595C61.2529 77.86 60.8729 78.1733 60.4195 78.44C59.9662 78.7067 59.4662 78.9067 58.9195 79.04C58.3862 79.1733 57.8262 79.24 57.2395 79.24ZM57.6395 77.72C58.1195 77.72 58.5929 77.6533 59.0595 77.52C59.5262 77.3867 59.9462 77.2 60.3195 76.96C60.7062 76.72 61.0129 76.4333 61.2395 76.1C61.4795 75.7533 61.5995 75.3733 61.5995 74.96V74.1C60.2395 74.1 59.0929 74.16 58.1595 74.28C57.2262 74.3867 56.5195 74.5933 56.0395 74.9C55.5729 75.1933 55.3395 75.6267 55.3395 76.2C55.3395 76.5733 55.4395 76.8733 55.6395 77.1C55.8529 77.3133 56.1329 77.4733 56.4795 77.58C56.8395 77.6733 57.2262 77.72 57.6395 77.72ZM69.4986 79.24C68.9253 79.24 68.4653 79.1467 68.1186 78.96C67.7719 78.76 67.5186 78.4733 67.3586 78.1C67.1986 77.7267 67.1186 77.2733 67.1186 76.74V70H65.4386V68.48H67.1586L67.5186 65.5H68.9786V68.48H71.3586V70H68.9786V76.46C68.9786 76.8733 69.0453 77.1867 69.1786 77.4C69.3119 77.6133 69.6119 77.72 70.0786 77.72H71.3586V78.92C71.1986 78.9867 71.0053 79.04 70.7786 79.08C70.5653 79.1333 70.3453 79.1733 70.1186 79.2C69.8919 79.2267 69.6853 79.24 69.4986 79.24ZM73.5303 79V64.54H75.3903V69.94H75.5103C75.8436 69.5133 76.2103 69.18 76.6103 68.94C77.0236 68.6867 77.457 68.5067 77.9103 68.4C78.377 68.2933 78.8503 68.24 79.3303 68.24C80.1436 68.24 80.837 68.3667 81.4103 68.62C81.9836 68.8733 82.4236 69.2733 82.7303 69.82C83.037 70.3667 83.1903 71.0933 83.1903 72V79H81.3103V72.3C81.3103 71.7933 81.2436 71.38 81.1103 71.06C80.9903 70.74 80.817 70.4933 80.5903 70.32C80.3636 70.1467 80.0903 70.0267 79.7703 69.96C79.4503 69.88 79.097 69.84 78.7103 69.84C78.1503 69.84 77.6103 69.9667 77.0903 70.22C76.5836 70.4733 76.1703 70.8333 75.8503 71.3C75.5436 71.7667 75.3903 72.3333 75.3903 73V79H73.5303ZM85.9913 79V64.54H87.8513V79H85.9913ZM95.7369 79.24C94.5502 79.24 93.5502 79.04 92.7369 78.64C91.9235 78.2267 91.3035 77.6133 90.8769 76.8C90.4635 75.9867 90.2569 74.9667 90.2569 73.74C90.2569 72.5 90.4635 71.4733 90.8769 70.66C91.3035 69.8467 91.9235 69.24 92.7369 68.84C93.5502 68.44 94.5502 68.24 95.7369 68.24C96.9235 68.24 97.9169 68.44 98.7169 68.84C99.5302 69.24 100.144 69.8467 100.557 70.66C100.984 71.4733 101.197 72.5 101.197 73.74C101.197 74.9667 100.984 75.9867 100.557 76.8C100.144 77.6133 99.5302 78.2267 98.7169 78.64C97.9169 79.04 96.9235 79.24 95.7369 79.24ZM95.7369 77.72C96.4702 77.72 97.0969 77.5867 97.6169 77.32C98.1502 77.0533 98.5569 76.64 98.8369 76.08C99.1169 75.52 99.2569 74.8067 99.2569 73.94V73.52C99.2569 72.64 99.1169 71.9267 98.8369 71.38C98.5569 70.8333 98.1502 70.4267 97.6169 70.16C97.0969 69.8933 96.4702 69.76 95.7369 69.76C95.0035 69.76 94.3702 69.8933 93.8369 70.16C93.3035 70.4267 92.8969 70.8333 92.6169 71.38C92.3369 71.9267 92.1969 72.64 92.1969 73.52V73.94C92.1969 74.8067 92.3369 75.52 92.6169 76.08C92.8969 76.64 93.3035 77.0533 93.8369 77.32C94.3702 77.5867 95.0035 77.72 95.7369 77.72ZM103.628 79V68.48H105.108L105.268 70.18H105.428C105.761 69.7 106.141 69.32 106.568 69.04C107.008 68.7467 107.468 68.54 107.948 68.42C108.441 68.3 108.935 68.24 109.428 68.24C110.241 68.24 110.935 68.3667 111.508 68.62C112.081 68.8733 112.521 69.2733 112.828 69.82C113.135 70.3667 113.288 71.0933 113.288 72V79H111.408V72.3C111.408 71.7933 111.341 71.38 111.208 71.06C111.088 70.74 110.915 70.4933 110.688 70.32C110.461 70.1467 110.188 70.0267 109.868 69.96C109.548 69.88 109.195 69.84 108.808 69.84C108.248 69.84 107.708 69.9733 107.188 70.24C106.681 70.4933 106.268 70.8533 105.948 71.32C105.641 71.7867 105.488 72.3467 105.488 73V79H103.628ZM0 98.36V96.84H22.5V98.36H0Z" fill="#5400FF"/>
</svg>
