<?xml version="1.0" encoding="utf-8"?>
<!-- Generator: Adobe Illustrator 15.0.2, SVG Export Plug-In . SVG Version: 6.00 Build 0)  -->
<!DOCTYPE svg PUBLIC "-//W3C//DTD SVG 1.1//EN" "http://www.w3.org/Graphics/SVG/1.1/DTD/svg11.dtd">
<svg version="1.1" id="Vrstva_1" xmlns="http://www.w3.org/2000/svg" xmlns:xlink="http://www.w3.org/1999/xlink" x="0px" y="0px"
	 width="139.294px" height="41.361px" viewBox="0 0 139.294 41.361" enable-background="new 0 0 139.294 41.361"
	 xml:space="preserve">
<g>
	<rect x="20.935" y="0.157" width="3.225" height="15.53"/>
	<path d="M35.241,4.862c0.751,0.622,1.126,1.652,1.126,3.093v7.733h-3.075V8.702c0-0.603-0.082-1.068-0.241-1.391
		c-0.293-0.589-0.851-0.884-1.672-0.884c-1.013,0-1.706,0.43-2.082,1.296c-0.195,0.456-0.293,1.038-0.293,1.747v6.218h-3.005V4.223
		h2.909V5.9c0.386-0.591,0.75-1.017,1.092-1.275c0.616-0.463,1.395-0.696,2.34-0.696C33.521,3.929,34.489,4.24,35.241,4.862"/>
	<path d="M40.519,12.021c0.062,0.535,0.2,0.913,0.413,1.138c0.373,0.401,1.065,0.6,2.074,0.6c0.594,0,1.064-0.088,1.412-0.263
		c0.352-0.176,0.525-0.439,0.525-0.79c0-0.337-0.141-0.594-0.422-0.769c-0.282-0.176-1.329-0.477-3.142-0.905
		c-1.305-0.324-2.224-0.727-2.758-1.212c-0.535-0.479-0.802-1.167-0.802-2.064c0-1.065,0.418-1.973,1.253-2.736
		c0.833-0.763,2.006-1.144,3.52-1.144c1.437,0,2.606,0.286,3.511,0.861c0.904,0.572,1.424,1.559,1.56,2.966h-3.004
		c-0.042-0.388-0.152-0.693-0.328-0.919c-0.331-0.407-0.895-0.61-1.69-0.61c-0.654,0-1.121,0.102-1.398,0.305
		c-0.28,0.204-0.418,0.442-0.418,0.717c0,0.343,0.146,0.593,0.444,0.748c0.294,0.162,1.339,0.438,3.134,0.831
		c1.197,0.281,2.094,0.707,2.689,1.275c0.593,0.578,0.887,1.298,0.887,2.161c0,1.138-0.424,2.066-1.274,2.787
		c-0.846,0.72-2.157,1.081-3.932,1.081c-1.808,0-3.144-0.381-4.005-1.145c-0.863-0.761-1.296-1.732-1.296-2.913H40.519z"/>
	<path d="M48.04,6.449V4.308h1.603V1.104h2.97v3.204h1.865v2.141h-1.865v6.066c0,0.473,0.061,0.766,0.179,0.88
		c0.118,0.116,0.484,0.175,1.097,0.175c0.091,0,0.188-0.001,0.29-0.005c0.101-0.004,0.201-0.009,0.3-0.015v2.243l-1.424,0.052
		c-1.417,0.051-2.388-0.197-2.907-0.737c-0.337-0.344-0.504-0.875-0.504-1.592V6.449H48.04z"/>
	<path d="M58.521,2.834h-3.046V0.063h3.046V2.834z M55.477,4.202h3.046v11.485h-3.046V4.202z"/>
	<path d="M59.279,6.449V4.308h1.602V1.104h2.97v3.204h1.865v2.141h-1.865v6.066c0,0.473,0.061,0.766,0.18,0.88
		c0.119,0.116,0.484,0.175,1.096,0.175c0.092,0,0.188-0.001,0.29-0.005c0.102-0.004,0.201-0.009,0.3-0.015v2.243l-1.423,0.052
		c-1.418,0.051-2.388-0.197-2.908-0.737c-0.336-0.344-0.504-0.875-0.504-1.592V6.449H59.279z"/>
	<path d="M69.666,4.203v6.923c0,0.654,0.076,1.144,0.229,1.475c0.273,0.583,0.809,0.875,1.605,0.875
		c1.019,0,1.718-0.415,2.096-1.243c0.196-0.451,0.293-1.045,0.293-1.781V4.203h3.046v11.485h-2.918v-1.623
		c-0.029,0.036-0.099,0.141-0.21,0.317c-0.113,0.176-0.246,0.331-0.4,0.463c-0.47,0.421-0.923,0.71-1.359,0.865
		c-0.439,0.153-0.953,0.231-1.54,0.231c-1.696,0-2.836-0.612-3.425-1.833c-0.33-0.675-0.494-1.668-0.494-2.982V4.203H69.666z"/>
	<path d="M77.703,6.449V4.308h1.602V1.104h2.97v3.204h1.865v2.141h-1.865v6.066c0,0.473,0.062,0.766,0.181,0.88
		c0.119,0.116,0.483,0.175,1.096,0.175c0.091,0,0.187-0.001,0.289-0.005c0.103-0.004,0.203-0.009,0.3-0.015v2.243l-1.421,0.052
		c-1.419,0.051-2.388-0.197-2.908-0.737c-0.338-0.344-0.506-0.875-0.506-1.592V6.449H77.703z"/>
	<path d="M92.581,4.436c0.801,0.358,1.463,0.925,1.985,1.699c0.47,0.683,0.774,1.474,0.915,2.374
		c0.079,0.529,0.112,1.287,0.098,2.279h-8.365c0.047,1.154,0.448,1.959,1.202,2.424c0.459,0.289,1.01,0.432,1.656,0.432
		c0.683,0,1.237-0.175,1.667-0.527c0.232-0.188,0.438-0.454,0.619-0.79h3.063c-0.081,0.682-0.452,1.373-1.112,2.077
		c-1.028,1.115-2.469,1.675-4.319,1.675c-1.529,0-2.878-0.473-4.047-1.412c-1.167-0.944-1.752-2.477-1.752-4.6
		c0-1.99,0.526-3.515,1.582-4.577c1.055-1.061,2.423-1.591,4.107-1.591C90.88,3.898,91.78,4.076,92.581,4.436 M88.089,7.03
		c-0.424,0.437-0.69,1.029-0.8,1.776h5.174c-0.056-0.794-0.322-1.4-0.801-1.813c-0.479-0.412-1.072-0.619-1.781-0.619
		C89.111,6.374,88.513,6.593,88.089,7.03"/>
	<path d="M110.729,14.284c-0.969,1.196-2.441,1.795-4.414,1.795s-3.444-0.599-4.416-1.795c-0.968-1.197-1.453-2.638-1.453-4.322
		c0-1.656,0.485-3.092,1.453-4.305c0.972-1.216,2.443-1.822,4.416-1.822s3.445,0.606,4.414,1.822
		c0.971,1.213,1.454,2.649,1.454,4.305C112.183,11.646,111.699,13.086,110.729,14.284 M108.327,12.624
		c0.472-0.624,0.705-1.511,0.705-2.662c0-1.15-0.233-2.036-0.705-2.656c-0.471-0.622-1.146-0.932-2.022-0.932
		c-0.879,0-1.555,0.31-2.029,0.932c-0.474,0.62-0.711,1.506-0.711,2.656c0,1.151,0.237,2.038,0.711,2.662
		c0.475,0.625,1.15,0.937,2.029,0.937C107.182,13.561,107.856,13.249,108.327,12.624"/>
	<path d="M118.112,0.015c0.154,0.01,0.366,0.027,0.631,0.048v2.445c-0.167-0.022-0.449-0.036-0.847-0.048
		c-0.398-0.011-0.671,0.077-0.824,0.263c-0.147,0.186-0.224,0.391-0.224,0.617v0.968h1.971v2.119h-1.971v9.26h-2.982v-9.26h-1.687
		V4.308h1.645V3.571c0-1.228,0.207-2.076,0.621-2.54C114.882,0.343,115.931,0,117.597,0C117.786,0,117.958,0.004,118.112,0.015"/>
	<path d="M2.157,18.694c1.252-1.278,2.842-1.917,4.775-1.917c2.584,0,4.475,0.857,5.67,2.573c0.661,0.96,1.014,1.925,1.063,2.896
		h-3.247C10.213,21.5,9.948,20.94,9.626,20.56c-0.58-0.675-1.436-1.011-2.57-1.011c-1.156,0-2.069,0.477-2.736,1.429
		c-0.667,0.95-1,2.296-1,4.039c0,1.74,0.352,3.047,1.056,3.915c0.704,0.868,1.599,1.301,2.686,1.301
		c1.113,0,1.962-0.373,2.545-1.117c0.324-0.401,0.592-1.001,0.805-1.803h3.224c-0.277,1.694-0.989,3.07-2.132,4.132
		c-1.143,1.059-2.608,1.591-4.393,1.591c-2.21,0-3.948-0.716-5.212-2.152C0.632,29.446,0,27.471,0,24.964
		C0,22.253,0.719,20.163,2.157,18.694"/>
	<path d="M21.424,20.849c0.037,0.004,0.125,0.009,0.258,0.016v3.078c-0.19-0.022-0.358-0.035-0.505-0.043
		c-0.148-0.007-0.269-0.01-0.359-0.01c-1.207,0-2.019,0.393-2.434,1.18c-0.229,0.442-0.348,1.124-0.348,2.046v5.486h-3.024V21.117
		h2.867v2.002c0.463-0.763,0.865-1.287,1.211-1.569c0.562-0.469,1.291-0.705,2.191-0.705C21.338,20.845,21.386,20.846,21.424,20.849
		"/>
	<path d="M22.924,34.805l0.379,0.021c0.296,0.015,0.576,0.004,0.844-0.032c0.267-0.035,0.491-0.117,0.674-0.241
		c0.176-0.121,0.338-0.37,0.49-0.748c0.152-0.381,0.216-0.612,0.196-0.696l-4.222-11.992h3.34l2.508,8.472l2.371-8.472h3.192
		l-3.938,11.297c-0.761,2.177-1.362,3.528-1.807,4.051c-0.441,0.522-1.329,0.784-2.656,0.784c-0.269,0-0.482-0.001-0.646-0.004
		c-0.16-0.004-0.403-0.017-0.727-0.039V34.805z"/>
	<path d="M43.157,22.351c0.938,0.99,1.406,2.445,1.406,4.361c0,2.023-0.458,3.566-1.375,4.627c-0.914,1.06-2.095,1.59-3.536,1.59
		c-0.919,0-1.682-0.229-2.29-0.685c-0.332-0.253-0.656-0.622-0.976-1.106v5.984h-2.971V21.116h2.876v1.698
		c0.324-0.498,0.672-0.891,1.039-1.179c0.672-0.513,1.47-0.771,2.397-0.771C41.078,20.864,42.221,21.361,43.157,22.351
		 M40.854,24.511c-0.408-0.681-1.07-1.022-1.984-1.022c-1.101,0-1.855,0.517-2.268,1.549c-0.213,0.548-0.32,1.243-0.32,2.087
		c0,1.332,0.358,2.273,1.073,2.812c0.427,0.316,0.933,0.474,1.512,0.474c0.847,0,1.488-0.323,1.935-0.968
		c0.441-0.646,0.665-1.507,0.665-2.582C41.466,25.975,41.261,25.192,40.854,24.511"/>
	<path d="M44.53,23.363v-2.139h1.601v-3.205h2.972v3.205h1.865v2.139h-1.865v6.068c0,0.472,0.059,0.764,0.179,0.881
		c0.121,0.115,0.485,0.175,1.097,0.175c0.09,0,0.188-0.002,0.29-0.006c0.101-0.004,0.201-0.011,0.3-0.016v2.243l-1.422,0.052
		c-1.42,0.051-2.389-0.196-2.909-0.737c-0.338-0.344-0.506-0.874-0.506-1.59v-7.07H44.53z"/>
	<path d="M61.503,31.197c-0.971,1.196-2.442,1.796-4.416,1.796c-1.972,0-3.444-0.6-4.415-1.796
		c-0.969-1.195-1.452-2.639-1.452-4.322c0-1.656,0.483-3.089,1.452-4.304c0.971-1.215,2.443-1.822,4.415-1.822
		c1.974,0,3.445,0.607,4.416,1.822c0.97,1.215,1.452,2.648,1.452,4.304C62.955,28.559,62.473,30.002,61.503,31.197 M59.1,29.538
		c0.472-0.623,0.706-1.51,0.706-2.662c0-1.149-0.234-2.034-0.706-2.655c-0.471-0.621-1.145-0.931-2.022-0.931
		c-0.879,0-1.555,0.31-2.029,0.931c-0.473,0.621-0.711,1.506-0.711,2.655c0,1.152,0.238,2.039,0.711,2.662
		c0.475,0.625,1.15,0.937,2.029,0.937C57.955,30.475,58.629,30.163,59.1,29.538"/>
	<path d="M68.684,25.618c0.559-0.071,0.958-0.158,1.198-0.263c0.432-0.184,0.647-0.468,0.647-0.855c0-0.469-0.165-0.794-0.498-0.975
		c-0.329-0.179-0.816-0.267-1.456-0.267c-0.718,0-1.228,0.177-1.527,0.525c-0.215,0.259-0.356,0.612-0.427,1.056h-2.897
		c0.063-1.005,0.345-1.83,0.845-2.478c0.799-1.01,2.167-1.516,4.105-1.516c1.265,0,2.386,0.25,3.367,0.748
		c0.979,0.499,1.472,1.44,1.472,2.822v5.269c0,0.366,0.006,0.808,0.021,1.329c0.021,0.392,0.079,0.659,0.178,0.8
		c0.1,0.141,0.247,0.258,0.444,0.347v0.442h-3.268c-0.09-0.231-0.153-0.447-0.189-0.651c-0.035-0.205-0.063-0.436-0.084-0.696
		c-0.417,0.45-0.897,0.831-1.441,1.149c-0.648,0.372-1.385,0.559-2.204,0.559c-1.045,0-1.91-0.298-2.592-0.891
		c-0.683-0.595-1.022-1.436-1.022-2.525c0-1.411,0.547-2.431,1.646-3.066c0.602-0.344,1.484-0.59,2.653-0.737L68.684,25.618z
		 M70.519,27.019c-0.191,0.12-0.385,0.217-0.583,0.29c-0.195,0.074-0.462,0.143-0.805,0.204l-0.685,0.127
		c-0.641,0.113-1.099,0.25-1.38,0.412c-0.474,0.274-0.71,0.698-0.71,1.275c0,0.511,0.145,0.882,0.436,1.11
		c0.288,0.229,0.639,0.344,1.054,0.344c0.655,0,1.258-0.19,1.811-0.57c0.556-0.379,0.842-1.071,0.862-2.075V27.019z"/>
	<path d="M84.426,21.777c0.751,0.622,1.127,1.651,1.127,3.092v7.733h-3.076v-6.985c0-0.604-0.08-1.069-0.24-1.391
		c-0.292-0.592-0.85-0.885-1.673-0.885c-1.011,0-1.704,0.432-2.081,1.295c-0.195,0.459-0.292,1.041-0.292,1.749v6.217h-3.005V21.139
		h2.908v1.675c0.385-0.59,0.749-1.016,1.091-1.275c0.616-0.463,1.397-0.695,2.341-0.695C82.708,20.844,83.674,21.156,84.426,21.777"
		/>
	<path d="M91.923,25.618c0.558-0.071,0.959-0.158,1.199-0.263c0.43-0.184,0.646-0.468,0.646-0.855c0-0.469-0.165-0.794-0.497-0.975
		c-0.329-0.179-0.815-0.267-1.455-0.267c-0.721,0-1.229,0.177-1.529,0.525c-0.214,0.259-0.357,0.612-0.426,1.056h-2.897
		c0.063-1.005,0.345-1.83,0.845-2.478c0.799-1.01,2.166-1.516,4.105-1.516c1.263,0,2.385,0.25,3.366,0.748
		c0.98,0.499,1.471,1.44,1.471,2.822v5.269c0,0.366,0.007,0.808,0.022,1.329c0.02,0.392,0.078,0.659,0.178,0.8
		c0.098,0.141,0.246,0.258,0.442,0.347v0.442h-3.266c-0.092-0.231-0.154-0.447-0.191-0.651c-0.033-0.205-0.062-0.436-0.083-0.696
		c-0.417,0.45-0.897,0.831-1.441,1.149c-0.649,0.372-1.384,0.559-2.205,0.559c-1.045,0-1.908-0.298-2.59-0.891
		c-0.683-0.595-1.023-1.436-1.023-2.525c0-1.411,0.549-2.431,1.645-3.066c0.603-0.344,1.486-0.59,2.655-0.737L91.923,25.618z
		 M93.759,27.019c-0.191,0.12-0.386,0.217-0.583,0.29c-0.195,0.074-0.463,0.143-0.806,0.204l-0.684,0.127
		c-0.642,0.113-1.102,0.25-1.381,0.412c-0.473,0.274-0.708,0.698-0.708,1.275c0,0.511,0.145,0.882,0.433,1.11
		c0.289,0.229,0.639,0.344,1.055,0.344c0.655,0,1.259-0.19,1.812-0.57c0.555-0.379,0.842-1.071,0.862-2.075V27.019z"/>
	<path d="M104.784,20.849c0.038,0.004,0.125,0.009,0.257,0.016v3.078c-0.189-0.022-0.356-0.035-0.505-0.043
		c-0.148-0.007-0.268-0.01-0.358-0.01c-1.207,0-2.02,0.393-2.435,1.18c-0.23,0.442-0.347,1.124-0.347,2.046v5.486h-3.025V21.117
		h2.867v2.002c0.463-0.763,0.866-1.287,1.211-1.569c0.563-0.469,1.292-0.705,2.192-0.705
		C104.697,20.845,104.745,20.846,104.784,20.849"/>
	<path d="M112.701,25.238c-0.058-0.429-0.202-0.814-0.435-1.159c-0.337-0.465-0.861-0.696-1.571-0.696
		c-1.016,0-1.709,0.502-2.081,1.506c-0.198,0.535-0.297,1.241-0.297,2.123c0,0.842,0.099,1.518,0.297,2.028
		c0.358,0.956,1.033,1.434,2.026,1.434c0.705,0,1.205-0.191,1.5-0.569c0.296-0.379,0.477-0.869,0.539-1.475h3.064
		c-0.068,0.913-0.399,1.777-0.99,2.593c-0.941,1.313-2.339,1.97-4.187,1.97c-1.849,0-3.21-0.548-4.081-1.645
		c-0.872-1.095-1.309-2.515-1.309-4.261c0-1.97,0.481-3.504,1.444-4.6c0.965-1.096,2.293-1.643,3.987-1.643
		c1.441,0,2.619,0.324,3.538,0.969c0.917,0.647,1.461,1.788,1.631,3.425H112.701z"/>
	<path d="M125.114,21.183c0.578,0.245,1.051,0.621,1.422,1.128c0.315,0.43,0.508,0.87,0.576,1.323
		c0.071,0.454,0.106,1.194,0.106,2.221v6.747h-3.067v-6.992c0-0.618-0.103-1.119-0.314-1.498c-0.271-0.534-0.785-0.802-1.546-0.802
		c-0.789,0-1.387,0.265-1.795,0.796c-0.406,0.531-0.61,1.29-0.61,2.275v6.221h-3.004V17.125h3.004v5.48
		c0.434-0.67,0.936-1.135,1.505-1.399c0.569-0.263,1.169-0.393,1.798-0.393C123.896,20.813,124.537,20.936,125.114,21.183"/>
	<path d="M129.522,34.805l0.379,0.021c0.296,0.015,0.577,0.004,0.845-0.032c0.265-0.035,0.49-0.117,0.674-0.241
		c0.175-0.121,0.337-0.37,0.489-0.748c0.152-0.381,0.216-0.612,0.195-0.696l-4.221-11.992h3.342l2.507,8.472l2.372-8.472h3.189
		l-3.935,11.297c-0.763,2.177-1.364,3.528-1.808,4.051c-0.442,0.522-1.328,0.784-2.657,0.784c-0.269,0-0.482-0.001-0.644-0.004
		c-0.162-0.004-0.405-0.017-0.729-0.039V34.805z"/>
	<path d="M50.807,39.101c-0.308,0.253-0.744,0.386-1.312,0.386h-1.086v1.875h-1.087v-5.224h2.243c0.518,0,0.931,0.134,1.238,0.406
		c0.308,0.267,0.461,0.684,0.461,1.249C51.265,38.41,51.111,38.846,50.807,39.101 M49.974,37.22
		c-0.14-0.117-0.333-0.174-0.582-0.174h-0.982v1.537h0.982c0.249,0,0.442-0.061,0.582-0.189c0.138-0.123,0.207-0.323,0.207-0.593
		C50.181,37.529,50.111,37.335,49.974,37.22"/>
	<path d="M53.262,39.012c0.189-0.023,0.323-0.052,0.403-0.087c0.146-0.061,0.219-0.157,0.219-0.289c0-0.159-0.057-0.266-0.168-0.326
		c-0.11-0.063-0.273-0.091-0.49-0.091c-0.241,0-0.412,0.06-0.513,0.176c-0.072,0.088-0.121,0.207-0.145,0.357h-0.974
		c0.021-0.338,0.115-0.618,0.284-0.834c0.268-0.341,0.729-0.512,1.38-0.512c0.427,0,0.804,0.086,1.133,0.252
		c0.33,0.169,0.494,0.484,0.494,0.951v1.773c0,0.123,0.003,0.272,0.007,0.446c0.01,0.134,0.028,0.221,0.061,0.269
		c0.033,0.047,0.082,0.087,0.149,0.117v0.148h-1.098c-0.03-0.076-0.052-0.151-0.063-0.218c-0.014-0.07-0.024-0.147-0.03-0.235
		c-0.139,0.153-0.302,0.28-0.485,0.387c-0.218,0.124-0.466,0.188-0.741,0.188c-0.352,0-0.643-0.101-0.871-0.3
		c-0.23-0.198-0.345-0.482-0.345-0.848c0-0.476,0.185-0.819,0.555-1.031c0.201-0.119,0.498-0.201,0.891-0.248L53.262,39.012z
		 M53.88,39.487c-0.064,0.038-0.13,0.071-0.194,0.095c-0.067,0.025-0.158,0.048-0.274,0.07l-0.228,0.041
		c-0.218,0.037-0.37,0.084-0.466,0.14c-0.159,0.091-0.237,0.233-0.237,0.429c0,0.172,0.048,0.296,0.146,0.374
		c0.097,0.075,0.215,0.113,0.354,0.113c0.223,0,0.424-0.063,0.61-0.19c0.187-0.128,0.282-0.361,0.29-0.699V39.487z"/>
	<path d="M57.59,37.408c0.012,0.001,0.042,0.003,0.086,0.007v1.035c-0.064-0.007-0.122-0.013-0.169-0.015
		c-0.051-0.003-0.093-0.003-0.121-0.003c-0.408,0-0.681,0.132-0.819,0.396c-0.077,0.149-0.119,0.378-0.119,0.688v1.846h-1.016V37.5
		h0.963v0.674c0.156-0.259,0.294-0.434,0.409-0.532c0.188-0.158,0.436-0.236,0.736-0.236C57.56,37.406,57.577,37.406,57.59,37.408"
		/>
	<path d="M59.472,39.012c0.188-0.023,0.322-0.052,0.402-0.087c0.146-0.061,0.22-0.157,0.22-0.289c0-0.159-0.056-0.266-0.166-0.326
		c-0.113-0.063-0.277-0.091-0.492-0.091c-0.242,0-0.414,0.06-0.514,0.176c-0.072,0.088-0.12,0.207-0.145,0.357h-0.975
		c0.021-0.338,0.117-0.618,0.284-0.834c0.27-0.341,0.729-0.512,1.382-0.512c0.424,0,0.802,0.086,1.131,0.252
		c0.329,0.169,0.495,0.484,0.495,0.951v1.773c0,0.123,0.003,0.272,0.009,0.446c0.006,0.134,0.027,0.221,0.059,0.269
		c0.034,0.047,0.082,0.087,0.149,0.117v0.148h-1.099c-0.029-0.076-0.052-0.151-0.063-0.218c-0.012-0.07-0.021-0.147-0.028-0.235
		c-0.141,0.153-0.302,0.28-0.485,0.387c-0.219,0.124-0.465,0.188-0.741,0.188c-0.35,0-0.643-0.101-0.872-0.3
		c-0.229-0.198-0.344-0.482-0.344-0.848c0-0.476,0.184-0.819,0.554-1.031c0.203-0.119,0.5-0.201,0.893-0.248L59.472,39.012z
		 M60.088,39.487c-0.063,0.038-0.129,0.071-0.196,0.095c-0.064,0.025-0.154,0.048-0.271,0.07l-0.229,0.041
		c-0.218,0.037-0.371,0.084-0.466,0.14c-0.159,0.091-0.237,0.233-0.237,0.429c0,0.172,0.046,0.296,0.146,0.374
		c0.098,0.075,0.214,0.113,0.354,0.113c0.22,0,0.425-0.063,0.611-0.19c0.185-0.128,0.282-0.361,0.288-0.699V39.487z"/>
	<rect x="61.673" y="36.137" width="1.01" height="5.224"/>
	<path d="M65.858,37.578c0.271,0.12,0.494,0.311,0.668,0.572c0.159,0.228,0.262,0.496,0.308,0.8
		c0.027,0.175,0.038,0.432,0.033,0.763h-2.813c0.016,0.39,0.148,0.661,0.403,0.817c0.154,0.097,0.34,0.146,0.557,0.146
		c0.23,0,0.419-0.059,0.562-0.179c0.078-0.063,0.147-0.152,0.209-0.266h1.029c-0.026,0.229-0.151,0.461-0.373,0.698
		c-0.346,0.378-0.832,0.565-1.454,0.565c-0.514,0-0.968-0.159-1.361-0.475c-0.392-0.317-0.588-0.832-0.588-1.547
		c0-0.668,0.177-1.183,0.53-1.54c0.354-0.357,0.815-0.535,1.382-0.535C65.287,37.397,65.589,37.457,65.858,37.578 M64.348,38.451
		c-0.142,0.147-0.231,0.347-0.269,0.596h1.74c-0.017-0.267-0.108-0.471-0.271-0.61c-0.159-0.136-0.358-0.207-0.598-0.207
		C64.693,38.23,64.49,38.303,64.348,38.451"/>
	<rect x="67.074" y="36.137" width="1.011" height="5.224"/>
	<path d="M71.859,37.72c0.251,0.211,0.379,0.557,0.379,1.04v2.602h-1.036v-2.35c0-0.202-0.027-0.357-0.08-0.466
		c-0.099-0.197-0.287-0.3-0.564-0.3c-0.34,0-0.573,0.146-0.699,0.438c-0.065,0.152-0.1,0.349-0.1,0.588v2.09h-1.011v-3.857h0.98
		v0.563c0.129-0.195,0.252-0.34,0.365-0.426c0.207-0.157,0.472-0.236,0.789-0.236C71.279,37.406,71.605,37.512,71.859,37.72"/>
	<polygon points="74.843,35.919 73.715,35.919 73.033,36.977 73.763,36.977 	"/>
	<rect x="72.864" y="37.5" width="1.025" height="3.861"/>
	<path d="M80.264,39.101c-0.306,0.257-0.741,0.386-1.311,0.386h-1.087v1.875h-1.084v-5.224h2.242c0.518,0,0.93,0.137,1.238,0.406
		c0.306,0.268,0.461,0.685,0.461,1.249C80.724,38.41,80.569,38.846,80.264,39.101 M79.431,37.22
		c-0.139-0.117-0.331-0.173-0.581-0.173h-0.983v1.536h0.983c0.25,0,0.442-0.061,0.581-0.185c0.138-0.126,0.208-0.326,0.208-0.597
		C79.639,37.529,79.568,37.336,79.431,37.22"/>
	<path d="M84.412,40.89c-0.324,0.404-0.82,0.604-1.484,0.604s-1.159-0.2-1.485-0.604c-0.326-0.401-0.488-0.886-0.488-1.452
		c0-0.558,0.162-1.04,0.488-1.45c0.326-0.406,0.821-0.613,1.485-0.613s1.16,0.207,1.484,0.613c0.326,0.41,0.488,0.892,0.488,1.45
		C84.9,40.004,84.738,40.489,84.412,40.89 M83.604,40.332c0.16-0.208,0.237-0.507,0.237-0.894c0-0.386-0.077-0.685-0.237-0.892
		c-0.158-0.212-0.384-0.316-0.68-0.316s-0.524,0.104-0.683,0.316c-0.159,0.207-0.239,0.506-0.239,0.892
		c0,0.387,0.08,0.686,0.239,0.894c0.158,0.211,0.387,0.316,0.683,0.316S83.445,40.543,83.604,40.332"/>
	<rect x="85.32" y="36.137" width="1.009" height="5.224"/>
	<path d="M88.027,37.039h-1.025v-0.93h1.025V37.039z M87.002,37.501h1.025v3.861h-1.025V37.501z"/>
	<path d="M89.463,40.129c0.021,0.179,0.066,0.308,0.138,0.384c0.125,0.135,0.358,0.201,0.698,0.201c0.198,0,0.357-0.028,0.477-0.088
		c0.115-0.059,0.175-0.149,0.175-0.266c0-0.114-0.047-0.198-0.142-0.257c-0.096-0.061-0.447-0.162-1.056-0.307
		c-0.439-0.107-0.75-0.244-0.931-0.408c-0.178-0.161-0.268-0.392-0.268-0.693c0-0.358,0.141-0.665,0.42-0.921
		c0.281-0.254,0.677-0.385,1.186-0.385c0.482,0,0.877,0.095,1.183,0.289c0.304,0.194,0.478,0.525,0.521,0.999h-1.01
		c-0.014-0.131-0.052-0.234-0.11-0.307c-0.111-0.14-0.3-0.209-0.568-0.209c-0.22,0-0.378,0.036-0.471,0.104
		c-0.094,0.069-0.141,0.149-0.141,0.242c0,0.115,0.05,0.199,0.148,0.25c0.101,0.055,0.452,0.147,1.055,0.281
		c0.403,0.094,0.705,0.236,0.904,0.43c0.2,0.192,0.3,0.436,0.3,0.726c0,0.382-0.143,0.693-0.427,0.938
		c-0.286,0.242-0.728,0.362-1.325,0.362c-0.607,0-1.056-0.129-1.347-0.385c-0.29-0.254-0.435-0.583-0.435-0.98H89.463z"/>
</g>
</svg>
