<?xml version="1.0" encoding="UTF-8" standalone="no"?>
<!-- Created with Inkscape (http://www.inkscape.org/) -->

<svg
   xmlns:dc="http://purl.org/dc/elements/1.1/"
   xmlns:cc="http://creativecommons.org/ns#"
   xmlns:rdf="http://www.w3.org/1999/02/22-rdf-syntax-ns#"
   xmlns:svg="http://www.w3.org/2000/svg"
   xmlns="http://www.w3.org/2000/svg"
   xmlns:sodipodi="http://sodipodi.sourceforge.net/DTD/sodipodi-0.dtd"
   xmlns:inkscape="http://www.inkscape.org/namespaces/inkscape"
   width="302.06866"
   height="51.358665"
   viewBox="0 0 79.922332 13.588647"
   version="1.1"
   id="svg1662"
   inkscape:version="0.92.5 (2060ec1f9f, 2020-04-08)"
   sodipodi:docname="paralelniPolis.svg">
  <defs
     id="defs1656">
    <clipPath
       clipPathUnits="userSpaceOnUse"
       id="clipPath626">
      <path
         d="M 0,0 H 1920 V 1200 H 0 Z"
         id="path624"
         inkscape:connector-curvature="0" />
    </clipPath>
    <clipPath
       clipPathUnits="userSpaceOnUse"
       id="clipPath654">
      <path
         d="M 0,0 H 1920 V 1200 H 0 Z"
         id="path652"
         inkscape:connector-curvature="0" />
    </clipPath>
    <clipPath
       clipPathUnits="userSpaceOnUse"
       id="clipPath676">
      <path
         d="M 0,0 H 1920 V 1200 H 0 Z"
         id="path674"
         inkscape:connector-curvature="0" />
    </clipPath>
    <clipPath
       clipPathUnits="userSpaceOnUse"
       id="clipPath698">
      <path
         d="M 0,0 H 1920 V 1200 H 0 Z"
         id="path696"
         inkscape:connector-curvature="0" />
    </clipPath>
  </defs>
  <sodipodi:namedview
     id="base"
     pagecolor="#ffffff"
     bordercolor="#666666"
     borderopacity="1.0"
     inkscape:pageopacity="0.0"
     inkscape:pageshadow="2"
     inkscape:zoom="0.98994949"
     inkscape:cx="-105.62236"
     inkscape:cy="-31.864594"
     inkscape:document-units="mm"
     inkscape:current-layer="layer1"
     showgrid="false"
     units="px"
     fit-margin-top="0"
     fit-margin-left="0"
     fit-margin-right="0"
     fit-margin-bottom="0"
     inkscape:window-width="2519"
     inkscape:window-height="1542"
     inkscape:window-x="711"
     inkscape:window-y="265"
     inkscape:window-maximized="0" />
  <metadata
     id="metadata1659">
    <rdf:RDF>
      <cc:Work
         rdf:about="">
        <dc:format>image/svg+xml</dc:format>
        <dc:type
           rdf:resource="http://purl.org/dc/dcmitype/StillImage" />
        <dc:title></dc:title>
      </cc:Work>
    </rdf:RDF>
  </metadata>
  <g
     inkscape:label="Layer 1"
     inkscape:groupmode="layer"
     id="layer1"
     transform="translate(-66.817115,-134.2905)">
    <g
       id="g1601"
       transform="matrix(0.35277777,0,0,-0.35277777,-232.59381,181.08538)">
      <g
         transform="translate(971.0223,94.1279)"
         id="g616">
        <path
           inkscape:connector-curvature="0"
           id="path618"
           style="fill:#000000;fill-opacity:1;fill-rule:nonzero;stroke:none"
           d="M 0,0 H -5.997 L 16.176,38.519 38.352,0 H 5.86 L 8.876,5.239 H 29.348 L 16.176,28.12 Z" />
      </g>
      <g
         id="g620">
        <g
           clip-path="url(#clipPath626)"
           id="g622">
          <g
             transform="translate(863.7989,106.6519)"
             id="g628">
            <path
               inkscape:connector-curvature="0"
               id="path630"
               style="fill:#000000;fill-opacity:1;fill-rule:nonzero;stroke:none"
               d="m 0,0 c -1.322,-1.116 -3.214,-1.68 -5.67,-1.68 h -4.707 v -8.235 h -4.698 v 22.908 h 9.71 c 2.242,0 4.024,-0.589 5.354,-1.772 C 1.319,10.042 1.986,8.213 1.986,5.736 1.986,3.031 1.326,1.119 0,0 M -3.603,8.253 C -4.206,8.76 -5.041,9.014 -6.121,9.014 h -4.256 V 2.269 h 4.256 c 1.08,0 1.915,0.276 2.518,0.824 0.597,0.549 0.896,1.421 0.896,2.612 0,1.192 -0.299,2.039 -0.896,2.548" />
          </g>
          <g
             transform="translate(873.7939,107.0844)"
             id="g632">
            <path
               inkscape:connector-curvature="0"
               id="path634"
               style="fill:#000000;fill-opacity:1;fill-rule:nonzero;stroke:none"
               d="M 0,0 C 0.813,0.101 1.396,0.231 1.749,0.389 2.378,0.658 2.692,1.077 2.692,1.648 2.692,2.347 2.451,2.827 1.97,3.09 1.483,3.353 0.776,3.488 -0.158,3.488 -1.209,3.488 -1.953,3.229 -2.39,2.708 -2.699,2.326 -2.907,1.805 -3.011,1.149 h -4.225 c 0.09,1.488 0.502,2.707 1.235,3.661 1.162,1.495 3.157,2.242 5.99,2.242 1.841,0 3.479,-0.366 4.909,-1.105 C 6.329,5.21 7.045,3.818 7.045,1.774 v -7.787 c 0,-0.541 0.007,-1.196 0.028,-1.965 0.033,-0.58 0.12,-0.973 0.261,-1.18 0.141,-0.208 0.359,-0.381 0.648,-0.513 v -0.655 H 3.216 C 3.082,-9.985 2.99,-9.662 2.939,-9.36 2.888,-9.061 2.846,-8.716 2.816,-8.334 2.208,-9.001 1.508,-9.564 0.71,-10.033 c -0.945,-0.549 -2.019,-0.825 -3.212,-0.825 -1.527,0 -2.791,0.441 -3.781,1.314 -0.996,0.878 -1.492,2.123 -1.492,3.732 0,2.089 0.797,3.596 2.398,4.532 0.878,0.51 2.169,0.873 3.872,1.091 z M 2.677,-2.075 C 2.396,-2.249 2.114,-2.393 1.83,-2.501 1.541,-2.609 1.151,-2.713 0.65,-2.805 L -0.346,-2.99 c -0.934,-0.17 -1.607,-0.371 -2.014,-0.611 -0.691,-0.403 -1.035,-1.034 -1.035,-1.881 0,-0.76 0.211,-1.309 0.631,-1.644 0.42,-0.339 0.937,-0.507 1.538,-0.507 0.961,0 1.84,0.278 2.645,0.842 0.809,0.559 1.228,1.583 1.258,3.068 z" />
          </g>
          <g
             transform="translate(892.6608,114.1084)"
             id="g636">
            <path
               inkscape:connector-curvature="0"
               id="path638"
               style="fill:#000000;fill-opacity:1;fill-rule:nonzero;stroke:none"
               d="m 0,0 c 0.06,-0.006 0.184,-0.012 0.376,-0.022 v -4.549 c -0.276,0.031 -0.523,0.054 -0.737,0.063 -0.215,0.009 -0.388,0.014 -0.52,0.014 -1.763,0 -2.948,-0.58 -3.554,-1.745 -0.338,-0.654 -0.507,-1.657 -0.507,-3.022 v -8.111 h -4.411 v 16.977 h 4.181 v -2.962 c 0.676,1.132 1.266,1.907 1.768,2.324 0.819,0.692 1.887,1.041 3.199,1.041 C -0.125,0.008 -0.056,0.005 0,0" />
          </g>
          <g
             transform="translate(901.1981,107.1174)"
             id="g640">
            <path
               inkscape:connector-curvature="0"
               id="path642"
               style="fill:#000000;fill-opacity:1;fill-rule:nonzero;stroke:none"
               d="m 0,0 c 0.817,0.101 1.4,0.231 1.75,0.389 0.63,0.269 0.944,0.689 0.944,1.259 0,0.698 -0.24,1.179 -0.724,1.441 -0.482,0.264 -1.192,0.399 -2.126,0.399 -1.05,0 -1.795,-0.259 -2.228,-0.78 C -2.696,2.326 -2.905,1.805 -3.01,1.15 h -4.227 c 0.094,1.487 0.505,2.707 1.237,3.66 1.162,1.495 3.158,2.242 5.99,2.242 1.841,0 3.477,-0.366 4.91,-1.105 C 6.329,5.211 7.046,3.819 7.046,1.774 v -7.787 c 0,-0.541 0.01,-1.197 0.031,-1.965 0.031,-0.58 0.119,-0.973 0.262,-1.181 0.142,-0.207 0.358,-0.38 0.643,-0.512 v -0.655 H 3.217 c -0.13,0.34 -0.225,0.664 -0.277,0.966 -0.05,0.297 -0.091,0.644 -0.12,1.026 -0.611,-0.667 -1.312,-1.23 -2.107,-1.699 -0.947,-0.549 -2.018,-0.825 -3.215,-0.825 -1.526,0 -2.785,0.441 -3.78,1.314 -0.995,0.878 -1.495,2.124 -1.495,3.732 0,2.089 0.801,3.596 2.406,4.532 0.874,0.51 2.167,0.873 3.872,1.091 z M 2.679,-2.075 C 2.399,-2.249 2.116,-2.393 1.831,-2.501 1.545,-2.609 1.151,-2.713 0.653,-2.805 L -0.342,-2.99 c -0.938,-0.17 -1.609,-0.371 -2.015,-0.611 -0.691,-0.403 -1.035,-1.034 -1.035,-1.882 0,-0.76 0.21,-1.308 0.631,-1.643 0.422,-0.339 0.933,-0.507 1.538,-0.507 0.956,0 1.836,0.279 2.646,0.842 0.807,0.559 1.227,1.584 1.256,3.068 z" />
          </g>
        </g>
      </g>
      <path
         inkscape:connector-curvature="0"
         id="path644"
         style="fill:#000000;fill-opacity:1;fill-rule:nonzero;stroke:none"
         d="m 914.936,96.761 h -4.382 v 22.955 h 4.382 z" />
      <path
         inkscape:connector-curvature="0"
         id="path646"
         style="fill:#000000;fill-opacity:1;fill-rule:nonzero;stroke:none"
         d="m 938.924,96.787 h -4.383 v 22.956 h 4.383 z" />
      <g
         id="g648">
        <g
           clip-path="url(#clipPath654)"
           id="g650">
          <g
             transform="translate(928.6661,113.4377)"
             id="g656">
            <path
               inkscape:connector-curvature="0"
               id="path658"
               style="fill:#000000;fill-opacity:1;fill-rule:nonzero;stroke:none"
               d="M 0,0 C 1.167,-0.528 2.134,-1.366 2.894,-2.51 3.58,-3.519 4.025,-4.69 4.231,-6.02 4.348,-6.799 4.395,-7.925 4.374,-9.391 H -7.828 c 0.064,-1.703 0.65,-2.896 1.752,-3.585 0.669,-0.422 1.472,-0.637 2.414,-0.637 0.998,0 1.807,0.26 2.433,0.781 0.336,0.28 0.64,0.672 0.901,1.168 h 4.472 c -0.117,-1.007 -0.658,-2.03 -1.623,-3.071 -1.499,-1.647 -3.604,-2.477 -6.305,-2.477 -2.23,0 -4.197,0.7 -5.9,2.092 -1.709,1.391 -2.558,3.658 -2.558,6.798 0,2.938 0.767,5.194 2.308,6.763 1.537,1.573 3.537,2.353 5.99,2.353 C -2.483,0.794 -1.17,0.532 0,0 m -6.557,-3.833 c -0.618,-0.649 -1.009,-1.523 -1.166,-2.629 h 7.551 c -0.083,1.178 -0.47,2.074 -1.169,2.683 -0.701,0.609 -1.564,0.914 -2.599,0.914 -1.125,0 -1.994,-0.322 -2.617,-0.968" />
          </g>
          <g
             transform="translate(954.0723,112.8119)"
             id="g660">
            <path
               inkscape:connector-curvature="0"
               id="path662"
               style="fill:#000000;fill-opacity:1;fill-rule:nonzero;stroke:none"
               d="m 0,0 c 1.096,-0.92 1.644,-2.442 1.644,-4.571 v -11.43 h -4.486 v 10.326 c 0,0.891 -0.12,1.577 -0.353,2.052 -0.429,0.874 -1.244,1.311 -2.443,1.311 -1.476,0 -2.487,-0.64 -3.037,-1.915 -0.282,-0.677 -0.429,-1.538 -0.429,-2.589 v -9.185 h -4.381 V 0.941 h 4.245 v -2.475 c 0.562,0.87 1.093,1.499 1.592,1.886 0.898,0.682 2.035,1.026 3.415,1.026 C -2.51,1.378 -1.098,0.917 0,0" />
          </g>
        </g>
      </g>
      <g
         transform="translate(965.8504,120.7605)"
         id="g664">
        <path
           inkscape:connector-curvature="0"
           id="path666"
           style="fill:#000000;fill-opacity:1;fill-rule:nonzero;stroke:none"
           d="m 0,0 h -4.89 l -2.95,-4.658 h 3.165 z" />
      </g>
      <path
         inkscape:connector-curvature="0"
         id="path668"
         style="fill:#000000;fill-opacity:1;fill-rule:nonzero;stroke:none"
         d="m 957.274,96.84 h 4.445 v 16.977 h -4.445 z" />
      <g
         id="g670">
        <g
           clip-path="url(#clipPath676)"
           id="g672">
          <g
             transform="translate(1027.0508,106.6067)"
             id="g678">
            <path
               inkscape:connector-curvature="0"
               id="path680"
               style="fill:#000000;fill-opacity:1;fill-rule:nonzero;stroke:none"
               d="m 0,0 c -1.327,-1.125 -3.225,-1.686 -5.69,-1.686 h -4.725 v -8.267 h -4.714 v 22.995 h 9.745 c 2.249,0 4.038,-0.595 5.374,-1.779 C 1.324,10.078 1.993,8.24 1.993,5.756 1.993,3.042 1.331,1.123 0,0 m -3.617,8.284 c -0.604,0.509 -1.441,0.763 -2.525,0.763 h -4.273 V 2.276 h 4.273 c 1.084,0 1.921,0.275 2.525,0.826 0.599,0.553 0.901,1.429 0.901,2.624 0,1.197 -0.302,2.046 -0.901,2.558" />
          </g>
          <g
             transform="translate(1044.2991,98.9801)"
             id="g682">
            <path
               inkscape:connector-curvature="0"
               id="path684"
               style="fill:#000000;fill-opacity:1;fill-rule:nonzero;stroke:none"
               d="m 0,0 c -1.417,-1.771 -3.565,-2.654 -6.45,-2.654 -2.887,0 -5.036,0.883 -6.453,2.654 -1.416,1.773 -2.124,3.906 -2.124,6.399 0,2.453 0.708,4.578 2.124,6.373 1.417,1.798 3.566,2.698 6.453,2.698 2.885,0 5.033,-0.9 6.45,-2.698 C 1.416,10.977 2.124,8.852 2.124,6.399 2.124,3.906 1.416,1.773 0,0 m -3.51,2.458 c 0.688,0.924 1.03,2.238 1.03,3.941 0,1.704 -0.342,3.014 -1.03,3.933 -0.686,0.92 -1.674,1.379 -2.957,1.379 -1.285,0 -2.271,-0.459 -2.963,-1.379 -0.693,-0.919 -1.038,-2.229 -1.038,-3.933 0,-1.703 0.345,-3.017 1.038,-3.941 0.692,-0.924 1.678,-1.388 2.963,-1.388 1.283,0 2.271,0.464 2.957,1.388" />
          </g>
        </g>
      </g>
      <path
         inkscape:connector-curvature="0"
         id="path686"
         style="fill:#000000;fill-opacity:1;fill-rule:nonzero;stroke:none"
         d="m 1052.35,96.653 h -4.386 v 22.995 h 4.386 z" />
      <path
         inkscape:connector-curvature="0"
         id="path688"
         style="fill:#000000;fill-opacity:1;fill-rule:nonzero;stroke:none"
         d="m 1058.689,115.547 h -4.45 v 4.102 h 4.45 z" />
      <path
         inkscape:connector-curvature="0"
         id="path690"
         style="fill:#000000;fill-opacity:1;fill-rule:nonzero;stroke:none"
         d="m 1054.239,113.658 h 4.45 V 96.653 h -4.45 z" />
      <g
         id="g692">
        <g
           clip-path="url(#clipPath698)"
           id="g694">
          <g
             transform="translate(1064.3754,102.3431)"
             id="g700">
            <path
               inkscape:connector-curvature="0"
               id="path702"
               style="fill:#000000;fill-opacity:1;fill-rule:nonzero;stroke:none"
               d="m 0,0 c 0.093,-0.789 0.294,-1.351 0.606,-1.685 0.544,-0.592 1.553,-0.89 3.032,-0.89 0.864,0 1.552,0.13 2.064,0.391 0.509,0.259 0.767,0.649 0.767,1.17 0,0.499 -0.207,0.878 -0.62,1.137 -0.411,0.26 -1.942,0.709 -4.589,1.343 -1.908,0.479 -3.251,1.074 -4.034,1.793 -0.78,0.709 -1.17,1.727 -1.17,3.059 0,1.57 0.612,2.916 1.828,4.047 1.22,1.13 2.937,1.695 5.148,1.695 2.101,0 3.809,-0.424 5.129,-1.271 C 9.484,9.942 10.245,8.476 10.44,6.396 H 6.051 C 5.988,6.967 5.832,7.418 5.569,7.752 5.089,8.357 4.266,8.658 3.104,8.658 2.145,8.658 1.463,8.506 1.055,8.207 0.652,7.904 0.445,7.549 0.445,7.146 0.445,6.635 0.664,6.267 1.094,6.034 1.525,5.799 3.056,5.385 5.677,4.806 7.424,4.388 8.735,3.759 9.608,2.915 10.469,2.064 10.9,0.999 10.9,-0.281 10.9,-1.963 10.281,-3.34 9.042,-4.41 7.803,-5.472 5.885,-6.005 3.295,-6.005 c -2.643,0 -4.592,0.565 -5.854,1.692 -1.26,1.129 -1.892,2.566 -1.892,4.313 z" />
          </g>
        </g>
      </g>
    </g>
  </g>
</svg>
