<?xml version="1.0" encoding="utf-8"?>
<!-- Generator: Adobe Illustrator 15.0.2, SVG Export Plug-In . SVG Version: 6.00 Build 0)  -->
<!DOCTYPE svg PUBLIC "-//W3C//DTD SVG 1.1//EN" "http://www.w3.org/Graphics/SVG/1.1/DTD/svg11.dtd">
<svg version="1.1" id="Vrstva_1" xmlns="http://www.w3.org/2000/svg" xmlns:xlink="http://www.w3.org/1999/xlink" x="0px" y="0px"
	 width="56.693px" height="56.693px" viewBox="0 0 56.693 56.693" enable-background="new 0 0 56.693 56.693" xml:space="preserve">
<g>
	<path fill="#5400FF" d="M14.878,28.482c0,0,12.51-5.134,16.848-6.941c1.664-0.724,7.304-3.037,7.304-3.037s2.604-1.012,2.387,1.446
		c-0.072,1.013-0.651,4.556-1.229,8.388c-0.869,5.424-1.809,11.353-1.809,11.353s-0.145,1.663-1.374,1.953
		c-1.229,0.289-3.254-1.013-3.615-1.302c-0.29-0.217-5.424-3.471-7.304-5.062c-0.506-0.435-1.085-1.302,0.072-2.314
		c2.604-2.386,5.713-5.351,7.593-7.231c0.868-0.867,1.735-2.892-1.88-0.434c-5.134,3.544-10.196,6.87-10.196,6.87
		s-1.157,0.723-3.326,0.072c-2.169-0.651-4.7-1.519-4.7-1.519S11.913,29.64,14.878,28.482"/>
</g>
</svg>
