<?xml version="1.0" encoding="utf-8"?>
<!-- Generator: Adobe Illustrator 15.0.2, SVG Export Plug-In . SVG Version: 6.00 Build 0)  -->
<!DOCTYPE svg PUBLIC "-//W3C//DTD SVG 1.1//EN" "http://www.w3.org/Graphics/SVG/1.1/DTD/svg11.dtd">
<svg version="1.1" id="Vrstva_1" xmlns="http://www.w3.org/2000/svg" xmlns:xlink="http://www.w3.org/1999/xlink" x="0px" y="0px"
	 width="56.693px" height="56.693px" viewBox="0 0 56.693 56.693" enable-background="new 0 0 56.693 56.693" xml:space="preserve">
<path fill="#5400FF" d="M42.512,18.996c-1.104,0.654-2.329,1.131-3.632,1.387c-1.041-1.11-2.527-1.804-4.172-1.804
	c-3.158,0-5.717,2.558-5.717,5.713c0,0.447,0.051,0.882,0.147,1.301c-4.753-0.238-8.965-2.512-11.784-5.968
	c-0.492,0.842-0.774,1.824-0.774,2.872c0,1.98,1.011,3.729,2.544,4.754c-0.936-0.031-1.819-0.287-2.59-0.715v0.071
	c0,2.768,1.971,5.076,4.588,5.602c-0.481,0.131-0.986,0.2-1.508,0.2c-0.368,0-0.727-0.035-1.076-0.102
	c0.73,2.269,2.839,3.92,5.341,3.966c-1.958,1.532-4.421,2.445-7.103,2.445c-0.461,0-0.914-0.028-1.363-0.08
	c2.531,1.62,5.537,2.566,8.766,2.566c10.516,0,16.264-8.703,16.264-16.251c0-0.248-0.002-0.495-0.014-0.74
	c1.116-0.804,2.087-1.81,2.852-2.957c-1.023,0.455-2.125,0.762-3.282,0.899C41.179,21.45,42.084,20.331,42.512,18.996"/>
</svg>
