<svg width="69" height="58" viewBox="0 0 69 58" fill="none" xmlns="http://www.w3.org/2000/svg">
<path d="M68.875 6.87027C66.957 9.82776 64.604 12.3489 61.8159 14.4336C61.8434 14.9928 61.8572 15.6247 61.8572 16.3295C61.8572 20.2454 61.3064 24.166 60.205 28.0913C59.1036 32.0167 57.4211 35.774 55.1577 39.3632C52.8942 42.9524 50.198 46.1321 47.069 48.9024C43.9401 51.6726 40.1789 53.8814 35.7856 55.5289C31.3922 57.1763 26.6838 58 21.6601 58C13.8199 58 6.5999 55.8058 0 51.4174C1.1714 51.5526 2.29488 51.6201 3.37042 51.6201C9.92027 51.6201 15.7703 49.5287 20.9206 45.3459C17.8667 45.2878 15.1317 44.3133 12.7156 42.4221C10.2995 40.5311 8.6368 38.1146 7.72749 35.1728C8.62628 35.3503 9.51336 35.4391 10.3887 35.4391C11.6487 35.4391 12.8886 35.2687 14.1083 34.928C10.8492 34.2513 8.14548 32.5685 5.99719 29.8797C3.84897 27.1908 2.77486 24.0874 2.77486 20.5693V20.388C4.7753 21.5363 6.90909 22.147 9.17621 22.2204C7.24556 20.886 5.71484 19.1461 4.58405 17.0004C3.45319 14.8548 2.88776 12.5328 2.88776 10.0345C2.88776 7.39965 3.52465 4.9461 4.79844 2.67386C8.34264 7.18265 12.6372 10.7862 17.6821 13.4846C22.727 16.183 28.1393 17.6816 33.9189 17.9804C33.6724 16.9154 33.5489 15.804 33.5484 14.6463C33.5484 10.6038 34.9284 7.15217 37.6883 4.2913C40.4482 1.43043 43.7779 0 47.6773 0C51.7599 0 55.1986 1.54108 57.9937 4.62323C61.1871 3.96749 64.1772 2.78141 66.964 1.06499C65.8903 4.5678 63.8215 7.26998 60.7575 9.17153C63.5736 8.82461 66.2794 8.05753 68.8749 6.87027H68.875Z" fill="white"/>
</svg>
