<svg width="38" height="38" viewBox="0 0 38 38" fill="none" xmlns="http://www.w3.org/2000/svg">
<circle cx="19" cy="19" r="18" stroke="white"/>
<path d="M29 12.8952C28.4709 13.7111 27.8218 14.4066 27.0527 14.9817C27.0602 15.1359 27.064 15.3103 27.064 15.5047C27.064 16.5849 26.9121 17.6665 26.6083 18.7493C26.3044 19.8322 25.8403 20.8687 25.2159 21.8588C24.5915 22.8489 23.8477 23.7261 22.9846 24.4903C22.1214 25.2545 21.0838 25.8638 19.8719 26.3183C18.6599 26.7728 17.361 27 15.9752 27C13.8124 27 11.8207 26.3947 10 25.1841C10.3231 25.2214 10.6331 25.24 10.9298 25.24C12.7366 25.24 14.3504 24.6631 15.7712 23.5092C14.9287 23.4932 14.1743 23.2243 13.5078 22.7027C12.8412 22.181 12.3826 21.5144 12.1317 20.7028C12.3797 20.7518 12.6244 20.7763 12.8659 20.7763C13.2134 20.7763 13.5555 20.7293 13.8919 20.6353C12.9929 20.4486 12.247 19.9844 11.6544 19.2427C11.0618 18.5009 10.7655 17.6448 10.7655 16.6743V16.6243C11.3173 16.941 11.906 17.1095 12.5314 17.1297C11.9988 16.7617 11.5765 16.2817 11.2646 15.6898C10.9526 15.0979 10.7966 14.4573 10.7966 13.7681C10.7966 13.0413 10.9723 12.3644 11.3237 11.7376C12.3014 12.9814 13.4861 13.9755 14.8778 14.7199C16.2695 15.4643 17.7626 15.8777 19.3569 15.9601C19.2889 15.6663 19.2549 15.3597 19.2547 15.0403C19.2547 13.9252 19.6354 12.973 20.3968 12.1838C21.1581 11.3946 22.0766 11 23.1524 11C24.2786 11 25.2272 11.4251 25.9983 12.2754C26.8792 12.0945 27.7041 11.7673 28.4728 11.2938C28.1766 12.2601 27.6059 13.0055 26.7607 13.5301C27.5376 13.4344 28.284 13.2228 29 12.8952H29Z" fill="white"/>
</svg>
